<svg width="37" height="22" viewBox="0 0 37 22" fill="none" xmlns="http://www.w3.org/2000/svg">
<rect width="37" height="22" fill="#3574BD"/>
<path d="M9.51752 21.9964C9.9314 21.8767 10.3068 21.6841 10.4716 21.2654C10.5687 21.0188 10.5825 20.7378 10.6226 20.4707C10.6331 20.3619 10.6331 20.2523 10.6226 20.1435C10.6139 19.9586 10.6026 19.8081 10.8454 19.7243C11.0734 19.6452 11.131 19.3262 10.9733 19.1315C10.8125 18.9279 10.6289 18.7434 10.4259 18.5819C10.1455 18.3661 9.76554 18.5695 9.75835 18.9358C9.74551 19.4752 9.75476 20.0146 9.7527 20.556C9.7527 20.8884 9.62894 21.0646 9.37887 21.1046C9.27396 21.1247 9.16538 21.1031 9.07613 21.0444C8.98688 20.9857 8.92399 20.8945 8.90079 20.7902C8.88251 20.7104 8.87337 20.6287 8.87358 20.5467C8.87358 15.3916 8.87358 10.2367 8.87358 5.08188V5.0002C9.94938 7.04061 11.5495 8.38701 13.8587 8.82211C13.8074 9.06406 13.7293 9.31886 13.7047 9.5793C13.6189 10.4048 13.8623 11.1476 14.3363 11.8154C14.9248 12.644 15.6683 13.2774 16.6635 13.5687C17.2181 13.731 17.7696 13.7033 18.3581 13.4834C18.3237 13.6016 18.3036 13.6827 18.2769 13.7613C17.847 15.0324 17.6317 16.3662 17.6397 17.7081C17.651 18.9872 18.622 20.0382 19.9073 20.2252C21.1325 20.4019 22.349 19.636 22.7316 18.438C22.7994 18.2253 22.8343 18.0014 22.8882 17.7563C22.9396 17.801 22.9909 17.8457 23.0423 17.8945C24.1932 19.0445 25.343 20.1957 26.4915 21.3481C26.7786 21.6384 27.0749 21.9014 27.4846 21.9979H27.8954C28.0161 21.9533 28.1409 21.9178 28.2549 21.8634C28.6698 21.6681 28.8814 21.3137 29 20.8904V20.4795C28.9024 20.0608 28.6287 19.7634 28.335 19.4706C26.3594 17.5017 24.387 15.5298 22.4179 13.5548C21.9999 13.1372 21.853 13.1361 21.4376 13.5548C21.3847 13.6194 21.3354 13.6868 21.2897 13.7567C21.2193 13.6462 21.187 13.5661 21.13 13.5096C17.0562 9.43427 12.9823 5.35893 8.90849 1.2836C8.73133 1.10637 8.55674 0.916303 8.27174 1.03908C7.98675 1.16185 8.0001 1.41562 8.0001 1.66784C8.0001 7.96441 8.0001 14.2608 8.0001 20.557C8.0001 21.1503 8.2245 21.6029 8.76625 21.8731C8.87813 21.9218 8.99265 21.9642 9.10928 22L9.51752 21.9964ZM14.9679 8.66081L18.66 12.3538C17.9519 12.8675 17.1775 12.9548 16.3795 12.5171C15.712 12.1514 15.1825 11.6346 14.839 10.9493C14.4364 10.1536 14.441 9.3769 14.9679 8.66081ZM9.00093 2.70962L14.2248 7.93393C14.0502 7.92468 13.8597 7.93393 13.6769 7.90208C12.9067 7.76389 12.2391 7.39865 11.6152 6.94711C10.6087 6.22075 9.94373 5.23239 9.479 4.10226C9.29208 3.64763 9.15703 3.16938 9.00093 2.70962ZM18.943 17.6135C18.9456 17.2684 19.0836 16.9381 19.3273 16.6937C19.5709 16.4493 19.9007 16.3103 20.2457 16.3067C20.9595 16.3021 21.569 16.9134 21.5613 17.6264C21.5597 17.7991 21.524 17.9697 21.4564 18.1286C21.3887 18.2875 21.2903 18.4314 21.1669 18.5521C21.0434 18.6729 20.8974 18.7681 20.7371 18.8322C20.5769 18.8964 20.4055 18.9283 20.2329 18.926C20.062 18.9246 19.8931 18.8895 19.7358 18.8228C19.5785 18.7561 19.4359 18.659 19.3161 18.5371C19.1963 18.4152 19.1017 18.2709 19.0377 18.1125C18.9736 17.954 18.9415 17.7845 18.943 17.6135ZM18.7314 15.4899C18.9003 14.6351 19.1175 13.8579 19.4729 13.1438L20.654 14.3305C20.4999 14.518 20.2247 14.6551 20.256 14.9942C19.71 15.0051 19.1795 15.1776 18.7314 15.4899Z" fill="white"/>
</svg>
