<svg width="28" height="22" viewBox="0 0 28 22" fill="none" xmlns="http://www.w3.org/2000/svg">
<path d="M14.1398 6.45963C15.0212 6.45823 15.8832 6.71853 16.6166 7.20755C17.3499 7.69656 17.9216 8.39226 18.2591 9.2065C18.5966 10.0207 18.6849 10.9168 18.5126 11.7813C18.3403 12.6457 17.9153 13.4395 17.2914 14.0621C16.6675 14.6848 15.8728 15.1082 15.008 15.2787C14.1432 15.4492 13.2473 15.3591 12.4338 15.0199C11.6202 14.6807 10.9257 14.1076 10.4382 13.3733C9.95067 12.639 9.69214 11.7764 9.69534 10.895C9.70567 9.7203 10.1775 8.59676 11.0091 7.76694C11.8406 6.93711 12.9651 6.46755 14.1398 6.45963Z" fill="white"/>
<path d="M27.9306 11.1297C27.8975 14.6815 26.8592 18.1514 24.9359 21.1376C24.5079 21.8104 23.7906 22.0077 23.1866 21.6202C22.5826 21.2327 22.4612 20.5184 22.8831 19.8608C24.683 17.028 25.5672 13.9301 25.5024 10.5753C25.4438 7.51988 24.5858 4.69516 22.9802 2.091C22.7856 1.7744 22.6775 1.41229 22.6666 1.04083C22.6666 0.534974 23.0956 0.139392 23.5944 0.0291148C24.0931 -0.0811625 24.5879 0.130292 24.8914 0.603776C25.7422 1.91487 26.4254 3.32745 26.9249 4.80848C27.5967 6.79549 27.9245 8.84017 27.9306 11.1297Z" fill="white"/>
<path d="M6.09205e-05 10.8282C0.00931975 7.21013 1.05906 3.67107 3.02409 0.633116C3.37718 0.0827414 3.92856 -0.123647 4.48602 0.0726265C4.75376 0.159211 4.98109 0.33981 5.12597 0.581036C5.27085 0.822261 5.32349 1.10779 5.27415 1.38482C5.22573 1.61785 5.13225 1.83918 4.99896 2.03637C3.64709 4.16076 2.80337 6.56831 2.5334 9.07185C2.12871 12.8638 2.92056 16.3879 4.90892 19.6443C5.05764 19.8881 5.21243 20.1502 5.2701 20.4223C5.32179 20.6973 5.27259 20.9816 5.13153 21.2232C4.99048 21.4648 4.76704 21.6474 4.50221 21.7376C3.96094 21.9399 3.38932 21.7446 3.05545 21.2317C2.21295 19.9429 1.5333 18.5547 1.03201 17.0988C0.343423 15.0801 -0.00530179 12.9611 6.09205e-05 10.8282Z" fill="white"/>
<path d="M4.84717 10.7584C4.87246 8.82601 5.40968 7.0555 6.5165 5.46508C6.95964 4.82669 7.67795 4.66481 8.25564 5.0604C8.83333 5.45598 8.93855 6.17328 8.51869 6.83292C6.83249 9.46339 6.83486 12.0905 8.52577 14.7142C8.9426 15.3647 8.82929 16.0972 8.24451 16.4817C7.65974 16.8661 6.95255 16.6952 6.50436 16.0537C5.42838 14.4972 4.85049 12.6506 4.84717 10.7584Z" fill="white"/>
<path d="M23.3283 10.8262C23.327 12.6935 22.7532 14.5155 21.6842 16.0467C21.232 16.7073 20.5046 16.8753 19.9167 16.4665C19.3451 16.0689 19.25 15.3536 19.6719 14.693C21.3386 12.0767 21.3386 9.45936 19.6719 6.84103C19.251 6.18139 19.3451 5.4661 19.9188 5.06951C20.5137 4.65875 21.2279 4.82265 21.6842 5.48634C22.773 7.0526 23.3476 8.91878 23.3283 10.8262Z" fill="white"/>
</svg>
