<svg width="24" height="20" viewBox="0 0 24 20" fill="none" xmlns="http://www.w3.org/2000/svg">
<path d="M10.9858 0.964995L10.1423 0.170293C9.90125 -0.0567644 9.53975 -0.0567644 9.29874 0.170293L3.99665 5.16556L1.86778 3.15989C1.62678 2.93283 1.26527 2.93283 1.02427 3.15989L0.180753 3.95459C-0.0602511 4.18165 -0.0602511 4.52223 0.180753 4.74929L3.15314 7.54967C3.39414 7.77673 3.71548 7.89025 3.99665 7.89025C4.31799 7.89025 4.59916 7.77673 4.84017 7.54967L10.9858 1.7597C11.1866 1.57048 11.1866 1.19205 10.9858 0.964995ZM23.1967 6.37654H12.7531C12.3113 6.37654 11.9498 6.03595 11.9498 5.61968V4.10596C11.9498 3.68969 12.3113 3.3491 12.7531 3.3491H23.1967C23.6385 3.3491 24 3.68969 24 4.10596V5.61968C24 6.03595 23.6385 6.37654 23.1967 6.37654ZM23.1967 13.1883H10.3431C9.90125 13.1883 9.53975 12.8477 9.53975 12.4314V10.9177C9.53975 10.5014 9.90125 10.1608 10.3431 10.1608H23.1967C23.6385 10.1608 24 10.5014 24 10.9177V12.4314C24 12.8477 23.6385 13.1883 23.1967 13.1883ZM5.52301 13.1883H3.91632C3.47448 13.1883 3.11297 12.8477 3.11297 12.4314V10.9177C3.11297 10.5014 3.47448 10.1608 3.91632 10.1608H5.52301C5.96485 10.1608 6.32636 10.5014 6.32636 10.9177V12.4314C6.32636 12.8477 5.96485 13.1883 5.52301 13.1883ZM5.52301 20H3.91632C3.47448 20 3.11297 19.6594 3.11297 19.2431V17.7294C3.11297 17.3131 3.47448 16.9726 3.91632 16.9726H5.52301C5.96485 16.9726 6.32636 17.3131 6.32636 17.7294V19.2431C6.32636 19.6594 5.96485 20 5.52301 20ZM23.1967 20H10.3431C9.90125 20 9.53975 19.6594 9.53975 19.2431V17.7294C9.53975 17.3131 9.90125 16.9726 10.3431 16.9726H23.1967C23.6385 16.9726 24 17.3131 24 17.7294V19.2431C24 19.6594 23.6385 20 23.1967 20Z" fill="white"/>
</svg>
