<svg width="297" height="271" viewBox="0 0 297 271" fill="none" xmlns="http://www.w3.org/2000/svg">
<g clip-path="url(#clip0_135_2613)">
<path d="M224.074 160.232C223.326 161.236 219.4 162.819 217.997 161C216.595 159.181 216.221 159.085 214.165 159.038C212.108 158.991 207.808 158.193 207.06 157.565C206.312 156.937 204.841 159.246 203.707 159.915C202.573 160.584 197.704 163.011 195.282 159.648C192.86 156.285 194.165 154.043 194.165 154.043C194.165 154.043 190.706 152.829 189.958 150.774C189.21 148.718 188.957 145.916 189.223 145.028C189.49 144.141 187.99 143.954 185.934 143.3C183.877 142.646 180.231 140.498 180.512 136.201C180.792 131.903 187.242 129.008 193.319 128.867C199.395 128.727 208.93 130.315 214.165 134.332C219.4 138.349 221.269 141.152 221.269 141.152C221.269 141.152 226.411 139.19 228.093 144.234C228.093 144.234 227.653 150.96 227.079 152.735C226.505 154.51 224.074 160.232 224.074 160.232Z" fill="white"/>
<path d="M153.963 113.501C153.963 113.501 149.886 117.465 150.709 120.667C151.532 123.87 155.646 125.831 159.572 125.831C163.498 125.831 161.15 127.766 161.67 129.368C162.189 130.97 165.461 133.492 167.611 133.211C169.761 132.931 170.883 132.545 170.883 132.545C170.883 132.545 172.879 128.126 174.872 127.866C176.865 127.606 179.951 128.447 179.951 128.447L182.903 123.972C182.903 123.972 184.251 124.71 185.092 125.364C185.933 126.018 188.738 129.008 188.738 129.008L196.59 128.859C196.59 128.859 196.777 124.71 195.842 123.496C194.908 122.282 194.44 121.254 193.318 121.161C192.197 121.067 190.514 121.067 190.514 121.067C190.514 121.067 189.018 116.023 187.616 114.808C186.214 113.594 181.54 110.978 177.333 110.511C173.127 110.044 171.818 107.615 171.163 106.214C170.509 104.813 167.985 101.076 166.302 100.889C164.62 100.703 162.002 101.917 162.002 101.917L176.024 116.957C176.024 116.957 173.931 118.68 172.547 119.219C171.163 119.759 168.64 120.974 168.64 120.974C168.64 120.974 167.144 115.556 164.994 115.275C162.844 114.995 158.483 115.07 157.531 115.406C156.58 115.743 153.963 113.501 153.963 113.501Z" fill="white"/>
<path d="M193.859 98.1392C194.253 100.049 199.114 111.165 210.239 115.182C221.363 119.199 231.926 117.144 236.507 115.182C241.087 113.22 242.863 113.501 242.863 113.501L247.163 114.622C247.163 114.622 253.146 110.138 256.699 109.764C260.251 109.39 266.047 109.203 267.636 106.775C269.225 104.346 278.573 88.0913 259.97 87.6243C241.368 87.1572 246.696 98.9276 246.696 98.9276C246.696 98.9276 241.742 105.186 236.226 107.709C230.711 110.231 221.643 112.473 212.202 110.418C202.76 108.363 197.145 98.8977 197.145 98.8977L193.859 98.1392Z" fill="#DAE0DE"/>
<path d="M246.696 98.9276C246.696 98.9276 240.059 102.104 231.272 101.917C222.484 101.73 198.74 100.049 190.608 97.2461C182.475 94.4436 182.288 92.5753 182.475 91.5477C182.662 90.5202 183.69 88.465 183.69 87.2506C183.69 86.0362 181.072 72.6777 184.999 60.4402C188.925 48.2027 196.871 39.3282 200.984 36.2454C205.097 33.1627 216.128 25.2223 228.841 25.3158C241.555 25.4092 256.792 28.5853 265.018 37.6467C273.245 46.708 285.771 59.2258 283.434 81.6456C281.097 104.065 273.151 111.352 273.151 111.352L264.925 108.269C264.925 108.269 269.692 103.785 270.066 98.2737C270.425 92.9873 267.519 90.139 262.401 89.3992C255.296 88.3716 246.696 98.9276 246.696 98.9276Z" fill="#ADBEC3"/>
<path d="M251.464 87.344C251.464 87.344 254.175 80.151 250.248 77.1617C246.322 74.1724 243.892 74.6394 240.433 75.7604C236.974 76.8814 233.235 82.9535 233.515 84.8218C233.796 86.6901 234.544 92.1082 235.852 92.949C237.161 93.7897 238.189 95.0041 241.181 95.0041C244.172 95.0041 244.92 93.9766 244.92 93.9766C244.92 93.9766 245.481 91.2675 247.724 89.8663C249.968 88.465 251.464 87.344 251.464 87.344Z" fill="white"/>
<path d="M226.13 138.443L233.328 141.058L234.076 137.695C234.076 137.695 238.563 139.19 241.555 137.695C244.546 136.201 246.509 135.547 246.696 132.744C246.883 129.942 247.444 128.354 247.444 128.354C247.444 128.354 251.183 124.71 250.996 122.375C250.809 120.04 250.529 118.078 249.033 116.21C247.537 114.341 246.696 114.5 246.696 114.5C246.696 114.5 259.877 105.56 269.038 109.484C278.199 113.407 277.732 121.534 275.395 125.458C273.058 129.381 272.497 129.381 272.497 129.381C272.497 129.381 273.619 132.184 269.973 136.668C269.973 136.668 269.599 145.542 264.738 153.015C259.877 160.489 252.585 172.446 244.266 172.82C235.946 173.193 220.989 170.391 218.371 170.111C215.754 169.83 214.165 169.924 214.165 169.924C214.165 169.924 219.4 168.523 222.485 163.104C225.569 157.686 227.813 152.362 227.719 148.158C227.626 143.954 228.093 144.234 228.093 144.234L226.13 138.443Z" fill="#FFCE67"/>
<path d="M210.612 158.62C210.332 160.209 208.462 168.616 212.202 169.176C215.941 169.737 219.68 167.402 221.83 163.852C223.98 160.302 224.074 159.741 224.074 159.741C224.074 159.741 220.147 162.264 219.026 161.61C217.904 160.956 216.502 158.62 216.502 158.62C216.502 158.62 213.136 159.088 212.389 159.088C211.641 159.088 210.612 158.62 210.612 158.62Z" fill="#C17B00"/>
<path d="M217.997 137.322C217.997 137.322 219.68 135.64 222.111 136.387C224.541 137.135 225.85 137.508 226.598 139.377C227.054 140.523 227.405 141.707 227.647 142.916C227.647 142.916 225.943 141.152 224.541 140.871C223.139 140.591 221.269 141.152 221.269 141.152L217.997 137.322Z" fill="#C17B00"/>
<path d="M205.004 112.847C205.004 112.847 211.547 116.116 213.697 116.49C215.847 116.864 219.774 117.611 219.774 117.611C219.774 117.611 229.687 117.756 232.487 116.468C235.287 115.181 239.685 112.753 242.77 113.501C245.855 114.248 250.577 115.64 250.74 120.175C250.903 124.71 249.687 127.139 247.444 128.354C247.444 128.354 247.058 140.475 236.921 138.338C226.784 136.201 225.289 128.354 225.289 128.354C225.289 128.354 221.55 131.25 219.867 130.315C218.184 129.381 216.595 126.766 216.595 126.766C216.595 126.766 215.567 128.821 213.884 129.755C212.202 130.689 209.117 131.436 209.117 131.436C209.117 131.436 204.162 129.568 202.293 129.381C200.423 129.194 199.395 129.101 199.395 129.101C199.395 129.101 198.273 120.6 199.769 117.611C201.264 114.622 205.004 112.847 205.004 112.847Z" fill="#FF85A2"/>
<path d="M192.01 136.761C192.01 136.761 193.412 138.536 193.412 142.273C193.412 146.009 192.758 149.092 195.936 150.587C195.936 150.587 195.936 154.604 197.151 156.846C198.366 159.088 199.862 159.461 201.077 159.088C202.293 158.714 200.33 156.659 201.919 155.164C203.508 153.669 204.63 153.483 208.649 155.631C212.669 157.78 217.623 157.313 221.269 154.043L219.493 156.659C219.493 156.659 224.261 158.247 226.504 153.296L224.499 159.316C224.499 159.316 222.039 162.444 219.644 161.745C217.249 161.046 216.221 158.62 216.221 158.62C216.221 158.62 213.23 159.274 209.21 158.153C205.191 157.032 205.845 158.34 205.845 158.34C205.845 158.34 201.919 161.797 199.021 161.516C196.123 161.236 193.879 158.247 193.879 156.378C193.879 154.51 193.879 153.856 192.758 153.296C191.636 152.735 188.084 148.812 189.112 146.196C190.14 143.58 187.523 143.861 187.523 143.861C187.523 143.861 181.633 141.152 183.596 138.629C185.56 136.107 189.953 139.937 189.953 139.937L191.636 139.657L192.01 136.761Z" fill="#E1E1E1"/>
<path d="M154.711 114.061L156.487 115.649C156.487 115.649 154.337 116.583 153.963 118.358C153.589 120.133 161.255 117.611 164.433 120.04C167.611 122.468 164.994 124.617 164.994 124.617L163.124 125.271C163.124 125.271 165.461 129.101 169.107 128.073C172.753 127.046 179.203 119.666 181.727 126.392L180.231 128.26L175.464 127.606C175.464 127.606 173.22 128.447 172.379 129.848C171.537 131.25 170.883 133.398 167.798 133.211C164.713 133.024 161.348 130.409 161.628 128.447C161.909 126.485 160.507 125.551 160.507 125.551C160.507 125.551 155.833 126.112 153.963 124.617C152.093 123.122 149.943 120.88 150.411 118.545C150.878 116.21 154.15 113.501 154.15 113.501L154.711 114.061Z" fill="#E1E1E1"/>
<path d="M190.888 123.403C190.888 123.403 193.132 126.766 195.842 127.139L196.123 128.727L190.514 129.008L190.888 123.403Z" fill="#E1E1E1"/>
<path d="M235.759 34.0968C233.702 33.5363 231.178 32.9758 231.926 31.9483C232.674 30.9207 235.011 30.3602 237.535 30.6404C240.059 30.9207 243.798 32.0417 243.892 33.0693C243.985 34.0968 239.405 34.1902 238.376 34.2837C237.348 34.3771 235.759 34.0968 235.759 34.0968Z" fill="#3B3B3B"/>
<path d="M231.365 32.4154C231.365 32.4154 229.963 31.2944 230.056 30.547C230.15 29.7997 233.141 28.3985 236.039 28.6787C238.937 28.959 244.453 29.7063 244.826 31.5746C245.2 33.4429 243.892 33.0693 243.892 33.0693C243.892 33.0693 242.022 31.2944 240.059 31.0141C238.096 30.7339 236.14 30.3378 234.824 30.7227C233.508 31.1075 231.365 32.4154 231.365 32.4154Z" fill="#4F686E"/>
<path d="M188.738 129.008L183.223 123.496C183.223 123.496 180.792 126.952 180.512 127.606C180.231 128.26 182.288 128.26 182.475 128.727C182.662 129.194 183.783 131.436 183.783 131.436L188.738 129.008Z" fill="#C87D13"/>
<path d="M158.45 97.9935L176.398 116.957C176.398 116.957 173.688 118.452 172.94 119.012C172.192 119.573 169.013 121.347 168.827 120.974C168.64 120.6 169.107 117.05 165.742 115.929C162.376 114.808 160.507 114.154 158.918 114.808C157.328 115.462 156.861 115.649 156.861 115.649L148.354 107.802C148.354 107.802 152.935 107.242 154.804 105.373C156.674 103.505 158.17 101.356 158.263 99.8618C158.357 98.3671 158.45 97.9935 158.45 97.9935Z" fill="#C87D13"/>
<path d="M147.419 101.356C147.419 101.356 146.111 105 147.139 106.307C148.167 107.615 150.266 107.869 152.115 106.902C153.964 105.934 157.048 103.505 157.609 101.543C158.17 99.5815 158.731 96.8725 157.328 96.4054C155.926 95.9383 154.804 95.4712 153.215 96.0317C151.626 96.5922 150.317 97.9935 150.317 97.9935L153.963 101.263L152.935 103.131L150.691 103.879L147.419 101.356Z" fill="#E4B071"/>
<path d="M152.654 106.775L161.628 114.435C161.628 114.435 158.357 115.089 157.796 115.275C157.235 115.462 156.02 114.808 156.02 114.808L148.541 107.802C148.541 107.802 151.252 107.522 151.626 107.242C152 106.961 152.654 106.775 152.654 106.775Z" fill="#A16104"/>
<path d="M167.611 117.517C167.611 117.517 170.229 114.995 173.594 118.171L171.444 120.04L168.826 120.974L167.611 117.517Z" fill="#A16104"/>
<path d="M156.581 103.318C156.581 103.318 166.116 112.473 166.676 113.033C167.237 113.594 168.079 114.341 168.827 113.781C169.574 113.22 168.92 112.286 168.359 111.726C167.798 111.165 157.796 101.356 157.796 101.356L156.581 103.318Z" fill="#E4B071"/>
<path d="M222.111 163.572C222.111 163.572 236.226 168.616 243.985 168.056C251.744 167.495 261.186 154.604 263.429 149.279C265.673 143.954 267.075 140.404 267.355 139.657C267.636 138.91 267.729 137.882 267.355 137.508C266.981 137.135 263.523 134.426 266.234 133.024L267.636 134.145C267.636 134.145 269.786 133.305 269.973 131.063C270.16 128.821 269.692 127.326 271.469 126.579C273.245 125.831 275.956 123.122 276.423 121.161C276.423 121.161 275.956 124.524 275.208 125.738C274.46 126.952 272.871 129.475 272.871 129.475L272.59 132.371L269.692 136.761C269.692 136.761 270.066 139.19 269.505 141.152C268.945 143.113 266.234 150.493 266.234 150.493C266.234 150.493 266.608 157.126 266.981 159.461C267.355 161.797 267.636 162.451 267.636 162.451L257.727 163.572C257.727 163.572 251.09 172.072 245.107 172.633C239.124 173.193 215.286 169.55 215.286 169.55C215.286 169.55 218.745 167.869 220.521 165.44C222.298 163.011 222.111 163.572 222.111 163.572Z" fill="#E8B341"/>
<path d="M250.903 121.161C250.903 121.161 254.829 121.067 252.772 129.381C250.716 137.695 248.659 140.311 248.659 140.311C248.659 140.311 247.257 141.245 246.696 142.179C246.135 143.113 234.076 141.338 234.076 141.338C234.076 141.338 227.065 138.256 225.85 137.695C224.635 137.135 221.456 135.64 220.148 136.201C219.415 136.519 218.666 136.8 217.904 137.041L209.584 131.81C209.584 131.81 213.206 130.716 213.592 129.908C213.978 129.1 216.353 127.193 216.353 127.193C216.353 127.193 217.788 130.48 220.136 130.351C222.485 130.222 225.289 128.354 225.289 128.354C225.289 128.354 227.167 134.136 231.043 136.196C234.918 138.256 240.62 139.657 243.424 136.948C246.229 134.239 246.416 132.838 246.696 130.129C246.977 127.42 248.659 127.42 248.659 127.42C248.659 127.42 250.529 125.271 250.716 123.963C250.835 123.034 250.897 122.098 250.903 121.161Z" fill="#E8B341"/>
<path d="M196.59 161.143L195.936 164.319C195.936 164.319 201.451 165.814 204.069 166.187C206.686 166.561 210.152 166.935 210.152 166.935C210.152 166.935 209.88 162.637 210.152 161.143C210.425 159.648 210.592 159.08 210.592 159.08L206.686 157.406C206.686 157.406 204.829 159.928 202.579 160.582C200.329 161.236 196.59 161.143 196.59 161.143Z" fill="#E8B341"/>
<path d="M188.925 149.559C188.925 149.559 184.438 146.196 184.251 145.355C184.064 144.515 184.625 143.3 184.625 143.3L189.486 144.141C189.486 144.141 188.644 146.757 188.738 147.504C188.831 148.251 188.925 149.559 188.925 149.559Z" fill="#C87D13"/>
<path d="M194.814 122.749C194.814 122.749 198.473 119.269 199.355 118.814C199.355 118.814 198.74 122.468 198.834 123.683C198.927 124.897 199.722 129.131 199.722 129.131L196.123 128.727C196.123 128.727 196.497 127.887 196.123 125.738C195.749 123.589 194.814 122.749 194.814 122.749Z" fill="#FFCE67"/>
<path d="M195.282 98.3671C195.282 98.3671 197.712 110.324 215.847 112.847C231.843 115.071 240.672 108.44 246.509 102.197C247.29 101.362 251.277 103.318 251.37 101.45C251.411 100.636 250.047 100.948 248.94 100.609C247.504 100.169 246.229 99.2079 246.229 99.2079C246.229 99.2079 243.611 102.571 242.209 103.505C240.807 104.439 231.646 111.539 222.484 111.352C213.323 111.165 204.536 108.643 201.638 104.626C198.74 100.609 197.712 98.9276 197.712 98.9276L195.282 98.3671Z" fill="#C8CAC9"/>
<path d="M243.518 111.352C243.518 111.352 247.095 111.498 248.671 113.293L246.789 114.622L240.62 113.314L243.518 111.352Z" fill="#C8CAC9"/>
<path d="M193.273 59.6471C192.98 59.6472 192.692 59.5788 192.43 59.4472C192.169 59.3157 191.942 59.1247 191.768 58.8896C191.594 58.6545 191.478 58.3819 191.429 58.0938C191.379 57.8056 191.398 57.5099 191.484 57.2304C193.412 50.9435 199.934 39.6056 210 34.137C210.435 33.9093 210.942 33.8617 211.412 34.0044C211.881 34.1471 212.276 34.4687 212.511 34.8997C212.745 35.3307 212.8 35.8366 212.665 36.3081C212.529 36.7796 212.213 37.1788 211.786 37.4196C202.768 42.3193 196.741 52.8426 195.059 58.3252C194.942 58.7076 194.705 59.0423 194.384 59.2803C194.062 59.5182 193.673 59.6468 193.273 59.6471Z" fill="#E7EAEA"/>
<path d="M204.349 112.566C204.349 112.566 204.069 113.14 202.667 114.341C200.703 116.023 211.547 116.49 217.623 121.628C217.623 121.628 220.989 118.919 227.532 120.04C227.532 120.04 234.45 117.237 239.498 117.517C244.546 117.798 244.646 113.968 244.646 113.968L240.62 113.501C240.62 113.501 232.674 116.583 230.43 116.863C228.187 117.144 221.594 117.767 219.149 117.313C212.202 116.023 204.349 112.566 204.349 112.566Z" fill="#F47891"/>
<path d="M217.25 123.403C217.25 123.403 218.465 128.26 224.915 125.738L225.351 128.533C225.351 128.533 221.737 131.623 219.587 130.035C217.437 128.447 216.595 127.139 216.782 125.925C216.969 124.71 217.25 123.403 217.25 123.403Z" fill="#F47891"/>
<path d="M242.396 137.135V131.25C242.396 131.25 245.387 129.755 246.229 124.337L246.883 125.178C246.883 125.178 250.724 122.62 250.248 118.34C250.248 118.34 251.838 121.55 250.903 123.598C249.968 125.646 247.415 128.152 247.415 128.152C247.415 128.152 247.631 131.17 245.855 133.873C244.079 136.575 242.396 137.135 242.396 137.135Z" fill="#F47891"/>
<path d="M200.049 129.008C200.049 129.008 197.806 124.804 199.675 123.122C201.545 121.441 205.377 120.974 209.584 122.375C213.791 123.776 216.128 126.952 216.128 126.952C216.128 126.952 214.352 129.568 212.856 130.315C211.36 131.063 207.995 131.436 207.995 131.436C207.995 131.436 204.536 129.755 203.508 129.755C202.48 129.755 200.049 129.008 200.049 129.008Z" fill="#F04E72"/>
<path d="M225.382 126.579C225.382 126.579 230.243 122.749 236.881 125.925C243.518 129.101 242.396 137.695 242.396 137.695C242.396 137.695 235.327 139.922 231.476 136.473C227.626 133.024 225.663 131.063 225.382 126.579Z" fill="#F04E72"/>
<path d="M242.489 126.018C242.311 126.018 242.137 125.968 241.987 125.872C241.837 125.777 241.717 125.64 241.642 125.479C240.4 122.822 238.151 122.015 236.483 121.807C236.242 121.771 236.024 121.642 235.877 121.448C235.729 121.254 235.663 121.009 235.694 120.767C235.724 120.525 235.848 120.305 236.039 120.153C236.229 120.001 236.472 119.929 236.715 119.954C238.851 120.22 241.733 121.262 243.335 124.689C243.402 124.831 243.431 124.987 243.421 125.144C243.411 125.3 243.362 125.451 243.278 125.583C243.195 125.716 243.079 125.825 242.942 125.901C242.805 125.977 242.651 126.017 242.494 126.018H242.489Z" fill="#FFD2DC"/>
<path d="M213.417 133.959C213.417 133.959 215.66 132.09 217.623 131.81C219.587 131.53 221.363 132.744 223.232 132.371C225.102 131.997 227.626 137.508 230.15 138.443C232.674 139.377 234.357 140.031 236.413 140.124C238.47 140.218 241.54 139.564 243.65 137.135C243.65 137.135 238.457 139.53 233.696 137.492C228.935 135.453 225.569 130.129 225.569 130.129L225.382 128.54C225.382 128.54 223.606 130.315 221.737 130.315C219.867 130.315 216.595 126.766 216.595 126.766C216.595 126.766 214.516 129.834 213.125 130.215C211.734 130.597 209.117 131.81 209.117 131.81L213.417 133.959Z" fill="#DD9300"/>
<path d="M176.866 151.988L172.192 151.801C172.192 151.801 168.266 148.625 169.107 141.992C169.948 135.36 170.509 129.755 173.594 128.447C176.679 127.139 179.39 128.447 179.39 128.447C179.39 128.447 176.772 129.662 175.464 133.211C174.155 136.761 172.846 142.833 173.594 145.636C174.342 148.438 176.866 151.988 176.866 151.988Z" fill="#E1E1E1"/>
<path d="M183.783 131.436C183.783 131.436 183.69 129.568 182.381 129.008C181.072 128.447 177.894 127.831 176.398 131.315C174.903 134.799 171.631 147.784 175.277 150.774C178.922 153.763 181.727 150.774 181.727 150.774C181.727 150.774 184.276 146.682 184.403 145.645C184.53 144.608 184.625 142.927 184.625 142.927C184.625 142.927 179.857 140.591 180.512 136.201C181.166 131.81 183.783 131.436 183.783 131.436Z" fill="#3BC1F7"/>
<path d="M83.8524 158.901C83.8524 158.901 80.4871 159.274 79.9262 157.126C79.3653 154.977 77.5892 141.152 91.1439 128.447C91.1439 128.447 98.3419 123.87 109.653 127.887C120.964 131.903 133.678 137.415 150.598 146.943C167.518 156.472 192.701 164.455 200.301 165.555C207.901 166.654 210.332 166.935 210.332 166.935C210.332 166.935 210.519 168.99 213.136 169.55C215.754 170.111 226.691 170.765 231.272 171.605C235.852 172.446 244.546 173.813 248.051 171.915C251.555 170.016 257.679 163.295 257.679 163.295L268.194 162.454C268.194 162.454 266.511 158.624 266.231 156.289C265.95 153.953 266.943 148.543 266.943 148.543L268.194 146.245C268.194 146.245 286.986 145.262 291.941 147.411C296.895 149.559 296.615 154.79 296.428 156.659C296.241 158.527 296.428 163.945 292.595 165.627C288.762 167.308 280.723 176.183 271.282 178.051C261.84 179.919 242.209 187.486 222.858 184.59C222.858 184.59 203.414 182.815 191.636 179.733C179.857 176.65 154.991 170.391 139.66 161.797C124.33 153.202 107.877 143.861 103.67 141.806C99.4637 139.75 94.4157 138.723 88.246 145.075C82.0762 151.427 82.7306 153.389 82.7306 153.389L83.8524 158.901Z" fill="#C97760"/>
<path d="M103.577 179.172C103.577 179.172 99.4636 167.402 97.3136 155.725C95.1635 144.048 95.3505 140.53 95.3505 140.53C95.3505 140.53 99.9123 136.955 118.664 150.31C137.415 163.665 174.061 175.902 190.607 179.919C207.154 183.936 233.048 184.865 245.855 184.03C258.662 183.195 276.61 176.183 281.19 173.567C285.771 170.951 289.978 168.242 289.978 168.242C289.978 168.242 284.556 181.881 280.349 186.458C276.143 191.036 274.086 195.146 274.086 195.146L269.973 198.696C269.973 198.696 256.418 204.955 251.183 205.515C245.948 206.076 227.439 211.961 216.128 211.307C204.817 210.653 197.712 213.456 183.223 210.653L164.994 206.823L143.493 197.949C143.493 197.949 125.451 185.057 119.842 182.535C114.234 180.013 108.344 178.705 106.288 178.518C104.231 178.331 103.577 179.172 103.577 179.172Z" fill="#EAB6A9"/>
<path d="M103.577 179.172C103.577 179.172 100.492 181.227 99.4637 183.095C98.4354 184.964 96.7527 190.849 96.7527 190.849C96.7527 190.849 90.396 179.265 88.9003 175.435C87.4046 171.605 83.8524 159.088 83.8524 159.088L82.9175 153.296C82.9175 153.296 85.535 146.469 89.2742 143.904C93.0135 141.338 95.3505 141.107 95.3505 141.107C95.3505 141.107 95.788 148.037 98.2802 159.681C100.772 171.324 103.577 179.172 103.577 179.172Z" fill="#D19888"/>
<path d="M134.799 219.061C134.799 219.061 123.208 211.587 116.945 203.647C110.681 195.707 103.577 179.172 103.577 179.172C103.577 179.172 110.775 177.023 119.843 182.628C128.91 188.233 146.858 201.125 158.824 204.768C170.79 208.411 184.438 213.312 214.165 211.422C243.892 209.532 262.189 202.037 262.189 202.037L270.627 198.883L262.307 206.356L249.033 214.577L232.58 220.275L215.287 224.292L195.936 226.627L171.257 225.787L147.793 221.957L134.799 219.061Z" fill="#4A0300"/>
<path d="M130.967 217.473C130.967 217.473 117.786 212.054 111.803 206.73C105.82 201.405 96.7527 190.289 96.7527 190.289C96.7527 190.289 98.9962 182.722 101.52 180.48C104.044 178.238 103.835 179.919 103.835 179.919C103.835 179.919 108.999 193.184 114.234 200.284C119.469 207.384 130.967 217.473 130.967 217.473Z" fill="#2A0503"/>
<path d="M169.294 155.74C169.294 155.74 180.138 155.631 184.251 155.164C188.364 154.697 192.664 153.296 192.664 153.296L193.919 154.518C193.919 154.518 193.038 157.032 194.814 159.088C196.59 161.143 196.462 161.848 196.462 161.848L195.458 164.533L179.39 159.724L169.294 155.74Z" fill="#A96350"/>
<path d="M267.341 148.383C267.341 148.383 273.899 147.691 278.666 147.971C283.434 148.251 288.949 148.158 290.539 149.372C292.128 150.587 292.408 153.389 290.912 154.51C289.417 155.631 285.304 159.368 281.564 160.022C277.825 160.676 268.197 162.451 268.197 162.451L266.607 159.835L265.963 150.837L267.341 148.383Z" fill="#A96350"/>
<path d="M79.9262 157.126C79.9262 157.126 79.5522 145.916 91.5178 139.564C103.483 133.211 118.066 147.597 126.012 152.081C133.958 156.565 159.665 170.204 182.288 175.996C204.91 181.788 214.165 183.396 214.165 183.396L202.557 182.124L179.088 176.946L160.711 170.75L127.321 155.74L109.717 145.028C109.717 145.028 103.764 140.778 97.8745 140.685C91.9852 140.591 86.5138 146.705 86.5138 146.705L82.1697 154.417L83.2036 154.941L83.8524 159.088C83.8524 159.088 82.2632 159.741 81.3284 158.901C80.7642 158.392 80.2901 157.792 79.9262 157.126Z" fill="#A96350"/>
<path d="M116.197 139.377C115.757 139.377 115.331 139.222 114.995 138.939C106.886 132.125 100.186 132.518 97.981 132.648C97.7359 132.662 97.4903 132.628 97.2583 132.548C97.0263 132.467 96.8125 132.342 96.629 132.179C96.4455 132.016 96.2959 131.818 96.1888 131.597C96.0817 131.377 96.0192 131.137 96.0048 130.892C95.9905 130.647 96.0246 130.401 96.1051 130.17C96.1856 129.938 96.3111 129.724 96.4743 129.541C96.6375 129.357 96.8352 129.208 97.0562 129.101C97.2772 128.994 97.5171 128.931 97.7623 128.917C100.406 128.739 103.061 128.996 105.621 129.678C109.662 130.754 113.624 132.909 117.4 136.078C117.693 136.325 117.904 136.656 118.003 137.026C118.102 137.396 118.085 137.788 117.953 138.148C117.822 138.508 117.583 138.819 117.269 139.039C116.955 139.259 116.58 139.377 116.197 139.377Z" fill="#E9BEB4"/>
<path d="M276.423 169.27C275.969 169.27 275.531 169.105 275.191 168.806C274.85 168.507 274.629 168.094 274.57 167.645C274.511 167.195 274.618 166.74 274.87 166.363C275.122 165.986 275.503 165.714 275.941 165.597C281.201 164.189 285.951 161.902 290.465 158.606C290.865 158.314 291.365 158.193 291.855 158.269C292.345 158.345 292.785 158.613 293.078 159.013C293.37 159.413 293.492 159.913 293.415 160.402C293.339 160.892 293.071 161.331 292.671 161.624C287.778 165.196 282.623 167.676 276.907 169.206C276.749 169.248 276.586 169.27 276.423 169.27Z" fill="#E9BEB4"/>
<path d="M198.074 99.0948C198.074 99.0948 207.154 100.422 213.043 101.17C218.932 101.917 232.624 102.376 237.557 101.637C242.49 100.898 246.229 99.1145 246.229 99.1145C246.229 99.1145 240.62 105.747 238.516 106.446C236.411 107.145 228.389 112.308 219.22 111.222C210.052 110.137 204.572 107.815 202.451 105.567C200.33 103.318 198.074 99.0948 198.074 99.0948Z" fill="white"/>
<path d="M197.712 99.3947C197.712 99.3947 203.788 103.598 216.315 103.879C228.841 104.159 235.291 103.412 240.339 102.571C245.387 101.73 245.498 99.9552 245.498 99.9552C245.498 99.9552 235.712 102.769 219.75 101.407C203.788 100.045 197.712 99.3947 197.712 99.3947Z" fill="#E1E1E1"/>
<path d="M273.151 111.912C273.051 111.912 272.953 111.884 272.867 111.832C272.781 111.781 272.711 111.707 272.663 111.619C272.616 111.531 272.592 111.432 272.596 111.332C272.599 111.232 272.63 111.135 272.684 111.05C276.401 105.244 282.671 93.4348 282.878 79.5821C283.057 67.5716 282.046 56.3878 267.791 41.1115C254.067 26.4041 227.19 19.4455 205.968 33.259C192.19 42.2269 184.507 55.9441 183.132 74.0276C182.839 77.8847 183.294 81.1179 183.66 83.7167C183.998 86.1222 184.242 87.8606 183.745 89.0545C182.864 91.1685 182.491 92.9397 186.287 94.879C191.497 97.5395 201.52 99.476 216.928 100.798C235.163 102.363 243.607 100.248 245.72 98.7501C245.842 98.6642 245.992 98.63 246.139 98.655C246.286 98.6801 246.416 98.7623 246.503 98.8837C246.589 99.0051 246.623 99.1557 246.598 99.3023C246.573 99.449 246.49 99.5797 246.369 99.6656C243.588 101.634 234.184 103.402 216.829 101.915C201.057 100.561 191.188 98.6455 185.773 95.8767C183.704 94.8201 182.521 93.6468 182.156 92.2886C181.802 90.9723 182.254 89.7065 182.706 88.6229C183.085 87.713 182.847 86.0185 182.545 83.8727C182.171 81.2206 181.703 77.9202 182.01 73.9435C182.347 69.5137 183.143 62.77 186.163 55.3827C190.07 45.8243 196.527 38.0652 205.353 32.3192C210.374 29.0582 215.981 26.8025 221.863 25.6773C227.489 24.5843 233.31 24.4732 239.164 25.3485C244.809 26.1856 250.281 27.9271 255.371 30.506C260.482 33.1001 264.935 36.4108 268.608 40.3474C283.147 55.9282 284.179 67.3446 283.996 79.5989C283.907 85.5224 282.708 91.6879 280.43 97.9234C278.663 102.732 276.381 107.336 273.624 111.656C273.573 111.735 273.503 111.8 273.42 111.844C273.338 111.889 273.245 111.913 273.151 111.912Z" fill="black"/>
<path d="M251.326 101.817C250.759 101.817 250.193 101.747 249.643 101.607C247.593 101.08 245.945 99.5516 244.876 97.1966C244.07 95.4124 244.128 93.6468 245.047 91.9476C246.904 88.5173 251.669 86.4706 253.807 86.1361C253.954 86.1131 254.104 86.1494 254.225 86.237C254.345 86.3246 254.425 86.4563 254.448 86.6032C254.471 86.7501 254.435 86.9002 254.348 87.0204C254.26 87.1406 254.128 87.221 253.981 87.2441C251.977 87.557 247.607 89.5795 246.035 92.481C245.287 93.856 245.246 95.2834 245.901 96.7351C246.835 98.8024 248.187 100.076 249.92 100.521C251.897 101.029 254.017 100.334 255.241 99.4134C255.36 99.3242 255.51 99.2859 255.657 99.3069C255.804 99.3279 255.937 99.4065 256.026 99.5255C256.116 99.6444 256.154 99.7939 256.133 99.941C256.112 100.088 256.033 100.221 255.914 100.31C254.578 101.276 252.975 101.803 251.326 101.817Z" fill="black"/>
<path d="M240.961 95.5646C239.241 95.5646 237.61 95.0807 236.253 94.1232C232.047 91.1563 231.575 84.5649 235.202 79.4298C236.947 76.9599 239.372 75.1859 242.03 74.4349C244.732 73.6707 247.352 74.0491 249.409 75.4998C252.868 77.9389 253.89 82.9217 251.897 87.6177C251.831 87.7415 251.721 87.836 251.589 87.8826C251.457 87.9293 251.312 87.9248 251.183 87.8699C251.054 87.815 250.95 87.7138 250.892 87.5862C250.834 87.4586 250.826 87.3138 250.869 87.1806C252.655 82.9768 251.79 78.548 248.767 76.4153C246.99 75.1635 244.71 74.8431 242.341 75.5129C239.928 76.1958 237.72 77.8156 236.123 80.0763C232.852 84.706 233.203 90.5968 236.905 93.2078C239.014 94.6959 241.924 94.8481 244.689 93.616C244.825 93.5555 244.98 93.5517 245.119 93.6053C245.259 93.6589 245.371 93.7656 245.431 93.9018C245.492 94.0381 245.496 94.1928 245.442 94.3319C245.388 94.471 245.282 94.5831 245.145 94.6436C243.831 95.2408 242.405 95.5546 240.961 95.5646Z" fill="black"/>
<path d="M222.681 118.132C218.488 118.146 214.328 117.386 210.411 115.89C202.74 112.942 198.427 108.283 196.159 104.894C193.691 101.205 193.054 98.241 193.028 98.1168C193.002 97.9732 193.033 97.8253 193.115 97.7044C193.196 97.5834 193.322 97.4991 193.465 97.4692C193.608 97.4392 193.757 97.4662 193.88 97.5442C194.003 97.6222 194.091 97.7451 194.125 97.887C194.132 97.9159 194.759 100.802 197.123 104.317C199.3 107.556 203.443 112.011 210.813 114.844C218.992 117.987 226.747 117.133 231.813 115.863C237.713 114.383 243.259 111.434 246.285 108.166C246.386 108.057 246.526 107.993 246.675 107.987C246.824 107.982 246.968 108.035 247.077 108.137C247.187 108.238 247.251 108.378 247.257 108.526C247.262 108.675 247.209 108.82 247.107 108.929C243.894 112.398 238.279 115.397 232.086 116.949C229.011 117.726 225.852 118.123 222.681 118.132Z" fill="black"/>
<path d="M221.036 111.944C220.546 111.944 220.055 111.933 219.562 111.912C215.593 111.739 211.948 110.963 208.729 109.607C206.204 108.556 203.875 107.087 201.841 105.26C198.447 102.19 197.21 99.234 197.159 99.1098C197.102 98.9723 197.103 98.818 197.16 98.6808C197.217 98.5436 197.327 98.4348 197.464 98.3783C197.602 98.3218 197.756 98.3223 197.894 98.3796C198.031 98.4368 198.14 98.5463 198.196 98.6838C198.208 98.7128 199.412 101.568 202.638 104.469C205.613 107.145 210.972 110.415 219.611 110.792C228.295 111.172 234.952 107.98 239.008 105.236C243.402 102.263 245.757 99.1808 245.781 99.1499C245.825 99.0912 245.881 99.0417 245.944 99.0044C246.008 98.9671 246.078 98.9427 246.151 98.9326C246.224 98.9224 246.299 98.9268 246.37 98.9453C246.441 98.9638 246.508 98.9962 246.567 99.0406C246.626 99.085 246.675 99.1406 246.713 99.2041C246.75 99.2676 246.774 99.3379 246.785 99.4108C246.795 99.4838 246.79 99.558 246.772 99.6293C246.753 99.7006 246.721 99.7675 246.676 99.8263C246.576 99.958 244.184 103.088 239.637 106.165C237.014 107.948 234.154 109.355 231.141 110.346C227.878 111.409 224.467 111.949 221.036 111.944Z" fill="black"/>
<path d="M206.294 108.158C206.224 108.158 206.156 108.139 206.097 108.103C206.038 108.067 205.99 108.015 205.959 107.953C204.905 105.868 203.45 100.235 203.388 99.9954C203.376 99.9478 203.373 99.8983 203.38 99.8497C203.387 99.8011 203.403 99.7543 203.428 99.712C203.453 99.6698 203.486 99.6328 203.525 99.6033C203.565 99.5737 203.609 99.5522 203.657 99.54C203.705 99.5277 203.754 99.5249 203.803 99.5318C203.851 99.5386 203.898 99.555 203.94 99.5799C203.983 99.6049 204.02 99.6379 204.049 99.6771C204.079 99.7163 204.1 99.761 204.113 99.8085C204.128 99.8665 205.608 105.6 206.627 107.615C206.672 107.704 206.68 107.806 206.648 107.9C206.617 107.994 206.55 108.072 206.462 108.117C206.41 108.144 206.352 108.158 206.294 108.158Z" fill="black"/>
<path d="M212.202 110.594C212.136 110.595 212.071 110.577 212.014 110.545C211.957 110.512 211.909 110.465 211.876 110.408C209.999 107.112 208.791 100.923 208.744 100.66C208.735 100.612 208.735 100.563 208.745 100.515C208.755 100.467 208.774 100.421 208.801 100.38C208.829 100.34 208.864 100.305 208.905 100.278C208.946 100.251 208.992 100.232 209.041 100.223C209.089 100.214 209.138 100.214 209.187 100.224C209.235 100.234 209.28 100.253 209.321 100.28C209.362 100.308 209.397 100.343 209.424 100.384C209.451 100.425 209.469 100.471 209.479 100.519C209.491 100.583 210.711 106.85 212.526 110.039C212.575 110.125 212.588 110.227 212.561 110.322C212.535 110.418 212.472 110.499 212.386 110.548C212.33 110.579 212.266 110.595 212.202 110.594Z" fill="black"/>
<path d="M217.904 111.614C217.84 111.614 217.778 111.598 217.722 111.567C217.667 111.536 217.62 111.492 217.586 111.438C215.698 108.403 214.489 101.527 214.439 101.236C214.429 101.187 214.429 101.137 214.439 101.088C214.45 101.039 214.469 100.993 214.498 100.952C214.526 100.911 214.562 100.876 214.604 100.85C214.646 100.823 214.692 100.805 214.742 100.796C214.791 100.787 214.841 100.789 214.889 100.8C214.938 100.811 214.984 100.832 215.024 100.861C215.064 100.89 215.099 100.927 215.125 100.969C215.151 101.012 215.168 101.059 215.175 101.108C215.187 101.178 216.409 108.132 218.222 111.043C218.248 111.084 218.265 111.131 218.273 111.179C218.281 111.228 218.279 111.277 218.268 111.325C218.257 111.373 218.237 111.418 218.208 111.458C218.179 111.498 218.143 111.532 218.101 111.557C218.042 111.594 217.974 111.614 217.904 111.614Z" fill="black"/>
<path d="M222.952 111.632C222.884 111.632 222.818 111.614 222.76 111.579C222.702 111.545 222.655 111.495 222.623 111.436C221.298 108.978 220.229 101.985 220.184 101.688C220.176 101.639 220.177 101.589 220.189 101.541C220.2 101.493 220.221 101.447 220.25 101.407C220.279 101.367 220.316 101.333 220.359 101.307C220.401 101.282 220.448 101.265 220.497 101.257C220.546 101.25 220.596 101.252 220.644 101.264C220.692 101.276 220.738 101.298 220.777 101.328C220.817 101.358 220.85 101.395 220.875 101.438C220.9 101.48 220.917 101.528 220.923 101.577C220.935 101.648 222.018 108.737 223.281 111.081C223.312 111.138 223.327 111.202 223.326 111.267C223.324 111.331 223.306 111.394 223.273 111.45C223.24 111.506 223.193 111.552 223.137 111.583C223.08 111.615 223.017 111.632 222.952 111.632Z" fill="black"/>
<path d="M228.748 110.824C228.685 110.824 228.623 110.808 228.568 110.778C228.513 110.748 228.467 110.705 228.433 110.652C226.628 107.841 225.98 102.167 225.954 101.927C225.948 101.878 225.951 101.828 225.965 101.781C225.978 101.733 226.001 101.689 226.032 101.65C226.062 101.612 226.1 101.579 226.143 101.555C226.187 101.532 226.234 101.516 226.283 101.511C226.332 101.505 226.382 101.51 226.429 101.523C226.477 101.537 226.521 101.56 226.559 101.591C226.598 101.622 226.63 101.661 226.653 101.704C226.677 101.747 226.692 101.795 226.697 101.844C226.703 101.901 227.351 107.585 229.062 110.251C229.088 110.293 229.107 110.339 229.115 110.387C229.124 110.436 229.123 110.485 229.112 110.533C229.102 110.581 229.082 110.627 229.054 110.667C229.026 110.707 228.99 110.742 228.949 110.768C228.888 110.805 228.819 110.825 228.748 110.824Z" fill="black"/>
<path d="M234.805 108.657C234.737 108.657 234.67 108.638 234.612 108.603C234.553 108.567 234.506 108.517 234.474 108.456C232.943 105.542 232.605 102.067 232.59 101.917C232.585 101.868 232.59 101.818 232.605 101.771C232.619 101.724 232.643 101.68 232.674 101.642C232.706 101.604 232.745 101.573 232.788 101.55C232.832 101.527 232.88 101.513 232.929 101.508C232.978 101.504 233.027 101.509 233.074 101.523C233.122 101.538 233.165 101.561 233.203 101.593C233.241 101.624 233.273 101.663 233.296 101.707C233.319 101.75 233.333 101.798 233.338 101.847C233.338 101.881 233.679 105.325 235.14 108.106C235.17 108.163 235.185 108.227 235.183 108.291C235.181 108.355 235.163 108.418 235.13 108.473C235.096 108.529 235.049 108.574 234.993 108.606C234.937 108.638 234.874 108.654 234.809 108.654L234.805 108.657Z" fill="black"/>
<path d="M239.52 105.94C239.457 105.94 239.395 105.925 239.339 105.894C239.284 105.864 239.237 105.821 239.204 105.768C238.167 104.14 237.73 101.581 237.708 101.47C237.693 101.373 237.716 101.274 237.774 101.194C237.831 101.114 237.918 101.06 238.016 101.044C238.113 101.027 238.212 101.05 238.293 101.107C238.373 101.164 238.428 101.25 238.445 101.347C238.445 101.372 238.876 103.869 239.831 105.364C239.884 105.448 239.902 105.549 239.88 105.646C239.859 105.742 239.8 105.827 239.716 105.88C239.658 105.918 239.589 105.939 239.52 105.94Z" fill="black"/>
<path d="M199.582 129.288C199.456 129.288 199.334 129.246 199.235 129.168C199.136 129.09 199.066 128.981 199.037 128.859C198.251 125.611 198.057 122.713 198.458 120.246C198.785 118.239 199.505 116.509 200.597 115.108C202.475 112.692 204.789 112.092 204.886 112.068C205.03 112.031 205.183 112.054 205.311 112.13C205.438 112.206 205.53 112.33 205.567 112.474C205.603 112.619 205.581 112.771 205.504 112.899C205.428 113.027 205.304 113.119 205.16 113.155C205.126 113.163 203.072 113.715 201.441 115.85C199.255 118.708 198.801 123.116 200.127 128.599C200.162 128.744 200.138 128.896 200.06 129.023C199.983 129.15 199.858 129.241 199.713 129.276C199.67 129.285 199.626 129.289 199.582 129.288Z" fill="black"/>
<path d="M213.235 159.636C211.794 159.636 210.255 159.362 208.644 158.812C206.801 158.177 205.055 157.29 203.456 156.176C203.341 156.086 203.266 155.955 203.246 155.81C203.226 155.666 203.263 155.52 203.35 155.402C203.436 155.285 203.565 155.206 203.709 155.182C203.853 155.158 204 155.191 204.12 155.273C205.637 156.321 207.29 157.157 209.033 157.76C212.699 159.004 215.792 158.733 218.227 156.954C220.845 155.043 222.414 152.19 222.653 148.92C222.922 145.229 221.419 141.392 218.633 138.654C212.307 132.44 204.042 129.288 194.066 129.288C188.644 129.288 184.205 131.012 182.179 133.902C181.081 135.469 180.809 137.246 181.413 138.905C182.12 140.85 183.637 142.18 185.92 142.858C187.007 143.176 188.136 143.325 189.268 143.301C189.417 143.293 189.563 143.344 189.674 143.443C189.785 143.542 189.852 143.682 189.86 143.83C189.868 143.979 189.817 144.125 189.718 144.236C189.619 144.347 189.479 144.414 189.331 144.422C188.081 144.456 186.835 144.295 185.635 143.945C183.011 143.175 181.187 141.565 180.358 139.29C179.626 137.277 179.946 135.136 181.26 133.261C182.319 131.751 183.981 130.489 186.067 129.612C188.343 128.654 191.035 128.169 194.066 128.169C199.445 128.169 204.423 129.091 208.863 130.908C212.802 132.514 216.388 134.875 219.419 137.858C222.482 140.868 224.068 144.931 223.771 149.005C223.508 152.606 221.775 155.752 218.889 157.86C217.272 159.041 215.359 159.636 213.235 159.636Z" fill="black"/>
<path d="M194.16 154.604C194.104 154.604 194.048 154.595 193.994 154.578C191.983 153.956 190.36 152.68 189.427 150.986C188.511 149.322 188.305 147.367 188.854 145.48C189.202 144.274 189.641 143.238 190.069 142.239C190.91 140.257 191.633 138.544 191.455 136.054C191.445 135.905 191.494 135.759 191.591 135.646C191.689 135.533 191.827 135.464 191.976 135.453C192.125 135.443 192.272 135.492 192.384 135.589C192.497 135.687 192.566 135.825 192.577 135.974C192.774 138.733 191.964 140.644 191.106 142.676C190.695 143.646 190.27 144.649 189.939 145.792C188.96 149.172 190.809 152.417 194.333 153.508C194.461 153.548 194.571 153.633 194.643 153.747C194.714 153.861 194.742 153.997 194.721 154.13C194.7 154.263 194.631 154.385 194.528 154.471C194.425 154.558 194.295 154.605 194.16 154.604Z" fill="black"/>
<path d="M199.395 162.186C198.185 162.182 197.004 161.82 196 161.145C193.783 159.694 192.953 157.526 193.534 154.699C193.991 152.47 195.245 150.314 195.995 149.025C196.146 148.765 196.275 148.541 196.376 148.358C196.447 148.227 196.568 148.13 196.71 148.088C196.781 148.067 196.855 148.061 196.928 148.068C197.001 148.076 197.073 148.098 197.137 148.134C197.202 148.169 197.259 148.216 197.305 148.274C197.352 148.331 197.386 148.397 197.407 148.467C197.428 148.538 197.435 148.612 197.427 148.685C197.419 148.758 197.397 148.829 197.362 148.894C197.254 149.091 197.119 149.322 196.964 149.588C195.481 152.139 192.394 157.446 196.616 160.208C197.433 160.759 198.396 161.054 199.383 161.056C203.036 161.056 206.201 157.107 206.24 157.057C206.332 156.94 206.467 156.864 206.615 156.847C206.763 156.829 206.911 156.871 207.028 156.963C207.145 157.055 207.221 157.19 207.238 157.338C207.256 157.485 207.214 157.634 207.122 157.751C206.149 158.925 205.004 159.945 203.724 160.775C202.244 161.714 200.786 162.186 199.395 162.186Z" fill="black"/>
<path d="M205.004 148.999C204.954 148.999 204.904 148.989 204.858 148.969C204.812 148.95 204.77 148.921 204.735 148.886C204.591 148.738 201.193 145.209 199.968 140.403C198.707 135.46 195.823 133.25 194.318 132.724C194.224 132.691 194.147 132.622 194.104 132.533C194.061 132.444 194.055 132.341 194.088 132.247C194.121 132.154 194.189 132.077 194.279 132.034C194.368 131.991 194.471 131.985 194.565 132.017C196.771 132.789 199.519 135.624 200.693 140.218C201.867 144.813 205.238 148.33 205.274 148.364C205.325 148.417 205.36 148.484 205.373 148.556C205.387 148.629 205.379 148.704 205.35 148.771C205.321 148.839 205.273 148.897 205.211 148.937C205.149 148.978 205.077 148.999 205.004 148.999Z" fill="black"/>
<path d="M188.219 140.432C187.189 140.44 186.164 140.299 185.173 140.016C185.078 139.988 184.998 139.923 184.951 139.836C184.903 139.749 184.892 139.647 184.92 139.551C184.948 139.456 185.013 139.376 185.1 139.329C185.187 139.281 185.29 139.27 185.385 139.298C187.161 139.822 189.241 139.813 191.554 139.273C191.651 139.251 191.752 139.269 191.835 139.321C191.919 139.373 191.979 139.457 192.001 139.553C192.023 139.649 192.007 139.75 191.955 139.834C191.903 139.918 191.821 139.978 191.725 140.001C190.577 140.279 189.4 140.423 188.219 140.432Z" fill="black"/>
<path d="M214.155 170.093C213.421 170.09 212.694 169.958 212.005 169.703C210.172 169.037 209.308 166.932 209.437 163.444C209.512 161.831 209.737 160.228 210.11 158.656C210.147 158.512 210.239 158.388 210.366 158.311C210.494 158.235 210.647 158.212 210.791 158.249C210.935 158.285 211.059 158.377 211.136 158.504C211.212 158.632 211.235 158.785 211.199 158.929C210.604 161.296 209.66 167.658 212.389 168.65C214.374 169.371 216.309 168.889 218.305 167.175C220.587 165.213 222.857 161.663 225.051 156.619C228.205 149.368 227.904 143.461 226.569 140.35C225.936 138.875 225.013 137.852 223.97 137.47C220.35 136.147 218.315 137.587 218.23 137.649C218.111 137.734 217.962 137.77 217.817 137.747C217.672 137.725 217.541 137.646 217.453 137.528C217.366 137.41 217.328 137.263 217.347 137.117C217.367 136.972 217.444 136.84 217.56 136.75C217.663 136.673 220.133 134.874 224.355 136.418C225.711 136.913 226.833 138.12 227.6 139.908C228.447 141.883 228.795 144.417 228.607 147.236C228.396 150.387 227.546 153.695 226.083 157.065C223.82 162.265 221.452 165.951 219.04 168.022C217.437 169.402 215.802 170.093 214.155 170.093Z" fill="black"/>
<path d="M254.455 150.4C254.343 150.4 254.234 150.366 254.142 150.304C254.049 150.242 253.977 150.153 253.935 150.05C251.437 143.884 245.989 143.423 240.729 142.977C239.589 142.884 238.51 142.79 237.457 142.641C231.434 141.794 225.137 138.131 224.872 137.97C224.744 137.895 224.651 137.771 224.613 137.628C224.576 137.484 224.597 137.331 224.672 137.203C224.748 137.074 224.871 136.981 225.015 136.944C225.159 136.906 225.312 136.928 225.44 137.003C225.503 137.04 231.814 140.711 237.614 141.526C238.637 141.67 239.7 141.76 240.825 141.855C246.166 142.307 252.22 142.82 254.976 149.625C255.011 149.71 255.025 149.803 255.016 149.895C255.007 149.987 254.975 150.075 254.923 150.152C254.872 150.228 254.802 150.291 254.72 150.335C254.639 150.378 254.547 150.4 254.455 150.4Z" fill="black"/>
<path d="M245.915 143.622C245.874 143.621 245.832 143.617 245.791 143.608C245.647 143.575 245.522 143.486 245.442 143.362C245.363 143.237 245.336 143.086 245.368 142.942C245.383 142.872 245.764 141.225 247.445 140.487C249.144 139.739 251.472 140.206 254.362 141.881C254.429 141.916 254.489 141.964 254.537 142.023C254.584 142.082 254.62 142.149 254.641 142.222C254.662 142.294 254.668 142.37 254.659 142.445C254.65 142.521 254.626 142.593 254.588 142.658C254.55 142.724 254.499 142.781 254.439 142.826C254.378 142.872 254.309 142.904 254.236 142.922C254.162 142.94 254.086 142.943 254.011 142.931C253.937 142.919 253.865 142.891 253.801 142.851C251.284 141.395 249.248 140.929 247.912 141.506C247.561 141.662 247.25 141.894 246.999 142.184C246.748 142.475 246.565 142.817 246.462 143.187C246.434 143.311 246.364 143.421 246.265 143.5C246.165 143.579 246.042 143.622 245.915 143.622Z" fill="black"/>
<path d="M248.659 141.245C248.566 141.245 248.475 141.222 248.393 141.178C248.311 141.133 248.241 141.07 248.19 140.992C248.139 140.914 248.109 140.825 248.101 140.732C248.093 140.64 248.108 140.547 248.145 140.461C249.355 137.672 252.239 129.74 252.596 127.875C252.607 127.801 252.633 127.729 252.673 127.665C252.712 127.601 252.764 127.545 252.826 127.502C252.887 127.458 252.957 127.427 253.031 127.411C253.105 127.395 253.181 127.394 253.255 127.408C253.329 127.422 253.4 127.451 253.462 127.493C253.525 127.535 253.579 127.589 253.62 127.652C253.661 127.716 253.689 127.786 253.703 127.861C253.716 127.935 253.714 128.011 253.697 128.085C253.3 130.165 250.31 138.288 249.173 140.908C249.13 141.008 249.058 141.093 248.967 141.153C248.875 141.213 248.768 141.245 248.659 141.245Z" fill="black"/>
<path d="M241.801 173.416C238.858 173.416 235.934 172.917 233.534 172.508C232.52 172.335 231.562 172.171 230.735 172.068C225.565 171.422 213.191 170.1 213.067 170.087C212.993 170.081 212.921 170.06 212.854 170.025C212.788 169.991 212.73 169.943 212.682 169.886C212.635 169.828 212.599 169.762 212.578 169.69C212.556 169.619 212.549 169.544 212.557 169.47C212.565 169.395 212.588 169.323 212.624 169.258C212.66 169.193 212.709 169.135 212.767 169.089C212.826 169.043 212.893 169.009 212.965 168.989C213.037 168.969 213.112 168.963 213.186 168.973C213.31 168.986 225.695 170.309 230.874 170.956C231.726 171.063 232.696 171.228 233.724 171.403C239.109 172.322 246.486 173.58 251.465 169.133C257.896 163.388 265.08 152.933 267.48 145.83C270.01 138.335 269.594 137.321 268.706 136.285C267.618 135.016 266.146 133.634 266.132 133.62C266.077 133.57 266.033 133.51 266.001 133.443C265.97 133.375 265.952 133.303 265.949 133.229C265.946 133.154 265.958 133.08 265.984 133.011C266.01 132.941 266.05 132.878 266.1 132.824C266.151 132.769 266.212 132.726 266.28 132.695C266.348 132.665 266.421 132.648 266.495 132.646C266.569 132.644 266.643 132.657 266.712 132.684C266.781 132.711 266.845 132.751 266.898 132.802C266.961 132.86 268.429 134.24 269.559 135.556C270.944 137.172 270.992 138.935 268.542 146.189C266.091 153.442 258.764 164.114 252.211 169.968C249.817 172.106 246.753 173.227 242.843 173.394C242.496 173.409 242.148 173.416 241.801 173.416Z" fill="black"/>
<path d="M269.973 136.948C269.86 136.948 269.749 136.913 269.656 136.849C269.563 136.784 269.492 136.693 269.451 136.588C269.411 136.482 269.403 136.367 269.43 136.257C269.456 136.147 269.515 136.048 269.599 135.972C269.625 135.947 272.31 133.478 272.31 130.596C272.315 130.361 272.266 130.129 272.167 129.917C272.067 129.705 271.92 129.518 271.737 129.372C270.335 128.186 266.793 128.3 265.391 128.531C265.245 128.556 265.094 128.521 264.973 128.435C264.851 128.349 264.769 128.218 264.744 128.072C264.72 127.925 264.754 127.774 264.84 127.653C264.927 127.532 265.058 127.45 265.204 127.425C266.592 127.194 270.599 126.939 272.46 128.515C272.77 128.765 273.018 129.083 273.187 129.443C273.355 129.804 273.439 130.198 273.432 130.596C273.432 133.982 270.475 136.69 270.347 136.803C270.244 136.896 270.111 136.947 269.973 136.948Z" fill="black"/>
<path d="M272.871 129.661C272.76 129.661 272.653 129.629 272.561 129.568C272.469 129.507 272.397 129.42 272.354 129.318C272.311 129.217 272.299 129.105 272.32 128.997C272.341 128.888 272.393 128.788 272.47 128.71C273.741 127.304 274.741 125.676 275.42 123.907C276.817 120.17 276.222 116.693 273.653 113.576C270.232 109.426 265.214 108.142 258.737 109.762C253.546 111.06 249.077 113.819 247.613 114.725L247.462 114.819C247.399 114.86 247.329 114.888 247.255 114.901C247.181 114.914 247.105 114.913 247.032 114.896C246.959 114.88 246.89 114.849 246.829 114.806C246.768 114.762 246.716 114.707 246.677 114.643C246.638 114.579 246.612 114.508 246.6 114.434C246.589 114.36 246.593 114.284 246.611 114.212C246.629 114.139 246.662 114.071 246.708 114.011C246.753 113.951 246.81 113.901 246.875 113.864L247.023 113.77C248.528 112.842 253.11 110.014 258.47 108.673C261.541 107.905 264.359 107.762 266.847 108.247C269.909 108.845 272.492 110.395 274.523 112.863C278.076 117.172 277.537 121.479 276.462 124.335C275.734 126.239 274.653 127.988 273.276 129.491C273.224 129.546 273.161 129.589 273.091 129.618C273.021 129.648 272.946 129.662 272.871 129.661Z" fill="black"/>
<path d="M208.727 132.017C208.578 132.018 208.435 131.96 208.329 131.856C208.223 131.752 208.163 131.609 208.162 131.461C208.161 131.312 208.219 131.169 208.324 131.063C208.428 130.957 208.571 130.897 208.719 130.896C210.803 130.868 212.624 130.149 214.134 128.748C214.704 128.221 215.2 127.62 215.611 126.962C211.754 123.365 207.845 121.785 203.99 122.265C201.04 122.632 199.212 124.133 199.195 124.152C199.081 124.247 198.934 124.293 198.786 124.28C198.639 124.267 198.502 124.196 198.406 124.083C198.311 123.97 198.264 123.824 198.276 123.676C198.288 123.528 198.358 123.391 198.471 123.295C198.554 123.225 200.528 121.585 203.786 121.161C205.693 120.912 207.644 121.134 209.59 121.815C211.991 122.655 214.385 124.219 216.704 126.449C216.789 126.531 216.846 126.637 216.867 126.753C216.888 126.869 216.872 126.989 216.821 127.095C216.796 127.146 216.215 128.335 214.931 129.534C213.254 131.113 211.04 131.998 208.735 132.011L208.727 132.017Z" fill="black"/>
<path d="M221.351 130.91C220.908 130.909 220.467 130.862 220.034 130.771C218.362 130.428 217.225 129.586 216.659 128.268C214.97 124.344 219.148 117.557 219.327 117.269C219.405 117.143 219.531 117.053 219.676 117.019C219.821 116.985 219.973 117.011 220.099 117.089C220.226 117.168 220.316 117.293 220.349 117.438C220.383 117.583 220.358 117.735 220.279 117.861C220.239 117.927 216.232 124.439 217.689 127.825C218.109 128.8 218.95 129.405 220.261 129.673C223.546 130.346 224.633 127.871 224.678 127.765C224.737 127.632 224.846 127.527 224.982 127.473C225.117 127.419 225.268 127.42 225.403 127.476C225.538 127.531 225.646 127.637 225.704 127.771C225.762 127.905 225.766 128.056 225.714 128.192C225.423 128.823 224.995 129.38 224.46 129.823C223.824 130.356 222.811 130.91 221.351 130.91Z" fill="black"/>
<path d="M238.22 138.993C235.831 138.993 231.618 138.282 227.683 134.06C225.296 131.499 224.339 128.455 224.919 125.27C225.772 120.567 229.593 116.891 231.452 115.967C231.518 115.933 231.59 115.912 231.664 115.906C231.739 115.9 231.813 115.909 231.884 115.932C231.954 115.955 232.02 115.992 232.076 116.041C232.132 116.089 232.178 116.148 232.211 116.215C232.245 116.281 232.264 116.354 232.269 116.428C232.274 116.502 232.264 116.576 232.24 116.647C232.216 116.717 232.178 116.782 232.129 116.837C232.079 116.893 232.019 116.938 231.952 116.97C230.323 117.781 226.796 121.211 226.022 125.471C225.501 128.338 226.336 130.971 228.504 133.296C232.365 137.438 236.476 137.937 238.581 137.866C241.054 137.782 243.371 136.843 244.484 135.474C247.152 132.192 247.77 125.961 244.117 121.615C244.026 121.5 243.984 121.355 243.999 121.21C244.014 121.065 244.084 120.932 244.196 120.838C244.307 120.744 244.451 120.697 244.597 120.708C244.742 120.718 244.878 120.785 244.975 120.893C248.995 125.678 248.304 132.554 245.356 136.18C244.025 137.816 241.444 138.889 238.619 138.983C238.493 138.991 238.359 138.993 238.22 138.993Z" fill="black"/>
<path d="M247.218 128.889C247.092 128.889 246.97 128.847 246.872 128.769C246.773 128.692 246.703 128.583 246.673 128.462C246.643 128.34 246.655 128.212 246.707 128.097C246.759 127.983 246.847 127.889 246.959 127.831C248.828 126.865 252.043 123.012 249.466 117.861C247.083 113.097 239.679 114.181 239.605 114.193C239.458 114.216 239.308 114.179 239.187 114.091C239.067 114.003 238.987 113.872 238.964 113.725C238.941 113.578 238.978 113.428 239.066 113.308C239.154 113.188 239.286 113.108 239.433 113.085C240.901 112.894 242.388 112.907 243.852 113.122C247.031 113.6 249.322 115.065 250.47 117.36C253.157 122.73 250.272 127.377 247.479 128.826C247.398 128.868 247.308 128.889 247.218 128.889Z" fill="black"/>
<path d="M242.159 138.272C242.072 138.272 241.986 138.251 241.909 138.212C241.776 138.145 241.675 138.029 241.628 137.888C241.581 137.747 241.592 137.593 241.658 137.46C241.664 137.448 242.344 136.047 242.235 134.074C242.09 131.44 240.676 129.067 238.028 127.022C235.765 125.272 233.005 124.686 229.823 125.276C228.358 125.548 226.943 126.039 225.625 126.733C225.496 126.807 225.343 126.827 225.199 126.789C225.055 126.75 224.933 126.656 224.858 126.527C224.784 126.398 224.764 126.245 224.803 126.101C224.841 125.957 224.936 125.835 225.065 125.76C226.48 125.006 228.003 124.473 229.58 124.18C233.054 123.526 236.217 124.201 238.713 126.136C242.368 128.963 243.253 132.014 243.352 134.076C243.461 136.328 242.688 137.897 242.655 137.963C242.609 138.055 242.538 138.133 242.45 138.187C242.363 138.241 242.262 138.271 242.159 138.272Z" fill="black"/>
<path d="M233.328 141.245C233.283 141.245 233.238 141.24 233.194 141.229C233.122 141.212 233.055 141.18 232.995 141.136C232.936 141.093 232.886 141.038 232.848 140.975C232.809 140.912 232.784 140.842 232.773 140.769C232.762 140.696 232.766 140.622 232.783 140.55L233.519 137.577C233.555 137.432 233.646 137.308 233.774 137.231C233.901 137.154 234.054 137.131 234.198 137.167C234.343 137.203 234.467 137.294 234.544 137.422C234.621 137.549 234.644 137.701 234.608 137.846L233.873 140.819C233.843 140.941 233.773 141.049 233.674 141.126C233.576 141.203 233.454 141.245 233.328 141.245Z" fill="black"/>
<path d="M267.636 163.011C267.523 163.011 267.413 162.977 267.32 162.914C267.226 162.85 267.154 162.76 267.113 162.655C265.407 158.298 265.711 150.444 265.721 150.111C265.727 149.967 265.789 149.83 265.894 149.73C265.998 149.63 266.137 149.574 266.282 149.574H266.306C266.379 149.577 266.451 149.595 266.518 149.625C266.585 149.656 266.645 149.7 266.695 149.754C266.745 149.808 266.784 149.872 266.809 149.941C266.835 150.01 266.846 150.083 266.843 150.157C266.843 150.236 266.539 158.11 268.159 162.246C268.193 162.331 268.205 162.423 268.194 162.514C268.184 162.605 268.152 162.691 268.1 162.767C268.048 162.842 267.979 162.904 267.898 162.947C267.817 162.989 267.727 163.011 267.636 163.011Z" fill="black"/>
<path d="M220.302 162.397C219.993 162.397 219.685 162.362 219.385 162.292C216.901 161.715 215.716 158.963 215.667 158.847C215.624 158.713 215.633 158.569 215.691 158.442C215.749 158.315 215.853 158.214 215.982 158.159C216.111 158.105 216.255 158.1 216.387 158.147C216.519 158.193 216.629 158.287 216.695 158.41C216.706 158.434 217.715 160.758 219.639 161.202C220.838 161.477 222.19 160.973 223.659 159.701C223.772 159.618 223.912 159.581 224.052 159.596C224.191 159.612 224.32 159.679 224.412 159.784C224.505 159.89 224.554 160.026 224.551 160.167C224.548 160.307 224.492 160.441 224.394 160.542C222.978 161.778 221.605 162.397 220.302 162.397Z" fill="black"/>
<path d="M227.719 143.861C227.619 143.861 227.52 143.834 227.433 143.782C227.346 143.731 227.275 143.657 227.227 143.568C225.186 139.816 221.682 141.535 221.534 141.607C221.402 141.672 221.249 141.684 221.108 141.637C220.968 141.591 220.852 141.492 220.784 141.36C220.717 141.229 220.704 141.077 220.749 140.936C220.793 140.795 220.892 140.678 221.023 140.609C221.824 140.232 222.699 140.035 223.585 140.03H223.627C224.98 140.04 226.874 140.569 228.212 143.028C228.26 143.114 228.284 143.21 228.282 143.308C228.281 143.406 228.254 143.501 228.204 143.586C228.155 143.67 228.084 143.739 227.999 143.788C227.914 143.836 227.817 143.861 227.719 143.861Z" fill="black"/>
<path d="M195.936 164.506C195.879 164.506 195.823 164.497 195.769 164.48C195.698 164.459 195.633 164.423 195.576 164.376C195.52 164.329 195.473 164.271 195.439 164.206C195.405 164.14 195.384 164.069 195.377 163.996C195.37 163.922 195.378 163.848 195.4 163.778C195.695 162.8 195.922 161.802 196.082 160.793C196.104 160.647 196.184 160.516 196.303 160.428C196.423 160.34 196.572 160.303 196.718 160.325C196.865 160.346 196.997 160.425 197.086 160.544C197.174 160.662 197.212 160.811 197.191 160.958C197.024 162.025 196.784 163.079 196.472 164.112C196.436 164.226 196.365 164.326 196.268 164.397C196.172 164.468 196.056 164.506 195.936 164.506Z" fill="black"/>
<path d="M196.272 129.288H196.253C196.179 129.285 196.107 129.268 196.04 129.238C195.973 129.207 195.912 129.164 195.862 129.11C195.812 129.056 195.772 128.993 195.747 128.924C195.721 128.855 195.709 128.781 195.712 128.708C195.712 128.661 195.847 124.015 193.694 122.243C192.902 121.589 191.902 121.416 190.64 121.707C190.495 121.741 190.343 121.715 190.217 121.636C190.09 121.557 190.001 121.432 189.967 121.287C189.934 121.142 189.959 120.99 190.038 120.863C190.117 120.737 190.243 120.648 190.388 120.614C191.992 120.24 193.345 120.502 194.407 121.38C196.987 123.505 196.838 128.534 196.831 128.747C196.825 128.892 196.765 129.029 196.66 129.13C196.556 129.231 196.417 129.287 196.272 129.288Z" fill="black"/>
<path d="M190.514 129.54H190.491C190.417 129.537 190.345 129.52 190.278 129.489C190.211 129.458 190.151 129.414 190.101 129.36C190.051 129.306 190.012 129.242 189.987 129.173C189.962 129.104 189.95 129.031 189.953 128.957C189.967 128.626 189.983 128.296 189.998 127.967C190.185 123.849 190.372 119.96 187.345 115.694C185.242 112.725 182.097 112.068 178.768 111.371C177.375 111.079 175.935 110.778 174.615 110.291C171.989 109.321 171.192 107.622 170.419 105.978C169.841 104.744 169.242 103.468 167.826 102.359C164.835 100.013 162.685 102.207 162.598 102.302C162.496 102.408 162.356 102.47 162.208 102.474C162.061 102.478 161.918 102.424 161.81 102.323C161.702 102.222 161.639 102.083 161.633 101.936C161.627 101.788 161.68 101.645 161.779 101.536C161.808 101.505 164.698 98.4848 168.518 101.477C170.144 102.75 170.83 104.212 171.436 105.501C172.173 107.073 172.81 108.429 175.004 109.238C176.246 109.697 177.583 109.977 178.998 110.273C182.392 110.983 185.903 111.717 188.261 115.045C191.508 119.622 191.31 123.892 191.119 128.018C191.103 128.345 191.089 128.673 191.075 129.002C191.069 129.147 191.008 129.284 190.903 129.384C190.798 129.484 190.659 129.54 190.514 129.54Z" fill="black"/>
<path d="M159.126 126.401C156.656 126.401 154.138 125.747 152.187 124.007C150.691 122.671 149.976 121.157 150.058 119.507C150.232 115.979 154.031 113.166 154.193 113.048C154.313 112.967 154.461 112.935 154.604 112.96C154.747 112.984 154.875 113.064 154.961 113.181C155.047 113.298 155.084 113.444 155.064 113.588C155.044 113.732 154.969 113.863 154.855 113.953C154.802 113.993 151.324 116.581 151.178 119.566C151.116 120.86 151.706 122.073 152.935 123.172C155.916 125.838 160.476 125.61 163.75 124.509C166.325 123.642 167.835 122.35 167.995 121.519C168.228 120.317 167.715 118.774 166.656 117.49C165.555 116.163 164.098 115.369 162.75 115.369C158.871 115.369 155.003 115.711 154.042 119.794C154.026 119.867 153.996 119.936 153.954 119.998C153.911 120.059 153.857 120.111 153.794 120.151C153.731 120.191 153.66 120.218 153.586 120.231C153.513 120.243 153.437 120.241 153.365 120.224C153.292 120.207 153.223 120.175 153.163 120.131C153.103 120.087 153.052 120.032 153.013 119.968C152.974 119.904 152.949 119.833 152.938 119.759C152.927 119.686 152.931 119.61 152.95 119.538C153.486 117.26 154.893 115.708 157.131 114.921C159.052 114.248 161.278 114.248 162.75 114.248C164.433 114.248 166.209 115.194 167.518 116.779C168.803 118.337 169.387 120.189 169.093 121.73C168.822 123.132 166.863 124.638 164.104 125.567C162.5 126.109 160.819 126.391 159.126 126.401Z" fill="black"/>
<path d="M168.266 133.782C167.331 133.782 166.172 133.605 164.797 133.081C163.159 132.457 162.049 131.464 161.499 130.128C160.551 127.831 161.635 125.386 161.685 125.283C161.747 125.149 161.86 125.045 161.998 124.993C162.137 124.941 162.29 124.946 162.425 125.007C162.56 125.068 162.665 125.179 162.718 125.317C162.771 125.455 162.768 125.608 162.708 125.744C162.699 125.765 161.773 127.863 162.543 129.707C162.973 130.743 163.866 131.526 165.201 132.033C168.794 133.402 170.53 132.127 170.55 132.112C170.609 132.067 170.676 132.034 170.747 132.016C170.818 131.997 170.892 131.992 170.965 132.002C171.038 132.012 171.109 132.036 171.172 132.073C171.236 132.11 171.292 132.159 171.336 132.217C171.381 132.276 171.414 132.343 171.433 132.414C171.452 132.485 171.456 132.559 171.446 132.632C171.437 132.705 171.413 132.775 171.376 132.839C171.339 132.903 171.289 132.958 171.231 133.003C171.164 133.05 170.168 133.782 168.266 133.782Z" fill="black"/>
<path d="M180.325 128.447C180.207 128.447 180.092 128.41 179.997 128.341C179.901 128.273 179.83 128.175 179.793 128.064C179.755 127.952 179.754 127.832 179.789 127.719C179.824 127.607 179.894 127.509 179.988 127.438C180.563 127.008 182.325 125.014 182.606 122.738C182.751 121.568 182.465 120.527 181.753 119.644C180.716 118.358 179.494 117.638 178.12 117.504C176.689 117.365 175.136 117.9 173.857 118.974C172.339 120.231 170.614 121.214 168.758 121.879C168.688 121.902 168.614 121.911 168.541 121.905C168.467 121.899 168.396 121.879 168.33 121.846C168.265 121.812 168.206 121.766 168.158 121.711C168.11 121.655 168.074 121.59 168.051 121.52C168.028 121.45 168.019 121.376 168.025 121.303C168.031 121.229 168.051 121.158 168.084 121.092C168.118 121.026 168.164 120.968 168.22 120.92C168.276 120.872 168.34 120.836 168.411 120.813C170.127 120.188 171.724 119.276 173.135 118.116C174.643 116.85 176.5 116.221 178.229 116.389C179.89 116.551 181.407 117.432 182.622 118.941C183.533 120.07 183.9 121.394 183.714 122.877C183.405 125.344 181.564 127.649 180.653 128.335C180.558 128.406 180.443 128.445 180.325 128.447Z" fill="black"/>
<path d="M178.682 153.016C177.344 153.016 176.093 152.455 175.145 151.423C173.836 149.993 172.434 146.909 173.224 140.334C173.927 134.501 175.437 130.648 177.711 128.879C178.749 128.073 179.934 127.732 181.142 127.888C183.646 128.215 184.384 131.197 184.413 131.324C184.448 131.469 184.424 131.621 184.346 131.748C184.268 131.875 184.143 131.966 183.998 132C183.853 132.035 183.701 132.01 183.574 131.933C183.447 131.855 183.356 131.73 183.322 131.585C183.316 131.561 182.731 129.226 180.996 129C180.08 128.881 179.207 129.137 178.4 129.764C177.002 130.849 175.163 133.587 174.334 140.469C173.593 146.619 174.814 149.408 175.967 150.664C176.943 151.726 178.05 151.917 178.806 151.892C179.853 151.856 181.061 150.823 182.119 149.058C183.159 147.322 183.885 145.149 184.063 143.245C184.082 143.101 184.156 142.97 184.269 142.879C184.383 142.789 184.527 142.746 184.672 142.759C184.816 142.773 184.95 142.842 185.045 142.952C185.139 143.062 185.187 143.205 185.179 143.35C184.992 145.411 184.203 147.761 183.08 149.634C181.805 151.763 180.301 152.962 178.845 153.013L178.682 153.016Z" fill="black"/>
<path d="M177.894 152.922C177.873 152.923 177.852 152.923 177.832 152.922C177.658 152.903 173.562 152.446 172.223 152.064C171.806 151.944 170.37 151.358 169.41 148.815C168.485 146.365 168.288 142.916 168.829 138.564C170.138 127.973 175.165 127.089 175.373 127.056C175.428 127.048 175.485 127.048 175.54 127.056L181.149 127.897C181.292 127.923 181.419 128.004 181.504 128.123C181.588 128.241 181.623 128.387 181.601 128.531C181.58 128.675 181.503 128.805 181.388 128.893C181.272 128.981 181.127 129.021 180.983 129.005L175.476 128.18C175.224 128.246 174.276 128.562 173.232 129.729C172.078 131.016 170.569 133.618 169.939 138.702C169.43 142.813 169.609 146.176 170.457 148.418C171.252 150.524 172.326 150.925 172.528 150.984C173.776 151.341 177.91 151.802 177.95 151.807C178.099 151.815 178.238 151.882 178.338 151.992C178.437 152.103 178.489 152.249 178.481 152.398C178.473 152.546 178.406 152.686 178.295 152.785C178.184 152.884 178.038 152.936 177.889 152.928L177.894 152.922Z" fill="black"/>
<path d="M189.518 150.4C189.448 150.4 189.378 150.387 189.313 150.362C186.327 149.194 183.891 145.852 183.797 145.711C183.752 145.652 183.719 145.584 183.7 145.511C183.681 145.438 183.677 145.363 183.688 145.288C183.699 145.214 183.725 145.143 183.764 145.079C183.803 145.015 183.854 144.959 183.915 144.915C183.976 144.872 184.046 144.841 184.119 144.824C184.192 144.807 184.268 144.806 184.342 144.819C184.416 144.832 184.486 144.86 184.549 144.901C184.612 144.942 184.666 144.995 184.708 145.057C184.74 145.101 187.056 148.275 189.726 149.318C189.848 149.366 189.949 149.454 190.013 149.569C190.076 149.683 190.098 149.816 190.073 149.944C190.049 150.073 189.981 150.189 189.88 150.272C189.779 150.356 189.652 150.401 189.521 150.401L189.518 150.4Z" fill="black"/>
<path d="M189.112 129.929C188.963 129.929 188.821 129.869 188.715 129.764L182.81 123.879C182.706 123.774 182.648 123.632 182.648 123.484C182.649 123.336 182.708 123.194 182.812 123.09C182.916 122.985 183.058 122.926 183.206 122.925C183.354 122.924 183.496 122.981 183.602 123.085L189.508 128.97C189.587 129.049 189.64 129.148 189.662 129.257C189.684 129.366 189.673 129.479 189.631 129.581C189.588 129.684 189.516 129.772 189.424 129.833C189.331 129.895 189.223 129.928 189.112 129.928V129.929Z" fill="black"/>
<path d="M149.476 108.261C148.478 108.261 147.606 107.957 146.965 107.32C145.646 106.002 145.717 103.63 147.152 101.131C147.189 101.067 147.238 101.011 147.296 100.967C147.355 100.922 147.422 100.889 147.493 100.87C147.564 100.85 147.638 100.846 147.711 100.855C147.785 100.865 147.855 100.889 147.919 100.925C147.983 100.962 148.039 101.011 148.084 101.07C148.129 101.128 148.162 101.195 148.181 101.266C148.2 101.337 148.205 101.411 148.195 101.484C148.186 101.557 148.162 101.628 148.125 101.692C146.973 103.701 146.829 105.6 147.76 106.53C149.115 107.885 152.395 106.897 154.921 104.373C157.447 101.849 158.436 98.5708 157.08 97.2162C155.968 96.1046 153.485 96.553 151.176 98.2812C151.057 98.3704 150.908 98.4087 150.761 98.3877C150.613 98.3666 150.48 98.288 150.391 98.1691C150.302 98.0502 150.264 97.9007 150.285 97.7535C150.306 97.6064 150.384 97.4736 150.503 97.3844C153.308 95.2853 156.338 94.8902 157.873 96.4231C159.721 98.27 158.773 102.109 155.714 105.165C153.713 107.164 151.373 108.261 149.476 108.261Z" fill="black"/>
<path d="M30.7552 0.560486C40.9446 6.91278 100.959 51.7525 153.963 101.17C153.938 101.597 153.815 102.012 153.605 102.385C153.394 102.757 153.101 103.076 152.748 103.318C151.532 104.159 150.598 103.785 150.598 103.785C150.598 103.785 81.9827 42.6911 61.6974 25.3157C41.412 7.94035 30.7552 0.560486 30.7552 0.560486Z" fill="#C87D13"/>
<path d="M151.152 104.425C150.893 104.43 150.635 104.39 150.389 104.306C150.329 104.281 150.273 104.247 150.225 104.204C149.539 103.593 81.3816 42.9144 61.3328 25.7417C41.3083 8.59425 30.5421 1.09481 30.4355 1.02101C30.3204 0.935589 30.2424 0.809352 30.2175 0.668235C30.1926 0.527119 30.2228 0.381839 30.3017 0.262248C30.3807 0.142657 30.5026 0.0578404 30.6422 0.0252186C30.7818 -0.00740323 30.9286 0.0146493 31.0525 0.0868479C35.9434 3.13595 53.3252 15.7602 76.6525 34.2771C96.261 49.8431 125.657 74.0126 154.345 100.759C154.402 100.812 154.447 100.875 154.477 100.946C154.508 101.017 154.524 101.093 154.524 101.17C154.498 101.687 154.354 102.192 154.101 102.644C153.848 103.097 153.495 103.485 153.067 103.779C152.317 104.298 151.638 104.425 151.152 104.425ZM150.872 103.282C151.079 103.326 151.669 103.381 152.424 102.858C152.672 102.688 152.884 102.471 153.047 102.219C153.209 101.967 153.32 101.685 153.373 101.39C124.776 74.7431 95.4973 50.6707 75.9513 35.158C67.8671 28.7329 60.4952 23.0224 54.1151 18.1769C56.5768 20.2264 59.2254 22.464 62.061 24.8897C81.7733 41.7738 147.945 100.673 150.878 103.282H150.872Z" fill="black"/>
<path d="M176.398 117.517C176.266 117.518 176.138 117.471 176.037 117.385C171.848 113.85 157.99 98.2858 157.403 97.6254C157.354 97.5702 157.316 97.5058 157.292 97.4361C157.268 97.3663 157.258 97.2924 157.262 97.2187C157.266 97.1449 157.285 97.0728 157.317 97.0063C157.35 96.9399 157.395 96.8804 157.45 96.8313C157.505 96.7823 157.569 96.7446 157.639 96.7203C157.709 96.6961 157.783 96.6859 157.857 96.6902C157.931 96.6946 158.003 96.7134 158.069 96.7456C158.136 96.7778 158.195 96.8228 158.244 96.8781C158.388 97.0387 172.64 113.039 176.764 116.526C176.853 116.6 176.917 116.7 176.947 116.812C176.977 116.924 176.971 117.042 176.931 117.151C176.891 117.259 176.818 117.353 176.723 117.419C176.628 117.484 176.514 117.519 176.398 117.517Z" fill="black"/>
<path d="M156.881 116.179C156.74 116.179 156.605 116.126 156.501 116.031L147.403 107.669C147.293 107.569 147.228 107.429 147.222 107.28C147.216 107.132 147.269 106.987 147.37 106.877C147.471 106.768 147.611 106.703 147.759 106.697C147.908 106.691 148.053 106.744 148.163 106.845L157.261 115.205C157.344 115.282 157.403 115.382 157.428 115.492C157.454 115.602 157.445 115.717 157.404 115.822C157.363 115.927 157.291 116.018 157.198 116.081C157.104 116.145 156.994 116.179 156.881 116.179Z" fill="black"/>
<path d="M194.855 123.267C194.717 123.267 194.583 123.215 194.481 123.121C194.371 123.022 194.305 122.882 194.298 122.734C194.291 122.586 194.342 122.44 194.442 122.33C194.451 122.32 195.377 121.303 196.383 120.297C197.226 119.474 198.147 118.733 199.132 118.085C199.194 118.043 199.264 118.014 199.337 117.999C199.411 117.984 199.487 117.984 199.56 117.999C199.634 118.014 199.704 118.043 199.766 118.086C199.828 118.128 199.88 118.183 199.921 118.246C199.961 118.309 199.989 118.38 200.001 118.453C200.014 118.527 200.012 118.603 199.995 118.676C199.978 118.749 199.946 118.818 199.902 118.879C199.857 118.939 199.801 118.99 199.737 119.029C198.821 119.635 197.963 120.325 197.176 121.09C196.188 122.076 195.283 123.074 195.273 123.083C195.22 123.141 195.156 123.188 195.084 123.22C195.012 123.251 194.934 123.267 194.855 123.267Z" fill="black"/>
<path d="M101.053 68.9411C100.941 68.941 100.831 68.9073 100.738 68.8443C100.645 68.7813 100.573 68.6919 100.532 68.5877C100.49 68.4834 100.481 68.3692 100.505 68.2596C100.53 68.1501 100.586 68.0503 100.668 67.9733C102.284 66.4478 105.322 61.8592 105.352 61.8078C105.436 61.6896 105.564 61.6087 105.706 61.5822C105.849 61.5558 105.997 61.5858 106.118 61.666C106.239 61.7462 106.325 61.8702 106.356 62.0121C106.388 62.1539 106.363 62.3024 106.287 62.4262C106.159 62.6187 103.146 67.169 101.436 68.7785C101.334 68.8798 101.197 68.938 101.053 68.9411Z" fill="black"/>
<path d="M61.1365 31.2944C61.0282 31.2945 60.9221 31.2633 60.8311 31.2045C60.7402 31.1457 60.6682 31.0618 60.6239 30.963C60.5796 30.8642 60.5649 30.7547 60.5816 30.6477C60.5982 30.5408 60.6455 30.4409 60.7177 30.3602C61.682 29.2542 62.5744 28.0875 63.3894 26.8674C63.4265 26.7993 63.4773 26.7397 63.5386 26.6923C63.5998 26.6448 63.6703 26.6106 63.7455 26.5917C63.8207 26.5729 63.899 26.5698 63.9754 26.5827C64.0519 26.5956 64.1248 26.6242 64.1897 26.6667C64.2545 26.7092 64.3098 26.7647 64.3521 26.8296C64.3944 26.8946 64.4227 26.9675 64.4354 27.044C64.448 27.1204 64.4447 27.1986 64.4255 27.2737C64.4064 27.3488 64.3719 27.4191 64.3242 27.4802C63.4815 28.7485 62.5566 29.9602 61.5553 31.1075C61.5026 31.1664 61.4381 31.2135 61.3659 31.2457C61.2937 31.2779 61.2155 31.2945 61.1365 31.2944Z" fill="black"/>
<path d="M29.4465 216.725C29.2977 216.725 29.1551 216.666 29.0499 216.561C28.9447 216.456 28.8856 216.313 28.8856 216.165V2.89591C28.8855 2.78413 28.9188 2.67486 28.9813 2.58216C29.0438 2.48945 29.1327 2.41754 29.2364 2.37566C29.3401 2.33378 29.454 2.32385 29.5634 2.34714C29.6728 2.37043 29.7727 2.42588 29.8503 2.50637C34.9516 7.78998 54.5545 24.6684 62.205 29.3327C62.2442 29.3564 62.2804 29.385 62.3125 29.4177C62.6051 29.7147 91.7674 59.2174 103.048 65.9275C103.112 65.9657 103.169 66.0165 103.213 66.0769C103.3 66.1956 112.086 78.1108 125.136 92.1157C137.166 105.026 155.383 122.402 173.85 131.87C173.916 131.903 173.974 131.95 174.022 132.006C174.069 132.062 174.106 132.127 174.128 132.197C174.151 132.267 174.159 132.341 174.153 132.414C174.147 132.488 174.127 132.559 174.093 132.625C174.06 132.69 174.013 132.748 173.957 132.796C173.901 132.844 173.836 132.88 173.766 132.902C173.696 132.925 173.622 132.934 173.548 132.928C173.475 132.922 173.403 132.901 173.338 132.868C165.112 128.65 156.257 122.547 147.02 114.726C139.635 108.478 131.997 101.124 124.304 92.8668C111.818 79.4653 103.221 67.9677 102.376 66.8289C97.567 63.9396 89.249 56.9175 77.6481 45.9542C69.3283 38.0942 62.2144 30.9142 61.5609 30.2509C54.2339 25.7623 36.2706 10.3982 30.0074 4.25418V216.165C30.0074 216.313 29.9483 216.456 29.8431 216.561C29.7379 216.666 29.5953 216.725 29.4465 216.725Z" fill="black"/>
<path d="M210.35 167.51H210.3C184.095 165.241 158.699 151.816 141.885 142.935C140.016 141.949 138.254 141.016 136.597 140.156C120.267 131.677 106.87 125.355 95.4496 127.412C90.6755 128.273 86.7559 131.88 83.7991 138.135C81.4013 143.207 80.2131 148.995 79.9243 152.41C79.7084 154.961 80.0374 156.732 80.9021 157.671C81.6303 158.463 82.6137 158.529 83.4784 158.529C83.6272 158.529 83.7699 158.588 83.875 158.693C83.9802 158.798 84.0393 158.941 84.0393 159.089C84.0393 159.238 83.9802 159.381 83.875 159.486C83.7699 159.591 83.6272 159.65 83.4784 159.65C82.7381 159.65 81.1984 159.65 80.0767 158.43C78.9755 157.233 78.5595 155.233 78.8063 152.317C79.3569 145.808 83.3868 128.448 95.2514 126.31C100.684 125.331 106.733 126.09 114.289 128.701C120.94 131 128.224 134.545 137.115 139.164C138.775 140.025 140.54 140.958 142.41 141.946C159.138 150.787 184.418 164.145 210.397 166.395C210.546 166.401 210.686 166.466 210.787 166.576C210.888 166.685 210.941 166.83 210.934 166.979C210.928 167.128 210.863 167.268 210.753 167.368C210.644 167.469 210.498 167.522 210.35 167.516V167.51Z" fill="black"/>
<path d="M169.507 156.217C169.285 156.217 169.142 156.217 169.092 156.217C169.018 156.216 168.945 156.201 168.878 156.173C168.81 156.144 168.748 156.102 168.697 156.05C168.645 155.997 168.604 155.935 168.576 155.867C168.549 155.799 168.535 155.726 168.535 155.652C168.536 155.579 168.551 155.506 168.58 155.438C168.608 155.37 168.65 155.309 168.703 155.257C168.755 155.205 168.817 155.165 168.885 155.137C168.954 155.109 169.027 155.095 169.1 155.096C169.255 155.096 184.6 155.181 192.245 152.739C192.386 152.696 192.538 152.711 192.669 152.779C192.799 152.848 192.897 152.965 192.942 153.105C192.987 153.245 192.975 153.397 192.908 153.529C192.842 153.66 192.726 153.76 192.587 153.807C185.393 156.098 172.079 156.217 169.507 156.217Z" fill="black"/>
<path d="M257.699 163.852C257.55 163.854 257.406 163.798 257.299 163.695C257.192 163.592 257.13 163.45 257.128 163.302C257.125 163.153 257.181 163.009 257.285 162.902C257.388 162.795 257.529 162.734 257.678 162.731C257.905 162.722 280.526 161.833 287.69 156.759C290.214 154.969 291.499 153.294 291.399 151.915C291.305 150.592 289.925 149.876 289.912 149.869C289.779 149.803 289.678 149.686 289.631 149.545C289.584 149.404 289.596 149.25 289.662 149.117C289.729 148.984 289.846 148.883 289.987 148.836C290.128 148.789 290.282 148.8 290.415 148.867C290.495 148.907 292.366 149.864 292.517 151.821C292.656 153.641 291.25 155.611 288.339 157.672C285.201 159.896 279.084 161.611 270.16 162.771C263.554 163.629 257.777 163.849 257.719 163.851L257.699 163.852Z" fill="black"/>
<path d="M188.471 227.153C183.365 227.153 178.177 226.92 172.948 226.452C161.845 225.458 150.127 223.374 138.117 220.257C126.45 217.23 116.256 211.796 107.819 204.107C101.072 197.958 95.4299 190.363 91.0504 181.535C87.1569 173.688 85.0022 166.295 83.8804 161.475C82.6651 156.244 82.3707 152.922 82.3585 152.788C82.3461 152.639 82.3933 152.491 82.4897 152.378C82.5862 152.264 82.7239 152.193 82.8727 152.18C83.0214 152.168 83.169 152.215 83.2829 152.312C83.3969 152.408 83.4679 152.546 83.4803 152.694C83.4915 152.828 84.7096 166.245 92.0805 181.079C98.8635 194.736 112.407 212.432 138.407 219.178C186.962 231.775 218.932 224.692 243.798 216.102C265.995 208.435 283.029 185.572 289.463 167.574C289.517 167.441 289.621 167.333 289.752 167.274C289.884 167.215 290.033 167.209 290.169 167.257C290.305 167.306 290.417 167.404 290.483 167.533C290.548 167.661 290.561 167.81 290.519 167.948C287.103 177.504 280.917 187.826 273.549 196.271C264.776 206.325 254.615 213.553 244.165 217.158C233.009 221.011 219.238 225.148 201.681 226.61C197.361 226.974 192.945 227.153 188.471 227.153Z" fill="black"/>
<path d="M135.845 219.608C135.761 219.608 135.678 219.589 135.602 219.553C126.947 215.417 119.41 208.691 113.205 199.563C108.258 192.282 104.143 183.464 100.975 173.356C95.5879 156.167 94.7971 140.97 94.7896 140.819C94.786 140.746 94.797 140.672 94.8219 140.603C94.8468 140.533 94.8851 140.469 94.9347 140.415C94.9843 140.36 95.0441 140.316 95.1108 140.285C95.1775 140.253 95.2497 140.235 95.3234 140.232C95.397 140.228 95.4707 140.239 95.5401 140.264C95.6095 140.289 95.6733 140.327 95.7279 140.377C95.7825 140.426 95.8268 140.486 95.8583 140.552C95.8898 140.619 95.9078 140.691 95.9114 140.765C95.9179 140.914 96.705 155.992 102.054 173.046C106.974 188.733 116.872 209.36 136.081 218.539C136.196 218.594 136.289 218.686 136.345 218.801C136.401 218.915 136.416 219.045 136.387 219.17C136.359 219.294 136.29 219.405 136.19 219.484C136.09 219.564 135.966 219.607 135.839 219.606L135.845 219.608Z" fill="black"/>
<path d="M206.686 198.322C198.054 198.32 189.442 197.462 180.979 195.762C173.597 194.264 166.349 192.167 159.308 189.492C146.244 184.547 136.106 178.618 128.704 174.288C127.548 173.613 126.46 172.975 125.45 172.397C111.959 164.653 104.863 161.316 98.4746 161.998C95.1841 162.351 93.6725 164.427 91.9235 166.824C91.5318 167.361 91.127 167.917 90.6877 168.474C90.6257 168.552 90.5353 168.602 90.4364 168.613C90.3375 168.624 90.2383 168.596 90.1604 168.534C90.0826 168.472 90.0325 168.382 90.0213 168.283C90.0101 168.184 90.0386 168.085 90.1006 168.007C90.5306 167.462 90.9307 166.912 91.3158 166.381C93.092 163.942 94.7746 161.639 98.3924 161.251C104.987 160.546 112.184 163.918 125.82 171.745C126.829 172.324 127.922 172.959 129.078 173.64C143.381 182.003 169.998 197.571 206.682 197.571C206.781 197.571 206.876 197.611 206.946 197.681C207.016 197.751 207.055 197.846 207.055 197.945C207.055 198.044 207.016 198.139 206.946 198.209C206.876 198.279 206.781 198.319 206.682 198.319L206.686 198.322Z" fill="black"/>
<path d="M201.97 212.34C192.894 212.34 184.224 211.581 176.177 210.082C168.968 208.737 162.061 206.761 155.655 204.205C143.97 199.546 135.979 193.802 130.69 190.005C129.599 189.222 128.568 188.481 127.659 187.857C122.744 184.503 117.975 181.964 113.867 180.515C109.583 179.004 106.087 178.71 103.757 179.664C98.9262 181.645 97.3426 190.344 97.3267 190.431C97.3009 190.578 97.218 190.708 97.0961 190.793C96.9743 190.879 96.8235 190.912 96.677 190.886C96.5305 190.861 96.4002 190.778 96.3148 190.656C96.2294 190.534 96.196 190.384 96.2217 190.237C96.2891 189.855 97.9343 180.84 103.332 178.627C105.957 177.55 109.627 177.831 114.241 179.459C118.438 180.939 123.297 183.523 128.291 186.932C129.212 187.561 130.248 188.305 131.345 189.094C142.142 196.853 162.141 211.222 201.936 211.222C202.395 211.222 202.852 211.222 203.316 211.217C226.545 211.024 243.714 207.293 254.026 204.203C265.198 200.851 270.951 197.502 271.008 197.469C271.136 197.393 271.289 197.371 271.433 197.408C271.577 197.446 271.7 197.538 271.776 197.667C271.852 197.795 271.873 197.948 271.836 198.092C271.799 198.236 271.706 198.359 271.578 198.434C271.342 198.573 265.684 201.87 254.4 205.261C247.786 207.248 240.611 208.847 233.076 210.013C223.661 211.47 213.652 212.255 203.326 212.338C202.873 212.339 202.421 212.34 201.97 212.34Z" fill="black"/>
<path d="M234.076 196.361C233.977 196.364 233.881 196.327 233.808 196.259C233.736 196.191 233.694 196.098 233.691 195.999C233.687 195.899 233.724 195.803 233.792 195.731C233.86 195.659 233.954 195.616 234.053 195.613C234.129 195.609 241.723 195.115 251.468 193.23C260.449 191.493 273.146 188.186 282.63 182.291C282.672 182.265 282.718 182.247 282.767 182.239C282.816 182.23 282.865 182.232 282.913 182.243C282.961 182.254 283.007 182.274 283.047 182.303C283.087 182.331 283.121 182.368 283.147 182.409C283.173 182.451 283.191 182.498 283.199 182.546C283.207 182.595 283.205 182.645 283.194 182.693C283.183 182.741 283.162 182.786 283.133 182.826C283.104 182.866 283.068 182.9 283.026 182.925C278.789 185.558 273.579 187.902 267.54 189.892C262.715 191.481 257.35 192.853 251.6 193.965C241.81 195.859 234.175 196.354 234.1 196.359L234.076 196.361Z" fill="black"/>
<path d="M239.13 34.8292C238.519 34.8292 237.891 34.8012 237.254 34.7442C235.176 34.5574 233.24 34.0903 231.805 33.428C229.741 32.4742 229.382 31.4494 229.442 30.7591C229.503 30.0688 230.039 29.1234 232.238 28.547C233.77 28.1462 235.756 28.0267 237.834 28.2107C239.912 28.3947 241.846 28.8646 243.282 29.5269C245.346 30.4816 245.706 31.5055 245.644 32.1968C245.583 32.888 245.048 33.8325 242.848 34.4089C241.787 34.6863 240.508 34.8292 239.13 34.8292ZM235.964 29.2476C232.703 29.2476 230.627 30.1089 230.56 30.8581C230.482 31.7344 233.089 33.2496 237.353 33.6279C239.305 33.8007 241.155 33.6933 242.564 33.3243C243.717 33.0216 244.488 32.5405 244.527 32.0977C244.605 31.2206 241.998 29.7063 237.735 29.328C237.112 29.2728 236.521 29.2476 235.964 29.2476Z" fill="black"/>
<path d="M244.069 33.7232C244.011 33.7233 243.953 33.7096 243.901 33.6833C243.848 33.657 243.803 33.6189 243.768 33.5719C242.827 32.3042 241.338 31.3831 237.131 31.0085C233.211 30.661 231.696 32.6741 231.634 32.7591C231.575 32.8371 231.488 32.889 231.391 32.9038C231.295 32.9186 231.196 32.895 231.117 32.8381C231.038 32.7812 230.984 32.6956 230.967 32.5995C230.95 32.5034 230.971 32.4044 231.026 32.3238C231.097 32.2239 232.828 29.8772 237.196 30.2687C241.036 30.6096 243.115 31.4382 244.371 33.13C244.413 33.1856 244.438 33.2516 244.444 33.3206C244.45 33.3897 244.437 33.4591 244.405 33.521C244.374 33.5829 244.327 33.635 244.268 33.6714C244.209 33.7077 244.14 33.727 244.071 33.7269L244.069 33.7232Z" fill="black"/>
<path d="M236.632 78.5321C236.632 78.5321 242.302 77.909 243.237 84.1679L239.685 86.4098L242.022 87.7177C242.022 87.7177 243.345 92.1512 238.431 94.6052C238.431 94.6052 235.34 93.3852 234.521 91.4384C233.702 89.4916 233.119 85.982 233.88 83.3C234.641 80.618 236.632 78.5321 236.632 78.5321Z" fill="black"/>
<path d="M234.263 61.4678C233.865 60.0955 235.852 57.264 241.274 57.264C246.696 57.264 249.127 60.3468 249.874 63.6163C250.622 66.8859 250.622 67.8201 250.996 68.5674C251.37 69.3147 252.398 70.2489 251.651 70.8094C250.903 71.3699 249.127 70.2489 248.005 67.1661C246.883 64.0834 245.948 63.6163 244.172 62.6822C242.396 61.748 235.104 64.3637 234.263 61.4678Z" fill="black"/>
<path d="M173.594 152.15C173.538 152.15 173.483 152.137 173.432 152.113C173.382 152.088 173.337 152.053 173.302 152.009C171.166 149.34 170.716 145.627 170.978 143.259C170.989 143.16 171.039 143.069 171.117 143.007C171.195 142.945 171.294 142.916 171.393 142.927C171.493 142.937 171.583 142.987 171.646 143.065C171.708 143.143 171.737 143.242 171.726 143.341C171.671 143.836 171.265 148.262 173.889 151.543C173.933 151.598 173.961 151.664 173.968 151.734C173.976 151.804 173.964 151.874 173.934 151.938C173.903 152.001 173.856 152.054 173.796 152.092C173.737 152.129 173.668 152.149 173.598 152.15H173.594Z" fill="black"/>
<path d="M174.155 131.156C174.089 131.157 174.025 131.14 173.968 131.107C173.882 131.057 173.819 130.976 173.793 130.881C173.767 130.785 173.78 130.684 173.829 130.598C174.257 129.85 175.705 128.034 177.214 127.533C177.261 127.514 177.311 127.505 177.362 127.507C177.413 127.508 177.463 127.52 177.509 127.542C177.555 127.563 177.596 127.594 177.63 127.632C177.664 127.67 177.69 127.714 177.706 127.762C177.722 127.81 177.728 127.861 177.723 127.912C177.719 127.963 177.704 128.012 177.68 128.057C177.656 128.101 177.624 128.141 177.584 128.172C177.544 128.204 177.498 128.227 177.449 128.241C176.134 128.68 174.792 130.418 174.477 130.967C174.445 131.024 174.398 131.072 174.341 131.105C174.285 131.138 174.22 131.156 174.155 131.156Z" fill="black"/>
<path d="M26.5486 227.001C25.3333 232.513 26.1747 237.37 29.0726 242.508C31.9705 247.646 33.5597 265.862 19.5375 265.862C12.848 265.862 8.60027 259.573 8.88071 253.158C9.14994 247.021 13.7754 240.787 15.2374 239.052C15.2374 239.052 7.29154 239.612 0.560913 248.02C0.560913 248.02 3.45882 247.366 5.79584 247.366C5.79584 247.366 2.84185 253.74 4.95451 260.257C6.48667 264.984 11.0252 270.44 19.631 270.44C40.0098 270.44 36.1771 246.618 34.401 242.602C32.6249 238.585 29.8204 232.139 30.5683 227.001" fill="#9DA3AB"/>
<path d="M7.29153 242.228C7.19805 242.975 7.19805 244.096 8.22634 243.909C9.25463 243.723 11.4926 242.158 13.2248 241.773C14.957 241.388 14.8635 238.958 14.8635 238.958L7.29153 242.228Z" fill="#E7E9EA"/>
<path d="M2.16318 246.182C3.36534 245.497 6.63717 244.657 6.91761 246.151C7.19806 247.646 5.70236 251.85 6.07629 255.026C6.45021 258.202 8.03938 264.741 15.1439 267.077C22.2485 269.412 26.5486 267.077 29.2595 265.115C31.9705 263.153 35.1488 258.202 35.5228 254.652C35.5228 254.652 36.3641 259.136 34.214 262.219C32.064 265.302 28.5117 270.907 20.3789 270.253C12.246 269.599 8.3432 267.947 5.76126 262.234C3.17931 256.521 5.17513 249.047 5.17513 249.047L5.32563 247.377L0.560913 248.113L2.16318 246.182Z" fill="#6D6D6D"/>
<path d="M30.4495 229.168C28.7921 229.243 28.0443 229.15 28.0443 229.15C28.0443 229.15 27.0945 237.132 28.3172 241.081C28.3172 241.081 26.944 237.665 26.2326 234.669C25.5212 231.672 26.829 226.721 26.829 226.721L31.0039 226.647L30.4495 229.169" fill="#6D6D6D"/>
<path d="M31.4096 222.33L34.6338 220.257C34.6338 220.257 35.3508 222.287 34.0346 224.224C32.7183 226.16 30.1944 227.842 27.9508 226.908C25.7073 225.973 23.4637 223.078 23.9311 221.209C24.3985 219.341 25.6138 217.286 26.5486 216.632C27.4834 215.978 31.9705 215.885 32.064 217.473C32.064 217.473 31.2226 219.621 30.3813 219.434C26.6421 218.594 26.8646 222.179 27.3899 222.984C28.7921 225.133 31.4096 222.33 31.4096 222.33Z" fill="#9DA3AB"/>
<path d="M23.6506 221.583C23.6506 221.583 25.2398 224.479 27.8573 224.852C30.4747 225.226 32.2284 225.053 34.2962 223.038C34.2962 223.038 33.3446 225.44 32.0966 226.081C30.8487 226.722 28.8248 227.381 26.9832 226.584C25.1417 225.788 23.6506 223.358 23.6506 223.358V221.583Z" fill="#6D6D6D"/>
<path d="M23.9479 219.808C23.9479 219.808 26.7355 216.912 31.2226 218.127L31.7639 216.878C31.7639 216.878 29.1389 216.084 28.3116 216.218C27.4843 216.352 24.8061 216.73 23.9479 219.81" fill="#E7E9EA"/>
<path d="M29.9139 219.808C30.8534 220.747 31.9181 217.202 32.2715 215.983C32.6248 214.764 32.6351 214.26 33.1446 215.119C33.654 215.979 35.9901 217.566 36.8315 217.286C37.6728 217.006 34.3383 220.088 33.4353 220.695C32.5323 221.301 31.0356 222.33 31.0356 222.33C31.0356 222.33 28.2705 225.801 27.0823 222.617C25.8942 219.433 28.6051 218.5 29.9139 219.808Z" fill="#E1E1E1"/>
<path d="M36.9249 216.725C36.2706 217.099 34.3075 216.819 33.6531 215.417C32.9987 214.016 32.7052 213.132 33.9737 213.34C35.2423 213.548 36.5445 213.959 36.8716 214.829C37.1988 215.699 36.9249 216.725 36.9249 216.725Z" fill="white"/>
<path d="M19.631 271C10.9419 271 6.07623 265.54 4.42068 260.43C2.68942 255.087 4.21876 249.917 4.95165 247.952C2.89507 248.072 0.709492 248.561 0.684252 248.566C0.570908 248.592 0.45247 248.581 0.345294 248.536C0.238118 248.492 0.147491 248.415 0.0859277 248.316C0.0243643 248.218 -0.00509904 248.103 0.00160722 247.987C0.00831347 247.871 0.0508588 247.76 0.123367 247.669C3.67564 243.235 7.56631 240.978 10.2062 239.866C13.0864 238.652 15.114 238.499 15.199 238.492C15.309 238.484 15.4189 238.509 15.5148 238.564C15.6108 238.618 15.6885 238.699 15.7384 238.798C15.7883 238.896 15.8081 239.007 15.7953 239.116C15.7825 239.226 15.7377 239.329 15.6664 239.413C15.0597 240.133 9.72759 246.639 9.44061 253.182C9.2901 256.627 10.5184 260.061 12.7274 262.366C14.5662 264.287 16.92 265.302 19.5375 265.302C23.6217 265.302 26.6271 263.703 28.4705 260.55C29.912 258.084 30.6122 254.622 30.4411 250.802C30.3018 247.684 29.5726 244.536 28.5836 242.784C25.5969 237.488 24.7761 232.434 26.0007 226.881C26.0166 226.809 26.0464 226.741 26.0886 226.68C26.1308 226.62 26.1844 226.568 26.2465 226.529C26.3085 226.489 26.3778 226.462 26.4503 226.449C26.5228 226.436 26.5972 226.438 26.6691 226.454C26.7411 226.469 26.8092 226.499 26.8696 226.541C26.93 226.584 26.9815 226.637 27.0212 226.699C27.0608 226.761 27.0879 226.83 27.1008 226.903C27.1137 226.975 27.1122 227.05 27.0963 227.122C25.9185 232.462 26.6785 237.123 29.5614 242.233C30.6467 244.157 31.4133 247.421 31.5619 250.752C31.6891 253.605 31.4245 257.719 29.439 261.116C28.4743 262.764 27.201 264.052 25.6549 264.94C23.9423 265.924 21.8838 266.423 19.5375 266.423C16.6078 266.423 13.9726 265.289 11.9169 263.142C9.50043 260.62 8.15618 256.877 8.3207 253.133C8.56188 247.622 12.1375 242.204 13.8996 239.844C12.7671 240.103 11.6602 240.463 10.5923 240.92C8.33379 241.878 5.1087 243.722 2.01448 247.17C3.07549 246.992 4.50855 246.805 5.79579 246.805C5.88992 246.805 5.98251 246.829 6.06505 246.874C6.14758 246.92 6.21739 246.985 6.26804 247.064C6.3187 247.143 6.34858 247.234 6.35492 247.328C6.36126 247.422 6.34386 247.516 6.30432 247.601C6.27628 247.663 3.47185 253.86 5.48823 260.084C7.02226 264.82 11.5439 269.879 19.631 269.879C25.5062 269.879 29.811 267.846 32.4238 263.837C34.9375 259.981 35.3909 255.071 35.3292 251.629C35.2535 247.425 34.4047 243.997 33.8877 242.828C32.1462 238.889 29.2305 232.296 30.0129 226.921C30.0343 226.773 30.1132 226.641 30.2324 226.552C30.3516 226.463 30.5013 226.425 30.6486 226.446C30.7959 226.467 30.9286 226.546 31.0177 226.665C31.1068 226.785 31.1448 226.934 31.1235 227.081C30.3869 232.138 33.2212 238.546 34.9141 242.375C35.4881 243.674 36.3715 247.205 36.451 251.61C36.5155 255.207 36.0331 260.354 33.3661 264.449C30.5308 268.795 25.9101 271 19.631 271Z" fill="black"/>
<path d="M29.0726 227.562C28.1449 227.561 27.23 227.346 26.4001 226.931C25.5702 226.517 24.8481 225.916 24.2908 225.174C23.7335 224.433 23.3563 223.573 23.189 222.661C23.0217 221.749 23.0689 220.811 23.3269 219.92C23.5848 219.03 24.0465 218.212 24.6753 217.53C25.3042 216.849 26.083 216.323 26.9503 215.993C27.8176 215.664 28.7495 215.541 29.6725 215.634C30.5956 215.727 31.4843 216.033 32.2687 216.528C32.3944 216.608 32.4833 216.734 32.5159 216.879C32.5485 217.024 32.5221 217.176 32.4425 217.302C32.363 217.427 32.2367 217.516 32.0915 217.549C31.9464 217.581 31.7942 217.555 31.6685 217.475C30.7046 216.868 29.5577 216.619 28.4286 216.772C27.2995 216.925 26.2604 217.471 25.4932 218.313C24.726 219.154 24.2797 220.239 24.2325 221.377C24.1853 222.514 24.5402 223.632 25.235 224.535C25.9299 225.437 26.9203 226.066 28.0328 226.312C29.1453 226.558 30.309 226.405 31.3199 225.88C32.3307 225.355 33.1244 224.49 33.5618 223.439C33.9991 222.388 34.0523 221.216 33.712 220.129C33.6689 219.988 33.6834 219.835 33.7525 219.704C33.8216 219.574 33.9396 219.475 34.0807 219.431C34.2219 219.387 34.3749 219.4 34.5063 219.468C34.6377 219.536 34.737 219.653 34.7824 219.794C35.0634 220.689 35.1295 221.638 34.9754 222.564C34.8213 223.49 34.4513 224.366 33.8954 225.122C33.3395 225.879 32.6132 226.493 31.7753 226.917C30.9375 227.341 30.0116 227.562 29.0726 227.562Z" fill="black"/>
<path d="M29.0726 224.385C28.6381 224.385 28.2097 224.283 27.8212 224.089C27.4326 223.895 27.0946 223.613 26.8336 223.266C26.5727 222.919 26.3961 222.516 26.3176 222.089C26.2392 221.662 26.2611 221.222 26.3817 220.805C26.5022 220.388 26.7181 220.005 27.0123 219.685C27.3065 219.366 27.6709 219.119 28.0769 218.964C28.4828 218.81 28.9192 218.751 29.3515 218.794C29.7839 218.837 30.2004 218.979 30.5683 219.21C30.6942 219.289 30.7835 219.415 30.8166 219.56C30.8496 219.705 30.8237 219.857 30.7445 219.983C30.6653 220.109 30.5393 220.198 30.3942 220.231C30.2491 220.264 30.0969 220.238 29.9709 220.159C29.6757 219.974 29.3302 219.885 28.9821 219.904C28.6339 219.923 28.3004 220.05 28.0276 220.267C27.7547 220.484 27.5561 220.78 27.4591 221.115C27.3621 221.45 27.3716 221.806 27.4862 222.135C27.6007 222.464 27.8148 222.75 28.0987 222.952C28.3826 223.154 28.7224 223.263 29.0711 223.264C29.4198 223.265 29.7601 223.158 30.0451 222.957C30.33 222.756 30.5455 222.472 30.6618 222.143C30.7161 222.01 30.8199 221.902 30.9515 221.843C31.0831 221.784 31.2324 221.778 31.3684 221.826C31.5044 221.874 31.6166 221.973 31.6817 222.102C31.7468 222.23 31.7599 222.379 31.7181 222.517C31.524 223.063 31.1655 223.536 30.6919 223.87C30.2182 224.205 29.6526 224.385 29.0726 224.385Z" fill="black"/>
<path d="M29.7269 222.891C29.5782 222.899 29.4321 222.849 29.3207 222.75C29.2094 222.651 29.142 222.512 29.1333 222.363C29.1246 222.214 29.1754 222.068 29.2745 221.957C29.3735 221.846 29.5127 221.778 29.6615 221.77C32.507 221.432 34.2869 219.175 35.3498 217.826C35.6789 217.409 35.9387 217.078 36.1771 216.865C36.5024 216.572 36.6744 216.211 36.6595 215.838C36.6436 215.416 36.3837 214.991 35.9294 214.642C35.0694 213.981 33.9953 213.577 33.5363 214.168C33.2736 214.506 33.0436 215.316 32.8211 216.098C32.565 217 32.2995 217.933 31.8863 218.601C31.0833 219.909 29.3624 221.061 29.2894 221.109C29.2281 221.15 29.1592 221.179 29.0869 221.193C29.0145 221.207 28.9401 221.207 28.8678 221.192C28.7954 221.178 28.7267 221.149 28.6654 221.108C28.6042 221.067 28.5516 221.015 28.5107 220.953C28.4699 220.892 28.4415 220.823 28.4272 220.751C28.4129 220.679 28.413 220.604 28.4275 220.532C28.442 220.46 28.4706 220.391 28.5117 220.33C28.5527 220.269 28.6055 220.216 28.6669 220.175C28.6827 220.165 30.256 219.106 30.931 218.013C31.2609 217.475 31.5049 216.619 31.7396 215.791C32.0032 214.863 32.2518 213.987 32.6482 213.478C33.469 212.423 35.0245 212.531 36.6118 213.751C37.3353 214.311 37.7495 215.033 37.7784 215.793C37.8065 216.5 37.5027 217.176 36.925 217.695C36.6756 217.953 36.4432 218.228 36.2295 218.516C35.0581 220.001 33.0988 222.486 29.7924 222.88C29.7708 222.885 29.7489 222.888 29.7269 222.891Z" fill="black"/>
<path d="M36.551 217.846C36.5146 217.846 36.4783 217.843 36.4426 217.836C34.4851 217.452 33.2399 216.715 32.7417 215.644C32.1967 214.474 32.7847 213.389 32.8108 213.344C32.8849 213.218 33.005 213.126 33.1457 213.088C33.2863 213.049 33.4364 213.067 33.5642 213.137C33.692 213.208 33.7873 213.325 33.8301 213.464C33.8729 213.603 33.8597 213.754 33.7933 213.884C33.7756 213.917 33.4568 214.537 33.7643 215.183C34.1027 215.894 35.1039 216.431 36.6576 216.736C36.7944 216.762 36.9165 216.839 37 216.95C37.0834 217.062 37.1223 217.201 37.109 217.339C37.0957 217.478 37.0312 217.607 36.928 217.7C36.8248 217.794 36.6904 217.846 36.551 217.846Z" fill="black"/>
<path d="M238.937 146.196C241.835 146.476 245.761 149.279 245.668 154.136C245.553 160.132 241.274 161.797 238.47 161.61C236.307 161.466 230.43 159.368 231.833 151.241C232.767 147.317 236.581 145.968 238.937 146.196Z" fill="#0083E8"/>
<path d="M238.903 161.997C238.75 161.997 238.598 161.993 238.444 161.982C237.209 161.9 234.662 161.183 232.955 159.016C231.407 157.054 230.906 154.413 231.46 151.177L231.464 151.154C231.67 150.253 232.06 149.405 232.609 148.662C233.159 147.92 233.857 147.299 234.659 146.839C235.973 146.07 237.584 145.69 238.968 145.824C241.877 146.105 246.136 148.944 246.036 154.144C245.986 156.749 245.184 158.782 243.651 160.187C242.402 161.338 240.653 161.997 238.903 161.997ZM232.199 151.315C231.681 154.329 232.134 156.763 233.543 158.553C235.088 160.515 237.383 161.163 238.498 161.237C240.196 161.35 241.938 160.752 243.154 159.637C244.53 158.375 245.251 156.522 245.297 154.125C245.39 149.398 241.536 146.819 238.903 146.564C236.643 146.349 233.072 147.679 232.199 151.315Z" fill="#001291"/>
<path d="M231.931 150.739L241.555 146.85L242.022 147.13L231.926 151.241L231.931 150.739Z" fill="#0095EE"/>
<path d="M231.833 154.884L244.172 149.092L245.823 152.735L233.406 159.126L231.833 156.939V154.884Z" fill="#0095EE"/>
<path d="M236.133 160.862L245.574 156.285V157.406L236.974 161.236L236.133 160.862Z" fill="#0095EE"/>
<path d="M238.376 151.427L237.535 156.378L238.096 156.565L238.563 154.417L239.872 154.697L239.498 156.939L240.059 157.126L241.087 152.081L240.433 151.988L240.059 153.95L238.75 153.669L239.031 151.521L238.376 151.427Z" fill="#001291"/>
<path d="M241.742 152.362L240.9 157.406L243.05 157.873L243.237 157.126L241.742 156.752L242.396 152.455L241.742 152.362Z" fill="#001291"/>
<path d="M233.796 150.12L234.544 150.306L234.357 154.043L235.572 150.68L236.133 150.774V154.604L237.255 151.147L237.909 151.334L236.133 156.005L235.572 155.911L235.665 152.175L234.544 155.631L233.796 155.444V150.12Z" fill="#001291"/>
<path d="M238.903 161.997C238.75 161.997 238.598 161.993 238.444 161.982C237.209 161.9 234.662 161.183 232.955 159.016C231.407 157.054 230.906 154.413 231.46 151.177L231.464 151.154C231.67 150.253 232.06 149.405 232.609 148.662C233.159 147.92 233.857 147.299 234.659 146.839C235.973 146.07 237.584 145.69 238.968 145.824C241.877 146.105 246.136 148.944 246.036 154.144C245.986 156.749 245.184 158.782 243.651 160.187C242.402 161.338 240.653 161.997 238.903 161.997ZM232.199 151.315C231.681 154.329 232.134 156.763 233.543 158.553C235.088 160.515 237.383 161.163 238.498 161.237C240.196 161.35 241.938 160.752 243.154 159.637C244.53 158.375 245.251 156.522 245.297 154.125C245.39 149.398 241.536 146.819 238.903 146.564C236.643 146.349 233.072 147.679 232.199 151.315Z" fill="#001291"/>
</g>
<defs>
<clipPath id="clip0_135_2613">
<rect width="297" height="271" fill="white"/>
</clipPath>
</defs>
</svg>
