<svg width="31" height="31" viewBox="0 0 31 31" fill="none" xmlns="http://www.w3.org/2000/svg">
<path d="M3.95109 28.9954C4.48323 28.8415 4.96585 28.5938 5.17779 28.0555C5.30257 27.7385 5.3204 27.3772 5.37189 27.0338C5.38544 26.8939 5.38544 26.753 5.37189 26.6131C5.36067 26.3753 5.34614 26.1818 5.65843 26.0741C5.95157 25.9724 6.02551 25.5623 5.82283 25.3119C5.61612 25.0501 5.37997 24.813 5.11903 24.6052C4.75854 24.3278 4.26998 24.5894 4.26074 25.0603C4.24423 25.7538 4.25611 26.4473 4.25347 27.1434C4.25347 27.5707 4.09436 27.7973 3.77283 27.8488C3.63795 27.8746 3.49834 27.8468 3.3836 27.7713C3.26885 27.6959 3.18799 27.5787 3.15816 27.4446C3.13465 27.3419 3.12291 27.2369 3.12317 27.1315C3.12317 20.5035 3.12317 13.8757 3.12317 7.24813V7.14311C4.50634 9.7665 6.5636 11.4976 9.53263 12.057C9.4666 12.3681 9.36625 12.6957 9.33456 13.0305C9.2243 14.0919 9.53725 15.0469 10.1466 15.9056C10.9033 16.9709 11.8593 17.7852 13.1388 18.1597C13.8518 18.3684 14.5609 18.3328 15.3175 18.0501C15.2733 18.202 15.2475 18.3064 15.2132 18.4074C14.6605 20.0417 14.3836 21.7566 14.3939 23.4818C14.4084 25.1264 15.6569 26.4777 17.3094 26.7181C18.8847 26.9453 20.4488 25.9605 20.9406 24.4203C21.0278 24.1469 21.0727 23.8589 21.142 23.5439C21.208 23.6013 21.2741 23.6588 21.3401 23.7215C22.8199 25.2001 24.2981 26.6802 25.7748 28.1619C26.1439 28.535 26.5248 28.8732 27.0517 28.9974H27.5799C27.735 28.9399 27.8954 28.8943 28.042 28.8243C28.5755 28.5733 28.8475 28.1176 29 27.5734V27.045C28.8746 26.5067 28.5227 26.1243 28.145 25.7479C25.6049 23.2165 23.069 20.6812 20.5372 18.1419C19.9998 17.6049 19.811 17.6036 19.2769 18.1419C19.2089 18.225 19.1455 18.3116 19.0867 18.4015C18.9963 18.2595 18.9547 18.1564 18.8814 18.0838C13.6436 12.8441 8.40584 7.60434 3.16806 2.36462C2.94029 2.13676 2.71581 1.89239 2.34939 2.05024C1.98296 2.20809 2.00013 2.53436 2.00013 2.85865C2.00013 10.9542 2.00013 19.0496 2.00013 27.1447C2.00013 27.9076 2.28865 28.4895 2.98518 28.8369C3.12902 28.8995 3.27626 28.9539 3.42621 29L3.95109 28.9954ZM10.9587 11.8496L15.7057 16.5977C14.7953 17.2582 13.7997 17.3705 12.7737 16.8078C11.9154 16.3375 11.2347 15.6731 10.793 14.792C10.2754 13.7689 10.2813 12.7703 10.9587 11.8496ZM3.28691 4.19808L10.0034 10.915C9.77889 10.9032 9.53395 10.9151 9.29891 10.8741C8.30857 10.6964 7.45028 10.2268 6.64811 9.64629C5.35407 8.71239 4.49908 7.44165 3.90158 5.98862C3.66125 5.4041 3.48761 4.7892 3.28691 4.19808ZM16.0695 23.3603C16.0729 22.9165 16.2504 22.4918 16.5636 22.1776C16.8769 21.8633 17.3009 21.6847 17.7445 21.68C18.6622 21.6741 19.4459 22.46 19.436 23.3768C19.4339 23.5988 19.3881 23.8182 19.301 24.0225C19.214 24.2267 19.0875 24.4118 18.9288 24.567C18.7701 24.7223 18.5824 24.8447 18.3763 24.9272C18.1702 25.0097 17.9499 25.0506 17.728 25.0478C17.5083 25.0459 17.2912 25.0009 17.0889 24.9151C16.8867 24.8293 16.7033 24.7044 16.5493 24.5477C16.3953 24.391 16.2736 24.2055 16.1913 24.0017C16.109 23.798 16.0676 23.58 16.0695 23.3603ZM15.7975 20.6299C16.0147 19.5309 16.294 18.5316 16.7509 17.6135L18.2694 19.1392C18.0713 19.3803 17.7174 19.5566 17.7577 19.9925C17.0557 20.0066 16.3736 20.2284 15.7975 20.6299Z" fill="white"/>
</svg>
