<svg width="28" height="23" viewBox="0 0 28 23" fill="none" xmlns="http://www.w3.org/2000/svg">
<path d="M14.1398 7.07105C15.0212 7.06965 15.8832 7.33107 16.6166 7.82217C17.3499 8.31328 17.9216 9.01198 18.2591 9.82971C18.5966 10.6474 18.6849 11.5474 18.5126 12.4155C18.3403 13.2837 17.9153 14.0809 17.2914 14.7062C16.6675 15.3315 15.8728 15.7567 15.008 15.9279C14.1432 16.0992 13.2473 16.0087 12.4338 15.6681C11.6202 15.3274 10.9257 14.7519 10.4382 14.0144C9.95067 13.2769 9.69214 12.4107 9.69534 11.5255C9.70567 10.3457 10.1775 9.21735 11.0091 8.38397C11.8406 7.55058 12.9651 7.07901 14.1398 7.07105Z" fill="white"/>
<path d="M27.9306 11.7611C27.8975 15.3282 26.8592 18.813 24.9359 21.812C24.5079 22.4877 23.7906 22.6858 23.1866 22.2967C22.5826 21.9075 22.4612 21.1902 22.8831 20.5297C24.683 17.6848 25.5672 14.5736 25.5024 11.2043C25.4438 8.13585 24.5858 5.299 22.9802 2.68366C22.7856 2.3657 22.6775 2.00205 22.6666 1.62899C22.6666 1.12096 23.0956 0.723683 23.5944 0.612932C24.0931 0.502182 24.5879 0.714544 24.8914 1.19006C25.7422 2.50679 26.4254 3.92542 26.9249 5.41281C27.5967 7.40835 27.9245 9.4618 27.9306 11.7611Z" fill="white"/>
<path d="M6.09205e-05 11.4584C0.00931975 7.82477 1.05906 4.27052 3.02409 1.21953C3.37718 0.666791 3.92856 0.459517 4.48602 0.656633C4.75376 0.743589 4.98109 0.924963 5.12597 1.16722C5.27085 1.40948 5.32349 1.69624 5.27415 1.97446C5.22573 2.20849 5.13225 2.43077 4.99896 2.6288C3.64709 4.76231 2.80337 7.1802 2.5334 9.69448C2.12871 13.5027 2.92056 17.042 4.90892 20.3123C5.05764 20.5572 5.21243 20.8203 5.2701 21.0937C5.32179 21.3698 5.27259 21.6554 5.13153 21.898C4.99048 22.1406 4.76704 22.324 4.50221 22.4145C3.96094 22.6178 3.38932 22.4217 3.05545 21.9065C2.21295 20.6122 1.5333 19.218 1.03201 17.7559C0.343423 15.7285 -0.00530179 13.6004 6.09205e-05 11.4584Z" fill="white"/>
<path d="M4.84717 11.3883C4.87246 9.44759 5.40968 7.66948 6.5165 6.07223C6.95964 5.4311 7.67795 5.26853 8.25564 5.66581C8.83333 6.06309 8.93855 6.78347 8.51869 7.44594C6.83249 10.0877 6.83486 12.7261 8.52577 15.3611C8.9426 16.0144 8.82929 16.75 8.24451 17.1361C7.65974 17.5222 6.95255 17.3505 6.50436 16.7063C5.42838 15.1431 4.85049 13.2886 4.84717 11.3883Z" fill="white"/>
<path d="M23.3283 11.4563C23.327 13.3317 22.7532 15.1615 21.6842 16.6992C21.232 17.3627 20.5046 17.5314 19.9167 17.1209C19.3451 16.7216 19.25 16.0032 19.6719 15.3397C21.3386 12.7122 21.3386 10.0836 19.6719 7.45409C19.251 6.79161 19.3451 6.07326 19.9188 5.67496C20.5137 5.26244 21.2279 5.42704 21.6842 6.09358C22.773 7.66656 23.3476 9.54075 23.3283 11.4563Z" fill="white"/>
</svg>
