<svg width="24" height="21" viewBox="0 0 24 21" fill="none" xmlns="http://www.w3.org/2000/svg">
<path d="M10.9858 1.54854L10.1423 0.750431C9.90125 0.522399 9.53975 0.522399 9.29874 0.750431L3.99665 5.76714L1.86778 3.75285C1.62678 3.52482 1.26527 3.52482 1.02427 3.75285L0.180753 4.55097C-0.0602511 4.779 -0.0602511 5.12105 0.180753 5.34908L3.15314 8.16148C3.39414 8.38951 3.71548 8.50353 3.99665 8.50353C4.31799 8.50353 4.59916 8.38951 4.84017 8.16148L10.9858 2.34666C11.1866 2.15663 11.1866 1.77658 10.9858 1.54854ZM23.1967 6.98331H12.7531C12.3113 6.98331 11.9498 6.64126 11.9498 6.2232V4.70299C11.9498 4.28493 12.3113 3.94288 12.7531 3.94288H23.1967C23.6385 3.94288 24 4.28493 24 4.70299V6.2232C24 6.64126 23.6385 6.98331 23.1967 6.98331ZM23.1967 13.8243H10.3431C9.90125 13.8243 9.53975 13.4822 9.53975 13.0642V11.544C9.53975 11.1259 9.90125 10.7838 10.3431 10.7838H23.1967C23.6385 10.7838 24 11.1259 24 11.544V13.0642C24 13.4822 23.6385 13.8243 23.1967 13.8243ZM5.52301 13.8243H3.91632C3.47448 13.8243 3.11297 13.4822 3.11297 13.0642V11.544C3.11297 11.1259 3.47448 10.7838 3.91632 10.7838H5.52301C5.96485 10.7838 6.32636 11.1259 6.32636 11.544V13.0642C6.32636 13.4822 5.96485 13.8243 5.52301 13.8243ZM5.52301 20.6652H3.91632C3.47448 20.6652 3.11297 20.3232 3.11297 19.9051V18.3849C3.11297 17.9669 3.47448 17.6248 3.91632 17.6248H5.52301C5.96485 17.6248 6.32636 17.9669 6.32636 18.3849V19.9051C6.32636 20.3232 5.96485 20.6652 5.52301 20.6652ZM23.1967 20.6652H10.3431C9.90125 20.6652 9.53975 20.3232 9.53975 19.9051V18.3849C9.53975 17.9669 9.90125 17.6248 10.3431 17.6248H23.1967C23.6385 17.6248 24 17.9669 24 18.3849V19.9051C24 20.3232 23.6385 20.6652 23.1967 20.6652Z" fill="white"/>
</svg>
