<svg width="18" height="23" viewBox="0 0 18 23" fill="none" xmlns="http://www.w3.org/2000/svg">
<g clip-path="url(#clip0_135_2524)">
<path d="M17.7644 8.4649L15.5628 6.23729L10.2501 0.856239L9.66034 0.258963C9.57506 0.175986 9.47265 0.109798 9.35919 0.0643494C9.24574 0.0189006 9.12358 -0.00487744 9.00001 -0.00556512C8.87625 -0.00593502 8.75375 0.0173641 8.64013 0.0628775C8.52652 0.108391 8.42424 0.175141 8.33968 0.258963L7.75138 0.856239L2.5813 6.10503L0.235623 8.48717C0.119817 8.60586 0.0428017 8.75267 0.0135702 8.91045C-0.0156613 9.06822 0.00409876 9.23046 0.0705422 9.37821C0.140893 9.52307 0.254735 9.64607 0.398454 9.73248C0.542172 9.8189 0.709681 9.86508 0.880946 9.8655H2.5813H3.71736V15.5542C3.71636 15.6624 3.73858 15.7696 3.78273 15.8697C3.82687 15.9698 3.89205 16.0607 3.97448 16.1371C4.0569 16.2136 4.1549 16.2741 4.26278 16.315C4.37066 16.356 4.48625 16.3766 4.60281 16.3757H13.4422C13.677 16.3712 13.901 16.2836 14.0684 16.1309C14.2358 15.9782 14.3339 15.7719 14.3427 15.5542V9.84323H17.1221C17.2933 9.8428 17.4608 9.79662 17.6046 9.71021C17.7483 9.62379 17.8621 9.5008 17.9325 9.35594C17.9996 9.20812 18.0195 9.04549 17.9897 8.88748C17.9599 8.72947 17.8817 8.58277 17.7644 8.4649Z" fill="white"/>
<path d="M13.3972 18.155H4.55778C4.44122 18.154 4.32563 18.1747 4.21775 18.2156C4.10987 18.2566 4.01187 18.317 3.92944 18.3935C3.84702 18.47 3.78184 18.5609 3.7377 18.661C3.69355 18.761 3.67133 18.8683 3.67233 18.9764C3.67133 19.0845 3.69355 19.1918 3.7377 19.2918C3.78184 19.3919 3.84702 19.4828 3.92944 19.5593C4.01187 19.6358 4.10987 19.6962 4.21775 19.7372C4.32563 19.7781 4.44122 19.7988 4.55778 19.7978H13.4122C13.5276 19.7973 13.6418 19.7756 13.7481 19.7339C13.8544 19.6923 13.9508 19.6315 14.0317 19.5552C14.1126 19.4788 14.1764 19.3884 14.2195 19.289C14.2626 19.1897 14.284 19.0835 14.2826 18.9764C14.2836 18.8683 14.2614 18.761 14.2173 18.661C14.1731 18.5609 14.108 18.47 14.0255 18.3935C13.9431 18.317 13.8451 18.2566 13.7372 18.2156C13.6293 18.1747 13.5138 18.154 13.3972 18.155Z" fill="white"/>
<path d="M11.6413 21.3571H6.32865C6.21209 21.3562 6.09651 21.3768 5.98863 21.4178C5.88075 21.4587 5.78274 21.5192 5.70032 21.5957C5.6179 21.6721 5.55271 21.7631 5.50857 21.8631C5.46443 21.9632 5.44221 22.0704 5.44321 22.1786C5.44221 22.2867 5.46443 22.3939 5.50857 22.494C5.55271 22.5941 5.6179 22.685 5.70032 22.7615C5.78274 22.8379 5.88075 22.8984 5.98863 22.9394C6.09651 22.9803 6.21209 23.0009 6.32865 23H11.6413C11.876 22.9996 12.101 22.913 12.267 22.759C12.4329 22.605 12.5264 22.3963 12.5268 22.1786C12.5278 22.0704 12.5055 21.9632 12.4614 21.8631C12.4172 21.7631 12.3521 21.6721 12.2696 21.5957C12.1872 21.5192 12.0892 21.4587 11.9813 21.4178C11.8735 21.3768 11.7579 21.3562 11.6413 21.3571Z" fill="white"/>
</g>
<defs>
<clipPath id="clip0_135_2524">
<rect width="18" height="23" fill="white"/>
</clipPath>
</defs>
</svg>
