<svg width="295" height="75" viewBox="0 0 295 75" fill="none" xmlns="http://www.w3.org/2000/svg">
<g clip-path="url(#clip0_135_2441)">
<path d="M38.1578 55.864C35.877 58.8635 32.3972 60.9257 27.7184 62.0505L26.9804 74.9972H16.3569L15.0638 73.5912L15.7103 62.6157C11.5818 62.177 7.50067 61.3605 3.51672 60.1763L6.00889 45.0728L7.58035 43.8538C9.97976 45.7902 12.6196 47.3974 15.432 48.6343C18.2629 49.8856 20.6028 50.5108 22.4516 50.5099C23.9285 50.5099 24.6669 50.0094 24.6669 49.0083C24.6669 48.2584 24.2515 47.6491 23.4208 47.1804C22.5901 46.7118 21.1275 46.0706 19.0332 45.257C16.2641 44.2578 13.9238 43.2267 12.0122 42.1638C10.1007 41.1008 8.43922 39.5542 7.02792 37.5239C5.612 35.4936 4.90403 32.9159 4.90403 29.7908C4.90403 25.9139 6.07397 22.5212 8.41384 19.6126C10.7537 16.704 14.0484 14.6887 18.298 13.5667L18.9446 0.995453H29.2912L30.8613 2.40147L30.3075 12.8145C33.8696 13.1534 37.3764 13.9412 40.7469 15.1597L38.2547 29.6066L35.8539 30.2632C33.7557 28.8558 31.5089 27.6914 29.1556 26.7917C26.848 25.9172 25.0481 25.4794 23.7559 25.4785C22.4636 25.4776 21.8175 25.8839 21.8175 26.6975C21.8175 27.5111 22.2643 28.1673 23.1577 28.666C24.0512 29.1646 25.5447 29.8208 27.6381 30.6344C30.4071 31.6355 32.7318 32.6516 34.612 33.6826C36.4922 34.7137 38.1241 36.2135 39.5077 38.1819C40.8922 40.1503 41.5845 42.6676 41.5845 45.7337C41.578 49.4859 40.4358 52.8626 38.1578 55.864Z" fill="black"/>
<path d="M84.1244 61.6807L79.4086 43.3111H78.481L74.1515 61.6807H57.6867L45.9375 10.8896H60.9334L61.706 18.7409L66.5768 45.901H67.5044L73.3014 22.7438L70.6708 10.8896H86.287L87.3683 20.31L92.6296 45.8996H93.5572L99.6644 19.6815L101.056 10.8882H115.279L100.514 61.6793L84.1244 61.6807Z" fill="black"/>
<path d="M165.288 61.6807H149.751L150.524 46.7657L150.448 42.8401L142.099 42.6826L134.909 42.9188L134.831 45.1951L135.45 61.6807H119.913L120.686 46.7657L119.913 10.8896H135.683L135.219 30.1226L143.027 30.2801L150.137 30.1226L149.751 10.8896H165.521L164.671 45.1965L165.288 61.6807Z" fill="black"/>
<path d="M202.239 61.6807L200.848 53.2798L200.77 53.045L193.194 52.8875L186.855 53.2024L185.541 61.6807H170.391L185.541 10.8896H204.249L217.933 61.6807H202.239ZM195.049 24.9414H194.121L189.793 41.5845L194.121 41.6618L198.451 41.5845L195.049 24.9414Z" fill="black"/>
<path d="M252.716 61.6807H222.956L223.728 46.7657L222.956 10.8896H238.724L237.874 45.1965L238.032 48.8044H252.797L253.647 49.9039L252.716 61.6807Z" fill="black"/>
<path d="M294.459 50.2189L293.531 61.6807H258.282L259.055 46.7657L258.282 10.8896H294.15L295 11.9891L293.995 23.4496L281.704 22.9786H273.742L273.587 30.1226H281.24L289.279 29.8878L290.129 30.9859L289.202 42.4478L280.235 42.2116H273.278L273.2 45.1951L273.356 49.5904H280.777L293.609 49.1194L294.459 50.2189Z" fill="black"/>
<path d="M35.1117 55.3002C32.831 58.2997 29.3512 60.3619 24.6724 61.4867L23.9344 74.4334H13.3109L12.0177 73.0274L12.6643 62.0519C8.53576 61.6132 4.45465 60.7967 0.470703 59.6125L2.96287 44.509L4.53433 43.29C6.93374 45.2263 9.57362 46.8336 12.386 48.0705C15.2169 49.3218 17.5568 49.947 19.4056 49.9461C20.8824 49.9461 21.6209 49.446 21.6209 48.4459C21.6209 47.696 21.2055 47.0867 20.3748 46.618C19.5441 46.1494 18.0815 45.5087 15.9872 44.696C13.2181 43.6968 10.8778 42.6657 8.96622 41.6028C7.05464 40.5398 5.3932 38.9932 3.9819 36.9629C2.56598 34.9326 1.85801 32.3549 1.85801 29.2298C1.85801 25.3538 3.02795 21.9611 5.36782 19.0516C7.70768 16.1421 11.0024 14.1268 15.252 13.0057L15.8986 0.434448H26.2452L27.8153 1.84047L27.2614 12.2535C30.8236 12.5924 34.3303 13.3802 37.7008 14.5987L35.2087 29.0456L32.8079 29.7022C30.7097 28.2948 28.4629 27.1304 26.1095 26.2307C23.802 25.3562 22.0021 24.9184 20.7099 24.9175C19.4176 24.9166 18.7715 25.3229 18.7715 26.1365C18.7715 26.9501 19.2182 27.6063 20.1117 28.105C21.0052 28.6036 22.4986 29.2598 24.5921 30.0734C27.3611 31.0745 29.6858 32.0906 31.566 33.1216C33.4462 34.1527 35.0781 35.6525 36.4617 37.6209C37.8462 39.5893 38.5385 42.1066 38.5385 45.1727C38.532 48.922 37.3898 52.2979 35.1117 55.3002Z" fill="white"/>
<path d="M24.3263 74.8594H13.1309L11.5927 73.1848L12.2254 62.4302C8.20697 61.979 4.23491 61.1726 0.354449 60.0202L0 59.9148L2.58214 44.2784L4.53989 42.7585L4.79324 42.9624C7.16363 44.8751 9.77021 46.4647 12.5466 47.6908C15.3157 48.9113 17.6168 49.5313 19.4015 49.5313C21.1861 49.5313 21.2014 48.7468 21.2014 48.4529C21.2014 47.861 20.8622 47.3843 20.1671 46.9921C19.3613 46.5379 17.9034 45.8982 15.8321 45.0939C13.0631 44.0942 10.6775 43.0425 8.76134 41.974C6.80499 40.8857 5.07986 39.28 3.63856 37.2047C2.19726 35.1294 1.43852 32.4243 1.43852 29.2213C1.43852 25.2606 2.65137 21.7469 5.03831 18.776C7.36848 15.8796 10.6678 13.824 14.845 12.664L15.4957 0H26.3934L28.232 1.64785L27.6893 11.8612C31.1479 12.2264 34.5514 13.008 37.8282 14.1896L38.1605 14.3077L35.5604 29.3718L32.7235 30.1465L32.567 30.0425C30.4941 28.654 28.2753 27.5042 25.9517 26.6146C23.6991 25.7611 21.9296 25.3281 20.6905 25.3281C19.1675 25.3281 19.1675 25.9073 19.1675 26.1253C19.1675 26.7791 19.5358 27.3035 20.2917 27.7267C21.1626 28.216 22.6455 28.8698 24.7223 29.6713C27.4913 30.6724 29.8575 31.7072 31.746 32.7434C33.6719 33.8022 35.3652 35.3586 36.7815 37.372C38.1979 39.3855 38.9373 42.0288 38.9373 45.1684C38.9591 48.9342 37.7238 52.5963 35.433 55.5575C33.1541 58.5594 29.6664 60.667 25.0628 61.8284L24.3263 74.8594ZM13.4909 74.0158H23.5412L24.2764 61.1535L24.5769 61.0818C29.1458 59.9837 32.5739 57.952 34.7823 55.0359C36.9597 52.2213 38.134 48.7406 38.1135 45.1614C38.1135 42.2017 37.4406 39.7426 36.1128 37.8501C34.7712 35.9421 33.1707 34.4756 31.3569 33.4731C29.5058 32.4566 27.1798 31.44 24.4343 30.4502C22.3215 29.6319 20.7957 28.9598 19.8916 28.4522C18.8615 27.8758 18.3382 27.0884 18.3382 26.1126C18.3382 25.3646 18.7466 24.4718 20.6919 24.4718C22.0473 24.4718 23.8625 24.9105 26.2411 25.8117C28.5645 26.7003 30.7855 27.8436 32.8647 29.2213L34.8321 28.6842L37.2191 14.856C33.9852 13.7231 30.629 12.9891 27.2227 12.6697L26.8226 12.6331L27.3875 2.01764L26.086 0.850633H16.2918L15.6494 13.3305L15.3559 13.4078C11.2119 14.5059 7.9597 16.5011 5.68768 19.3131C3.41566 22.1252 2.27201 25.463 2.27201 29.2242C2.27201 32.2499 2.96428 34.7723 4.31974 36.7197C5.69181 38.6881 7.32418 40.2108 9.16561 41.2372C11.0444 42.2847 13.3857 43.3167 16.1257 44.3051C18.2717 45.1389 19.7254 45.7758 20.5769 46.2567C21.5461 46.8036 22.0376 47.5432 22.0376 48.4557C22.0376 49.3317 21.5807 50.3777 19.407 50.3777C17.5088 50.3777 15.09 49.7352 12.2213 48.467C9.47588 47.2554 6.89218 45.6964 4.53158 43.8271L3.3478 44.7466L0.94149 59.3144C4.79023 60.4347 8.72808 61.211 12.71 61.6344L13.1046 61.6765L12.4456 72.8741L13.4909 74.0158Z" fill="black"/>
<path d="M81.0783 61.1169L76.3626 42.7473H75.435L71.1055 61.1169H54.6407L42.8915 10.3258H57.8874L58.6599 18.177L63.5307 45.3372H64.4584L70.2554 22.18L67.6248 10.3258H83.241L84.3223 19.7462L89.5835 45.3357H90.5112L96.6183 19.1177L98.0098 10.3244H112.233L97.4685 61.1155L81.0783 61.1169Z" fill="white"/>
<path d="M97.7786 61.5388H80.7599L76.0414 43.1691H75.7645L71.4364 61.5388H54.3139L42.3695 9.90402H58.2653L59.0753 18.118L63.8796 44.9154H64.1372L69.8317 22.1744L67.1111 9.90402H83.6148L84.7376 19.6787L89.9213 44.9154H90.183L96.2099 19.0361L97.6553 9.897H112.788L97.7786 61.5388ZM81.4009 60.6951H97.1583L111.677 10.7476H98.3628L97.0226 19.2161L90.8393 45.759H89.2457L83.9138 19.7954L82.8754 10.7476H68.1495L70.686 22.1856L70.6611 22.284L64.7837 45.7646H63.186L58.2501 18.2235L57.5149 10.7533H43.4176L54.9729 60.7008H70.7801L75.1082 42.3311H76.6852L81.4009 60.6951Z" fill="black"/>
<path d="M162.243 61.1169H146.705L147.478 46.2005L147.402 42.2762L139.053 42.1188L131.863 42.355L131.786 44.6313L132.404 61.1169H116.867L117.64 46.2005L116.867 10.3258H132.637L132.173 29.5588L139.981 29.7163L147.092 29.5588L146.705 10.3258H162.475L161.625 44.6327L162.243 61.1169Z" fill="white"/>
<path d="M162.675 61.5388H146.268L147.063 46.1948L146.993 42.6896L139.056 42.5406L132.265 42.7642L132.202 44.63L132.836 61.5388H116.43L117.224 46.1948L116.442 9.90402H133.057L132.593 29.1454L139.974 29.2945L146.662 29.1539L146.276 9.91106H162.891L162.031 44.6398L162.675 61.5388ZM147.143 60.6951H161.819L161.215 44.6342V44.6201L162.054 10.7476H147.135L147.521 29.9722L139.986 30.1381H139.978L131.752 29.9722L132.216 10.7476H117.298L118.061 46.2075L117.31 60.6895H131.986L131.383 44.6257L131.474 41.9402L139.063 41.6914L147.821 41.8559L147.906 46.2019V46.2173L147.143 60.6951Z" fill="black"/>
<path d="M199.193 61.1169L197.801 52.7174L197.724 52.4812L190.148 52.3237L183.809 52.6386L182.495 61.1169H167.344L182.495 10.3258H201.203L214.887 61.1169H199.193ZM192.003 24.3776H191.075L186.747 41.0207L191.075 41.098L195.405 41.0207L192.003 24.3776Z" fill="white"/>
<path d="M215.429 61.5388H198.841L197.41 52.8959L190.155 52.7469L184.168 53.0422L182.851 61.5388H166.791L182.192 9.90402H201.524L215.429 61.5388ZM199.545 60.6951H214.34L200.885 10.7476H182.804L167.904 60.6951H182.141L183.452 52.2337L190.142 51.9019H190.157L198.026 52.065L198.211 52.6471L199.545 60.6951ZM191.075 41.5198L186.21 41.4326L190.756 23.9558H192.342L195.913 41.4326L191.075 41.5198ZM187.283 40.6073L191.075 40.6762L194.897 40.6073L191.665 24.7994H191.388L187.283 40.6073Z" fill="black"/>
<path d="M249.67 61.1169H219.91L220.682 46.2005L219.91 10.3258H235.678L234.828 44.6327L234.986 48.242H249.751L250.601 49.3415L249.67 61.1169Z" fill="white"/>
<path d="M250.054 61.5388H219.471L220.267 46.1948L219.479 9.90402H236.094L235.232 44.6328L235.371 47.8258H249.94L251.015 49.2164L250.054 61.5388ZM220.347 60.6951H249.284L250.167 49.4723L249.543 48.6638H234.59L234.417 44.6356V44.6201L235.257 10.7476H220.333L221.098 46.2075V46.223L220.347 60.6951Z" fill="black"/>
<path d="M291.413 49.6551L290.485 61.1169H255.236L256.009 46.2005L255.236 10.3258H291.104L291.954 11.4253L290.949 22.8858L278.658 22.4148H270.696L270.541 29.5588H278.195L286.233 29.324L287.083 30.4221L286.156 41.884L277.189 41.6478H270.232L270.155 44.6313L270.31 49.0266H277.731L290.563 48.5555L291.413 49.6551Z" fill="white"/>
<path d="M290.867 61.5388H254.797L255.593 46.1948L254.811 9.90402H291.305L292.382 11.296L291.327 23.3231L278.65 22.8366H271.102L270.963 29.137H278.192L286.428 28.8952L287.508 30.2913L286.539 42.3156L277.18 42.0696H270.638L270.571 44.6286L270.71 48.6048H277.722L290.758 48.1267L291.839 49.5243L290.867 61.5388ZM255.674 60.6951H290.101L290.985 49.7858L290.366 48.9858L277.731 49.4484H269.908L269.739 44.6328L269.828 41.226H277.189L285.773 41.4523L286.655 30.5529L286.035 29.7514L278.204 29.9806H270.116L270.287 21.993H278.672L290.568 22.4486L291.523 11.5533L290.9 10.7462H255.66L256.424 46.2061L255.674 60.6951Z" fill="black"/>
</g>
<defs>
<clipPath id="clip0_135_2441">
<rect width="295" height="75" fill="white"/>
</clipPath>
</defs>
</svg>
