<svg width="34" height="34" viewBox="0 0 34 34" fill="none" xmlns="http://www.w3.org/2000/svg">
<path d="M17 30.9774C24.7195 30.9774 30.9774 24.7195 30.9774 17C30.9774 9.28048 24.7195 3.02258 17 3.02258C9.28048 3.02258 3.02258 9.28048 3.02258 17C3.02258 24.7195 9.28048 30.9774 17 30.9774Z" fill="#01198D"/>
<path d="M29.6083 17C29.6083 17.1677 29.6049 17.3355 29.5981 17.5021C29.5675 18.2807 29.4666 19.0423 29.3012 19.7778C29.1119 20.621 28.8376 21.4325 28.4886 22.202C28.254 22.7177 27.9865 23.2152 27.6884 23.6912C27.5275 23.9485 27.3564 24.1989 27.1784 24.4437C24.8846 27.5751 21.1797 29.6083 17.0011 29.6083C12.6162 29.6083 8.75383 27.37 6.49509 23.9723C6.28316 23.6538 6.08483 23.324 5.90236 22.9863V22.9851C5.82756 22.8469 5.75616 22.7075 5.68589 22.5669C5.46036 22.1102 5.26316 21.6387 5.09316 21.1537C5.02063 20.9474 4.95376 20.7377 4.89256 20.5258C4.56729 19.4072 4.39276 18.224 4.39276 17C4.39276 15.9233 4.52763 14.8773 4.78149 13.8799C4.86083 13.5671 4.95263 13.2589 5.05463 12.9551C6.73876 7.97526 11.4512 4.39166 17 4.39166C17.3524 4.39166 17.7026 4.4064 18.0472 4.43473C18.3974 4.46306 18.743 4.50613 19.0842 4.5628C19.1148 4.56733 19.1454 4.573 19.176 4.57866C20.9825 4.8926 22.6564 5.59186 24.1116 6.58693C24.1343 6.6028 24.157 6.61866 24.1796 6.6334C26.0972 7.96393 27.6272 9.8124 28.5679 11.9771C28.5702 11.9816 28.5724 11.9873 28.5747 11.9918C29.24 13.5275 29.6083 15.2207 29.6083 17Z" fill="#0294EB"/>
<path d="M5.72443 22.9784C5.72443 22.9897 6.22423 24.2409 6.22423 24.2409L6.98923 24.4449L9.22077 25.5929L10.2317 25.9783H11.45L11.7628 25.8332L11.6563 25.6598L10.2034 25.1736L7.94123 23.9779L6.20383 22.9342L5.61677 22.3698L5.48303 22.4649L5.6009 22.9625L5.72443 22.9784Z" fill="#01198D"/>
<path d="M18.0472 4.4336L5.05353 12.9551C6.73879 7.97526 11.4512 4.39166 17 4.39166C17.3525 4.39166 17.7027 4.40526 18.0472 4.4336Z" fill="#0182E4"/>
<path d="M24.1116 6.58694L4.8903 20.5269C4.56504 19.4083 4.3905 18.2251 4.3905 17.0011C4.3905 15.9245 4.52537 14.8784 4.77924 13.8811L19.0853 4.56281C19.1159 4.56734 19.1465 4.57301 19.1771 4.57867C20.9825 4.89261 22.6564 5.59074 24.1116 6.58694Z" fill="#0182E4"/>
<path d="M29.6083 17C29.6083 17.1677 29.6049 17.3355 29.5981 17.5021L19.669 24.7894L17.7083 20.1631L28.5747 11.9929C29.24 13.5275 29.6083 15.2207 29.6083 17Z" fill="#0182E4"/>
<path d="M28.2189 22.9522C28.22 22.9522 28.22 22.9511 28.2211 22.9511C28.2211 22.9511 28.2211 22.95 28.2223 22.95L28.2189 22.9522ZM24.8755 25.7822C25.4127 25.5283 25.9239 25.2291 26.4055 24.8823C26.6685 24.693 26.9371 24.5128 27.1683 24.2816C27.3541 24.0958 27.5264 23.8974 27.6885 23.6912C27.9865 23.2152 28.2551 22.7176 28.4886 22.202C28.1259 22.7018 27.6896 23.1302 27.2079 23.5144C27.0946 23.605 26.979 23.6912 26.8634 23.7796C26.826 23.8079 26.7875 23.8351 26.7433 23.851C26.6991 23.9224 26.6186 23.9473 26.5585 23.9983C26.5177 24.0334 26.4645 24.0538 26.4305 24.0992C26.4769 24.2329 26.4679 24.2658 26.3489 24.3428C25.9862 24.5763 25.6145 24.7916 25.2371 25.0002C24.8676 25.2042 24.4981 25.4093 24.1253 25.6065C23.6504 25.8581 23.171 26.1006 22.6689 26.2933C22.0807 26.5188 21.4733 26.6684 20.8488 26.7455C20.7343 26.7591 20.6199 26.7659 20.5043 26.7682C19.771 26.7863 19.0377 26.7727 18.3045 26.7727C18.1333 26.7727 17.9633 26.7852 17.7933 26.7965C17.4307 26.8214 17.0691 26.7772 16.7076 26.7659C16.6906 26.7648 16.6736 26.7636 16.6566 26.7602C16.6305 26.7546 16.6067 26.7444 16.6033 26.7149C16.5999 26.6854 16.6169 26.6662 16.6407 26.6537C16.6861 26.6299 16.7359 26.6152 16.7869 26.6084C17.1417 26.5585 17.4193 26.367 17.6732 26.1324C17.8602 25.9601 18.0121 25.7629 18.1209 25.5306C18.173 25.4206 18.1923 25.3232 18.105 25.2234C18.0891 25.2053 18.0869 25.177 18.0778 25.1532C17.9543 25.1464 17.8455 25.194 17.7367 25.2416C17.5134 25.339 17.3151 25.4762 17.1213 25.6212C16.9819 25.7255 16.8459 25.8343 16.7087 25.9397C16.6215 26.0066 16.5319 26.0723 16.4265 26.1097C16.4209 26.2015 16.354 26.2423 16.2815 26.2695C16.0333 26.3624 15.7805 26.3568 15.5267 26.3012C15.4791 26.291 15.4349 26.2706 15.4337 26.2117C15.4326 26.1528 15.4768 26.1346 15.5221 26.1176C15.7987 26.0145 16.0355 25.8524 16.2395 25.6416C16.4197 25.4558 16.5297 25.2438 16.4911 24.9752C16.3903 24.9605 16.2962 24.9888 16.2067 25.0296C16.0446 25.1056 15.8825 25.1815 15.7239 25.2642C15.3181 25.4728 14.892 25.6156 14.4387 25.6711C14.0737 25.7153 13.7088 25.7198 13.3416 25.6938C12.6888 25.6473 12.0485 25.5294 11.4161 25.3708C10.9695 25.2586 10.5309 25.118 10.1014 24.9537C9.92573 24.8868 9.75573 24.8109 9.5948 24.7134C9.5064 24.6942 9.4248 24.659 9.34433 24.6205C8.90233 24.4165 8.48187 24.174 8.07387 23.9099C7.05953 23.256 6.18007 22.4513 5.4026 21.5299C5.2972 21.4052 5.202 21.2738 5.0932 21.1514C5.26207 21.6364 5.4604 22.109 5.68593 22.5646C5.8548 22.7686 6.02367 22.9715 6.24013 23.1313C6.4464 23.2832 6.6538 23.4294 6.87593 23.5574C6.94167 23.5948 7.00173 23.6458 7.06067 23.6946C7.20687 23.8136 7.36327 23.9167 7.52873 24.004C7.78147 24.1366 8.0274 24.2816 8.26427 24.4414C8.51927 24.6137 8.79353 24.7508 9.07233 24.88C9.19587 24.9378 9.32167 24.99 9.4452 25.0478C10.0583 25.3356 10.7032 25.5181 11.3639 25.6586C11.4433 25.6756 11.5203 25.6972 11.5985 25.7187C11.6291 25.7266 11.645 25.7425 11.6155 25.772C11.5804 25.8694 11.5045 25.8796 11.4172 25.8672C10.9231 25.7969 10.4312 25.7176 9.9518 25.5702C9.39987 25.4014 8.86267 25.1951 8.3402 24.9537C7.70667 24.6613 7.08333 24.3496 6.49513 23.9722C8.75387 27.3688 12.6163 29.6083 17.0011 29.6083C21.1809 29.6083 24.8846 27.5751 27.1785 24.4437C26.9155 24.6522 26.6367 24.8392 26.3568 25.024C25.9397 25.2982 25.4989 25.5328 25.0512 25.7538C24.9911 25.7833 24.9322 25.8184 24.8642 25.8184C24.8529 25.7958 24.8653 25.7878 24.8755 25.7822ZM19.8741 27.3303C19.9161 27.3269 19.9591 27.3269 20.0022 27.328C20.7241 27.3416 21.4019 27.149 22.066 26.8917C22.3289 26.7897 22.5896 26.6843 22.8593 26.6038C23.1427 26.52 23.4045 26.3851 23.6753 26.2706C23.7127 26.2548 23.7479 26.2264 23.8193 26.2332C23.4985 26.3862 23.2027 26.5347 22.8865 26.6344C22.695 26.6956 22.5091 26.767 22.3244 26.8475C22.0626 26.962 21.8042 27.0844 21.5356 27.183C21.2149 27.302 20.8771 27.362 20.5349 27.3779C20.3218 27.387 20.1087 27.3768 19.8957 27.3745C19.8673 27.3745 19.8356 27.3779 19.8107 27.353C19.8243 27.3201 19.8526 27.3314 19.8741 27.3303ZM11.5101 26.3262C11.5351 26.3216 11.5611 26.325 11.5861 26.3284C11.8626 26.3749 12.1437 26.3919 12.4191 26.4531C12.716 26.5188 13.0197 26.5268 13.3212 26.5381C13.7315 26.554 14.1395 26.5245 14.5463 26.478C14.6903 26.461 14.8353 26.4588 14.9804 26.469C15.2297 26.4871 15.4496 26.5846 15.6649 26.7002C15.9505 26.8532 16.2429 26.9914 16.5501 27.1002C16.6555 27.1376 16.762 27.1648 16.8719 27.1784C16.9989 27.1943 17.1247 27.2181 17.2482 27.2487C17.2913 27.26 17.3321 27.2714 17.3321 27.3269C17.3343 27.3348 17.3377 27.3428 17.3389 27.3518C17.3536 27.4935 17.3049 27.5456 17.1666 27.5241C16.9728 27.4946 16.7779 27.4686 16.5863 27.4266C16.0355 27.3088 15.4791 27.2283 14.9192 27.1716C14.2494 27.1036 13.5819 27.013 12.92 26.8883C12.495 26.8078 12.0813 26.6956 11.6711 26.5653C11.5747 26.5347 11.4977 26.4894 11.4954 26.3749C11.4875 26.3556 11.4795 26.3318 11.5101 26.3262ZM25.0195 26.1018C25.058 26.0836 25.0954 26.0621 25.1385 26.0576C25.2212 26.0485 25.2665 26.1108 25.2325 26.1879C25.2087 26.2412 25.16 26.2706 25.1147 26.3012C24.7679 26.5415 24.4097 26.7648 24.0493 26.9858C23.3081 27.4425 22.5431 27.855 21.7815 28.2755C21.4087 28.4806 21.0256 28.6699 20.6278 28.8263C20.2583 28.9714 19.8798 29.053 19.4809 29.0564C19.1431 29.0586 18.8077 29.0314 18.4711 29.019C17.9339 28.9997 17.408 29.0779 16.8844 29.1776C16.0786 29.3295 15.283 29.3182 14.4999 29.0405C14.2177 28.9408 13.9423 28.8263 13.6725 28.6994C13.0447 28.4013 12.41 28.1168 11.7742 27.8369C11.2041 27.5864 10.6375 27.328 10.098 27.0164C9.81353 26.852 9.54153 26.6684 9.27067 26.4814C9.20153 26.4338 9.1664 26.3704 9.1732 26.2865C9.14033 26.2389 9.06553 26.2355 9.04287 26.163C9.10973 26.1562 9.15847 26.1879 9.20607 26.2083C9.6934 26.4225 10.1807 26.6378 10.6681 26.8532C11.1905 27.0844 11.7379 27.2226 12.3057 27.2793C12.7523 27.3246 13.1999 27.3031 13.6465 27.3303C13.804 27.3405 13.9615 27.3462 14.1179 27.3609C14.2891 27.3768 14.4489 27.4278 14.5951 27.5264C14.6857 27.5864 14.7877 27.6318 14.8931 27.6669C15.0677 27.7236 15.2241 27.8233 15.3861 27.906C15.4337 27.9015 15.4791 27.9083 15.5244 27.9219C15.7556 27.9933 15.9891 28.0522 16.2259 28.0998C16.2758 28.11 16.3279 28.1191 16.3506 28.1746C16.6226 28.1814 16.8946 28.1894 17.1666 28.1928C17.4329 28.1973 17.6925 28.152 17.9452 28.0704C18.1843 27.9933 18.4223 27.9151 18.6603 27.8346C18.7737 27.7961 18.8893 27.7666 19.0071 27.7485C19.2383 27.7122 19.4639 27.7258 19.686 27.8097C19.9342 27.9026 20.1892 27.9706 20.4589 27.9434C20.5813 27.931 20.7049 27.9253 20.8239 27.8856C20.8511 27.8392 20.8953 27.8154 20.9451 27.7972C21.2443 27.685 21.5333 27.5479 21.8291 27.4255C22.3029 27.2306 22.7732 27.03 23.2549 26.8554C23.8589 26.6378 24.4437 26.3806 25.0195 26.1018ZM5.53407 22.364L5.5352 22.3697C5.5352 22.3674 5.53633 22.3663 5.53633 22.364C5.5352 22.364 5.53407 22.364 5.53407 22.364Z" fill="#0245D7"/>
<path d="M29.3012 19.7778C29.1119 20.621 28.8377 21.4324 28.4886 22.202C28.1259 22.7018 27.6896 23.1302 27.2079 23.5144C27.0946 23.605 26.979 23.6912 26.8634 23.7796C26.826 23.8079 26.7875 23.8351 26.7433 23.851C26.4962 23.8748 26.2537 23.9156 26.0145 23.9813C25.5068 24.1184 25.0217 24.3179 24.5457 24.5389C24.5185 24.5514 24.4913 24.582 24.4551 24.5604C24.4539 24.5264 24.4789 24.514 24.497 24.497C24.8075 24.2034 25.0841 23.8793 25.3391 23.5359C25.4207 23.426 25.4932 23.3104 25.5351 23.1789C25.5839 23.027 25.5227 22.9375 25.3651 22.9284C25.3436 22.9273 25.3221 22.9273 25.3017 22.9262C25.3209 22.8706 25.3674 22.8389 25.4116 22.8049C25.6394 22.6258 25.8649 22.4434 26.0961 22.27C26.4951 21.9708 26.877 21.65 27.2759 21.352C27.8868 20.8952 28.4671 20.4 29.0893 19.9568C29.1629 19.9013 29.2321 19.8401 29.3012 19.7778Z" fill="#0182E4"/>
<path d="M11.6132 25.7731C11.4976 25.7402 11.3786 25.7289 11.2608 25.7142C10.9684 25.6779 10.6828 25.619 10.396 25.5464C10.0821 25.4671 9.77043 25.39 9.47236 25.2552C9.1437 25.1056 8.7901 25.0115 8.46823 24.8438C8.3617 24.7882 8.25743 24.7338 8.15883 24.6647C7.94236 24.5128 7.7123 24.3836 7.4709 24.2737C7.28276 24.1887 7.11503 24.0708 6.96769 23.928C6.85323 23.817 6.73196 23.7184 6.59256 23.6436C6.48603 23.5858 6.3965 23.5098 6.3183 23.4169C6.20836 23.2866 6.06216 23.1914 5.95563 23.0576C5.93636 23.0338 5.9171 23.01 5.89896 22.9862V22.9851C5.82416 22.8468 5.75276 22.7074 5.6825 22.5669C5.85136 22.7709 6.02023 22.9738 6.2367 23.1336C6.44296 23.2854 6.65036 23.4316 6.8725 23.5597C6.93823 23.5971 6.9983 23.6481 7.05723 23.6968C7.20343 23.8158 7.35983 23.919 7.5253 24.0062C7.77803 24.1388 8.02396 24.2839 8.26083 24.4437C8.51583 24.616 8.7901 24.7531 9.0689 24.8823C9.19243 24.9401 9.31823 24.9922 9.44176 25.05C10.0549 25.3379 10.6998 25.5204 11.3605 25.6609C11.4398 25.6779 11.5169 25.6994 11.5951 25.721C11.6268 25.7289 11.6427 25.7448 11.6132 25.7731Z" fill="#479EFF"/>
<path d="M27.6884 23.6912C27.5275 23.9484 27.3564 24.1989 27.1784 24.4437C26.9155 24.6522 26.6367 24.8392 26.3568 25.024C25.9397 25.2982 25.4988 25.5328 25.0512 25.7538C24.9911 25.7833 24.9322 25.8184 24.8642 25.8184C24.8528 25.7958 24.8653 25.7878 24.8755 25.7833C25.4127 25.5294 25.9238 25.2302 26.4055 24.8834C26.6684 24.6942 26.937 24.514 27.1682 24.2828C27.3552 24.0958 27.5264 23.8974 27.6884 23.6912Z" fill="#479EFF"/>
<path d="M26.7081 11.1191C26.6956 10.7395 26.6106 10.3757 26.4588 10.0289C26.4452 9.99828 26.4282 9.96768 26.4078 9.94048C26.376 9.89854 26.3307 9.88948 26.2808 9.90535C26.2378 9.92008 26.2253 9.95635 26.2242 9.99601C26.223 10.047 26.2264 10.098 26.2276 10.149C26.2378 10.4516 26.1879 10.7429 26.0723 11.0239C26.0666 11.0421 26.061 11.0602 26.0462 11.0715C26.0394 11.1599 25.9964 11.2336 25.9442 11.3005C25.772 11.5237 25.5521 11.6767 25.271 11.73C25.1622 11.7504 25.0534 11.7697 24.9435 11.7844C24.7826 11.8048 24.6273 11.8513 24.472 11.8943C24.353 11.9283 24.2612 12.0031 24.183 12.0949C24.1445 12.1403 24.106 12.1867 24.0652 12.2287C24.038 12.257 24.0051 12.2808 23.9654 12.2445C23.911 12.2547 23.8918 12.2967 23.8748 12.342C23.8612 12.3783 23.8498 12.4145 23.834 12.4485C23.8113 12.4961 23.7762 12.5075 23.7308 12.4757C23.7138 12.4633 23.698 12.4474 23.6798 12.4372C23.5189 12.3443 23.3523 12.2729 23.1596 12.3239C23.2027 12.3443 23.2492 12.3465 23.2956 12.3511C23.4237 12.3635 23.5314 12.4259 23.5903 12.5177C23.5688 12.5426 23.5438 12.5301 23.52 12.5245C23.1925 12.461 22.7766 12.58 22.5386 12.8112C22.432 12.9155 22.3176 13.0129 22.2314 13.1365C22.2144 13.1614 22.1918 13.1818 22.1612 13.1875C22.1124 13.209 22.0841 13.2509 22.0558 13.294C22.024 13.3405 21.99 13.3416 21.9549 13.2963C21.9447 13.2827 21.9334 13.2702 21.922 13.2577C21.7373 13.0628 21.4222 13.0095 21.1854 13.1308C21.1582 13.1444 21.1378 13.1648 21.123 13.1909C21.327 13.1886 21.3316 13.1897 21.4415 13.2498C21.437 13.2815 21.4098 13.2725 21.3928 13.2713C21.1842 13.26 21.012 13.3473 20.8578 13.4753C20.7207 13.5898 20.604 13.7235 20.5224 13.8867C20.4748 13.9819 20.4204 14.0726 20.3648 14.1621C20.3376 14.2052 20.3014 14.2256 20.2764 14.1553C20.2016 14.1055 20.1314 14.0465 20.0362 14.0431C20.0509 14.0794 20.0702 14.1202 20.0067 14.127C19.6225 14.1678 19.3868 14.4115 19.1986 14.7186C19.1828 14.7435 19.1726 14.7753 19.151 14.7934C19.1114 14.8263 19.091 14.8036 19.0876 14.7583C19.0864 14.6869 19.0479 14.637 18.9912 14.603C18.8416 14.5123 18.6841 14.4897 18.5175 14.5577C18.6161 14.5781 18.717 14.586 18.8122 14.6415C18.7487 14.6529 18.6852 14.6653 18.6206 14.6744C18.4336 14.6982 18.267 14.7707 18.1288 14.8977C17.9032 15.1039 17.646 15.2762 17.4465 15.5119C17.4204 15.5425 17.3944 15.5845 17.3411 15.5595C17.2731 15.5267 17.2538 15.4564 17.2232 15.3975C17.0408 15.0484 16.7688 14.8059 16.3891 14.6891C16.3404 14.6744 16.2916 14.6563 16.2395 14.6733C16.6464 14.8591 16.915 15.1719 17.0691 15.5856C17.0192 15.5788 17.0034 15.5369 16.9784 15.5051C16.728 15.181 16.4208 14.9317 16.0298 14.7945C15.9029 14.7503 15.7748 14.7265 15.64 14.739C15.4405 14.7571 15.2399 14.7662 15.0427 14.8036C15.0223 14.8104 15.003 14.8183 14.9826 14.824C14.7934 14.8716 14.7877 14.8671 14.7514 14.6744C14.7004 14.4035 14.5962 14.161 14.374 13.9831C14.2902 13.9343 14.2063 13.8879 14.1111 13.8641C14.0091 13.838 13.906 13.8131 13.804 13.8652C14.1394 13.8958 14.4182 14.1757 14.4885 14.5395C14.4511 14.5531 14.4488 14.518 14.4386 14.4999C14.3842 14.3911 14.3026 14.3027 14.2074 14.2324C14.008 14.0851 13.7904 14.025 13.549 14.1259C13.4515 14.1667 13.354 14.2097 13.2566 14.2517C13.2373 14.2596 13.2158 14.2698 13.1999 14.2471C13.1897 14.2324 13.1897 14.2143 13.1976 14.1984C13.2146 14.1644 13.2339 14.1304 13.2509 14.0975C13.2135 14.0295 13.1988 13.9547 13.1806 13.8799C13.1376 13.7099 13.0514 13.5649 12.9109 13.4595C12.7987 13.3756 12.6774 13.3031 12.5256 13.3439C12.7874 13.4776 12.9834 13.7077 12.9789 13.8765C12.9585 13.8765 12.9506 13.8595 12.9415 13.8459C12.8021 13.6057 12.5301 13.5229 12.266 13.5955C12.0688 13.6487 11.8796 13.7258 11.696 13.8165C11.654 13.8369 11.6121 13.8573 11.5679 13.8743C11.5271 13.8901 11.4829 13.9003 11.45 13.8607C11.4183 13.8221 11.4296 13.7813 11.4568 13.7439C11.4648 13.7337 11.4727 13.7247 11.4806 13.7145C11.4704 13.5184 11.4523 13.3257 11.3922 13.1365C11.3084 12.8735 10.974 12.6038 10.6329 12.6571C10.8845 12.7443 11.0466 12.9177 11.1225 13.1716C11.1361 13.2192 11.152 13.2657 11.1418 13.3189C11.1304 13.3121 11.1214 13.3099 11.118 13.3042C10.974 13.0152 10.7281 12.8781 10.404 12.9053C10.2929 12.9155 10.1875 12.9483 10.081 12.9801C9.97897 13.0107 9.87697 13.0424 9.77383 13.0651C9.6809 13.0855 9.65257 13.0628 9.62763 12.9699C9.59477 12.8509 9.56643 12.7307 9.53243 12.6117C9.48937 12.4621 9.41683 12.3284 9.29783 12.2241C9.18223 12.1221 9.05303 12.0553 8.8955 12.0553C8.81503 12.0553 8.73343 12.0507 8.65297 12.0485C8.4433 12.0451 8.25177 11.9782 8.0693 11.8807C8.02397 11.8569 7.98317 11.8263 7.9503 11.7855C7.9027 11.7549 7.8653 11.7141 7.84263 11.662C7.83357 11.6518 7.82563 11.6416 7.81657 11.6314L7.8177 11.6348C7.7531 11.5781 7.70437 11.509 7.66697 11.4331C7.5661 11.2325 7.4777 11.0262 7.40177 10.8154C7.37457 10.7395 7.35757 10.6613 7.35303 10.5797C7.2941 10.5989 7.2703 10.6499 7.2465 10.7009C7.12297 10.9684 7.0153 11.2415 6.96997 11.5362C6.9541 11.6371 6.8963 12.2638 6.9201 12.5562C6.9201 12.5562 6.9303 12.6843 6.94843 12.8067C6.9847 13.0673 7.0935 13.5547 7.3553 14.0817C7.6511 14.6767 8.04777 15.1935 8.53397 15.6468C9.01223 16.0922 9.54943 16.4503 10.1116 16.7756C10.1773 16.8141 10.4924 16.9977 10.5876 17.0465C11.3673 17.4522 12.1652 17.8205 12.9574 18.2013C13.388 18.4087 13.8108 18.6309 14.2063 18.9017C14.4375 19.0604 14.6392 19.2485 14.7979 19.4797C14.9724 19.7336 15.0393 20.0249 15.0642 20.3252C15.1016 20.7717 15.0994 21.2194 15.1186 21.6671C15.122 21.7521 15.1288 21.8371 15.1356 21.9221C15.1549 22.1555 15.1991 22.3867 15.1923 22.6225C15.2558 22.6168 15.3192 22.6111 15.3827 22.6043C15.6536 22.5771 15.8825 22.6689 16.082 22.848C16.1137 22.8763 16.1386 22.9115 16.1783 22.9296C16.1828 22.8401 16.1738 22.7517 16.1658 22.6621C16.1216 22.1487 16.0922 21.6353 16.125 21.1185C16.1477 20.7615 16.1636 20.4045 16.2032 20.0487C16.2667 19.4673 16.3642 18.8927 16.4798 18.3203C16.5138 18.156 16.55 17.9917 16.5886 17.8285C16.6577 17.5406 16.7325 17.2539 16.8096 16.9671C16.8481 16.8243 16.898 16.6872 16.9558 16.5523C16.9875 16.4798 17.0204 16.4084 17.0555 16.337C17.0918 16.2645 17.1235 16.1897 17.1586 16.1171C17.1677 16.0967 17.1847 16.0809 17.2085 16.0854C17.2323 16.0899 17.2414 16.1115 17.2425 16.1341C17.247 16.2497 17.2448 16.3642 17.2334 16.4787C17.2323 16.4877 17.2312 16.4968 17.2312 16.507C17.2153 16.6849 17.2176 16.8629 17.2221 17.0408L17.4057 17.5973C17.4329 17.3128 17.468 17.0295 17.5236 16.7507C17.5621 16.558 17.6097 16.3676 17.6698 16.1795C17.7162 16.0344 17.7604 15.8871 17.8432 15.7511C17.8885 15.7771 17.8738 15.8123 17.8681 15.8429C17.8398 15.9947 17.8239 16.1466 17.8296 16.3007C17.8398 16.5818 17.8874 16.7552 18.2886 16.847C18.5764 16.9127 18.8666 16.8776 19.1533 16.8277C19.5375 16.762 19.9058 16.6407 20.2685 16.4991C21.1106 16.1704 21.8937 15.7295 22.6542 15.2445C22.7426 15.1878 22.8355 15.1391 22.9341 15.1005C22.8729 15.164 22.814 15.2297 22.7516 15.2921C22.712 15.3317 22.6734 15.3714 22.6553 15.4258C22.6236 15.5165 22.6564 15.5765 22.7494 15.5981C22.8128 15.6117 22.8774 15.606 22.9398 15.5935C23.0418 15.5731 23.1438 15.5527 23.248 15.5403C23.1721 15.6139 23.078 15.6502 22.9851 15.6876C22.347 15.946 21.735 16.2565 21.1378 16.5965C20.6527 16.8731 20.1744 17.1632 19.7211 17.4907C19.3301 17.7741 18.9572 18.0789 18.6286 18.4337C18.3611 18.7238 18.1344 19.0434 17.9826 19.4095C17.859 19.7075 17.8364 20.0203 17.8692 20.3399C17.9134 20.7729 18.0347 21.1854 18.1934 21.5866C18.3282 21.9289 18.496 22.2553 18.6864 22.5692C18.7113 22.6089 18.7328 22.6508 18.7748 22.6769C18.8337 22.6463 18.8756 22.5975 18.9164 22.5477C18.8337 22.4343 18.7487 22.3221 18.6671 22.2088C18.4812 21.9481 18.3226 21.6716 18.1956 21.3781C18.0494 21.0392 17.9746 20.6822 17.9599 20.3139C17.9463 20.1473 17.9622 19.9818 17.9882 19.8163C18.0506 19.4265 18.2036 19.0831 18.4948 18.8065C18.6376 18.6705 18.7918 18.5504 18.9527 18.4382C19.5092 18.0551 20.1144 17.7559 20.7105 17.442C21.2726 17.1451 21.8382 16.8549 22.3912 16.5433C23.1619 16.1092 23.9031 15.6332 24.5842 15.0654C25.1588 14.5871 25.6666 14.0511 26.07 13.4198C26.291 13.073 26.4701 12.7058 26.5812 12.308C26.6866 11.9193 26.7206 11.5226 26.7081 11.1191ZM15.7794 18.5867C15.7125 18.5957 15.6434 18.5991 15.6094 18.6014C15.3385 18.5946 15.1096 18.5447 14.8829 18.4835C14.2063 18.3011 13.5558 18.0427 12.9143 17.7627C12.2887 17.4896 11.679 17.1847 11.084 16.8481C10.6794 16.6192 10.2895 16.3653 9.9087 16.0979C9.66843 15.929 9.43383 15.7499 9.20377 15.5675C8.94423 15.3612 8.73343 15.1096 8.5113 14.8693C8.29483 14.6347 8.09537 14.3831 7.89137 14.1383C7.8347 14.0692 7.7837 13.9955 7.73157 13.9219C7.7123 13.8947 7.69757 13.8629 7.68397 13.8323C7.6749 13.8131 7.6715 13.7893 7.6919 13.7734C7.71117 13.7587 7.73383 13.7643 7.75083 13.7802C7.79617 13.8244 7.84263 13.8697 7.88457 13.9173C8.1815 14.2494 8.51697 14.5373 8.87737 14.7979C9.30463 15.1073 9.77043 15.3465 10.2544 15.5516C11.1259 15.9222 12.0382 16.1568 12.9619 16.3483C13.4209 16.4435 13.8833 16.5297 14.331 16.6713C14.7242 16.796 15.096 16.9649 15.4133 17.2335C15.6332 17.4193 15.8202 17.6335 15.9562 17.8897C16.0128 17.9962 16.0468 18.1107 16.0593 18.2308C16.0797 18.428 15.9766 18.5595 15.7794 18.5867Z" fill="#0245D7"/>
<path d="M17.4318 19.2859C17.5089 18.8439 17.6539 18.3872 17.6245 17.4737C17.6143 17.1564 17.5871 16.9172 17.5213 16.7563C17.4658 17.0351 17.4295 17.3184 17.4035 17.6029L17.2199 17.0464C17.2153 16.8685 17.2131 16.6906 17.2289 16.5126C17.1417 16.5036 17.0453 16.5217 16.9547 16.558C16.8969 16.6928 16.8459 16.83 16.8085 16.9728C16.7314 17.2595 16.6555 17.5462 16.5875 17.8341C16.7076 18.3951 16.9207 19.1828 17.0057 20.3229C17.0612 21.0584 17.0589 21.8903 17.6177 22.4014C17.6267 22.4094 17.6483 22.4286 17.6766 22.4536L17.4318 19.2859Z" fill="#0245D7"/>
<path d="M16.703 16.7098C16.7722 16.6486 16.8606 16.5931 16.9546 16.5568C16.8968 16.6917 16.8458 16.8288 16.8084 16.9716C16.7314 17.2584 16.6554 17.5451 16.5874 17.833C16.4673 17.281 16.4367 16.9467 16.703 16.7098Z" fill="#0245D7"/>
<path d="M17.5213 16.7552C17.4658 17.0351 17.4295 17.3173 17.4034 17.6018L17.2198 17.0453C17.2153 16.8674 17.213 16.6895 17.2289 16.5115C17.2686 16.5161 17.306 16.5251 17.34 16.5421C17.4204 16.5807 17.4782 16.6521 17.5213 16.7552Z" fill="#0245D7"/>
<path d="M10.6318 12.6593C10.8834 12.7466 11.0454 12.92 11.1214 13.1739C11.135 13.2215 11.1508 13.2679 11.1406 13.3212C11.1293 13.3144 11.1202 13.3121 11.1168 13.3065C10.9729 13.0175 10.727 12.8803 10.4028 12.9075C10.2918 12.9177 10.1864 12.9506 10.0798 12.9823C9.97782 13.0129 9.87582 13.0447 9.77269 13.0673C9.67976 13.0877 9.65142 13.0651 9.62649 12.9721C9.59362 12.8531 9.56529 12.733 9.53129 12.614C9.48822 12.4644 9.41569 12.3307 9.29669 12.2264C9.18109 12.1244 9.05189 12.0587 8.89436 12.0575C8.81389 12.0575 8.73229 12.053 8.65182 12.0519C8.44216 12.0485 8.25062 11.9816 8.06816 11.8841C8.02282 11.8603 7.98202 11.8297 7.94916 11.7889C8.01149 11.8082 8.07382 11.8275 8.13616 11.8467C8.25176 11.9057 8.37642 11.8966 8.49882 11.8943C8.63936 11.8921 8.77989 11.8932 8.91929 11.9113C9.22302 11.9521 9.45196 12.1006 9.60156 12.3692C9.67182 12.4961 9.72849 12.6287 9.76929 12.7681C9.79536 12.8611 9.80556 12.8645 9.89509 12.8271C10.0209 12.7738 10.1478 12.7262 10.2793 12.6911C10.396 12.6605 10.5116 12.6423 10.6318 12.6593Z" fill="#479EFF"/>
<path d="M12.5233 13.3484C12.7851 13.4821 12.9812 13.7122 12.9767 13.881C12.9563 13.881 12.9483 13.864 12.9393 13.8504C12.7999 13.6102 12.5279 13.5274 12.2638 13.6C12.0666 13.6532 11.8773 13.7303 11.6937 13.821C11.6518 13.8414 11.6099 13.8618 11.5657 13.8788C11.5249 13.8946 11.4807 13.9048 11.4478 13.8652C11.4172 13.8266 11.4274 13.7858 11.4546 13.7484C11.4625 13.7382 11.4705 13.7292 11.4784 13.719C11.6269 13.6453 11.7583 13.541 11.9102 13.4719C11.9918 13.4345 12.0734 13.3982 12.1584 13.371C12.2797 13.3302 12.3998 13.3144 12.5233 13.3484Z" fill="#479EFF"/>
<path d="M13.8017 13.8697C14.1372 13.9003 14.416 14.1802 14.4863 14.544C14.4489 14.5565 14.4455 14.5225 14.4364 14.5044C14.382 14.3944 14.3004 14.3072 14.2052 14.2369C14.0057 14.0896 13.7881 14.0295 13.5467 14.1304C13.4493 14.1712 13.3518 14.2142 13.2543 14.2562C13.2351 14.2641 13.2135 14.2743 13.1977 14.2516C13.1875 14.2369 13.1875 14.2188 13.1954 14.2029C13.2124 14.1689 13.2305 14.1349 13.2487 14.102C13.4096 13.9672 13.5943 13.8901 13.8017 13.8697Z" fill="#479EFF"/>
<path d="M24.3553 19.8288C24.4313 19.7313 24.5435 19.669 24.616 19.567C24.6432 19.5284 24.6727 19.4922 24.6976 19.4525C24.7214 19.4162 24.7384 19.3743 24.7078 19.3335C24.6738 19.2882 24.6262 19.2938 24.5797 19.3086C24.5027 19.3324 24.429 19.3664 24.3599 19.4083C24.3032 19.4423 24.2499 19.4865 24.1819 19.5012C24.1672 19.4559 24.2012 19.4423 24.2216 19.4253C24.599 19.1057 24.9832 18.7963 25.4071 18.5402C25.4909 18.4892 25.5771 18.4427 25.6791 18.4404C25.8026 18.4382 25.8513 18.5005 25.8128 18.6195C25.7958 18.6716 25.7663 18.7192 25.7346 18.7646C25.6156 18.9323 25.4728 19.0774 25.3164 19.21C25.0625 19.4253 24.7883 19.6112 24.4981 19.7755C24.4539 19.8004 24.4097 19.8276 24.3565 19.8276L24.3553 19.8288Z" fill="#479EFF"/>
<path d="M20.4646 23.0803C20.4623 23.0395 20.4793 23.0055 20.5008 22.9738C20.7774 22.5601 21.0947 22.1839 21.4936 21.8801C21.5718 21.8201 21.6546 21.7679 21.743 21.7249C21.7736 21.7101 21.8042 21.6943 21.837 21.6852C21.9084 21.6637 21.9832 21.6523 22.041 21.7113C22.1 21.7713 22.0682 21.8405 22.041 21.9028C21.9674 22.0728 21.8552 22.219 21.7396 22.3607C21.6081 22.5227 21.4687 22.6791 21.3202 22.8265C21.2964 22.8503 21.276 22.8786 21.242 22.8831C21.2058 22.8605 21.2239 22.8355 21.2341 22.8151C21.2613 22.7619 21.2896 22.7086 21.2998 22.6497C21.3191 22.5295 21.2477 22.4717 21.1321 22.5114C21.0834 22.5284 21.0403 22.5567 21.0006 22.5885C20.8431 22.7131 20.689 22.8401 20.5564 22.9919C20.5292 23.0237 20.4952 23.0509 20.4646 23.0803Z" fill="#479EFF"/>
<path d="M22.3323 17.0306C22.4547 16.8946 22.4955 16.8527 22.5703 16.8175C22.6417 16.7835 22.7086 16.7722 22.7528 16.7677C22.7618 16.7665 22.8831 16.7563 22.9205 16.8243C22.9375 16.8561 22.9284 16.8935 22.9035 16.9615C22.8672 17.0635 22.8026 17.1496 22.7346 17.2312C22.6417 17.3434 22.5352 17.4409 22.4264 17.5372C22.4105 17.5508 22.3935 17.5655 22.3674 17.5621C22.3436 17.5247 22.3788 17.5021 22.3935 17.476C22.4128 17.4431 22.4354 17.4114 22.4547 17.3785C22.4728 17.3468 22.4808 17.3139 22.4547 17.2833C22.4275 17.2505 22.389 17.2403 22.3504 17.2561C22.3074 17.2743 22.2632 17.2935 22.2269 17.3219C22.2269 17.3219 22.1838 17.3581 21.9764 17.5213C21.9379 17.5508 21.828 17.6381 21.8189 17.6279C21.8132 17.6211 21.8495 17.5769 21.8812 17.5395C21.9118 17.5021 21.9266 17.4839 21.9628 17.4499C22.0342 17.3785 22.0784 17.3139 22.3323 17.0306Z" fill="#479EFF"/>
<path d="M20.2073 21.1854C20.2436 21.1185 20.2787 21.0516 20.315 20.9859C20.3478 20.9258 20.3705 20.8624 20.3739 20.7944C20.3773 20.7082 20.3161 20.672 20.2402 20.7162C20.1994 20.74 20.171 20.7774 20.1404 20.8125C20.1053 20.8533 20.077 20.9032 20.0271 20.9292L20.0282 20.9304C20.0328 20.91 20.0316 20.8862 20.0407 20.8692C20.1801 20.621 20.3104 20.366 20.519 20.1642C20.553 20.1314 20.5858 20.0985 20.6312 20.0815C20.7332 20.0452 20.8125 20.0962 20.8182 20.2028C20.8216 20.2719 20.8023 20.3376 20.7774 20.4011C20.7252 20.5371 20.6527 20.6629 20.5654 20.7785C20.4816 20.8907 20.392 20.9995 20.3036 21.1083C20.2787 21.1423 20.2526 21.1774 20.2073 21.1854Z" fill="#479EFF"/>
<path d="M19.4469 23.1098C19.3698 23.1574 19.2871 23.1902 19.1987 23.2118C19.1069 23.1596 19.0547 23.0678 18.9833 22.9942C19.0309 22.9262 19.0831 22.8627 19.1488 22.8117C19.2349 22.925 19.3369 23.0214 19.4469 23.1098Z" fill="#0245D7"/>
<path d="M22.2821 17.6288L22.2802 17.6269C22.2802 17.6251 22.2821 17.6288 22.2821 17.6288Z" fill="#479EFF"/>
<path d="M26.0463 11.0726C26.0395 11.161 25.9964 11.2347 25.9443 11.3016C25.772 11.5248 25.5521 11.6778 25.2711 11.7311C25.1623 11.7515 25.0535 11.7708 24.9435 11.7855C24.7826 11.8059 24.6273 11.8524 24.4721 11.8954C24.3531 11.9294 24.2613 12.0042 24.1831 12.096C24.1445 12.1414 24.106 12.1867 24.0652 12.2298C24.038 12.2581 24.0051 12.2819 23.9655 12.2456C24.0233 12.019 24.1831 11.8762 24.3735 11.764C24.5299 11.671 24.7044 11.6336 24.8823 11.6121C25.0172 11.5962 25.1521 11.5815 25.2858 11.5588C25.5544 11.5124 25.7856 11.3979 25.9454 11.1656C25.9715 11.127 25.9953 11.0851 26.0463 11.0726Z" fill="#479EFF"/>
<path d="M16.2373 14.6755C16.6441 14.8614 16.9116 15.1742 17.0669 15.5879C17.017 15.5811 17.0011 15.5391 16.9762 15.5074C16.7257 15.1833 16.4186 14.9339 16.0276 14.7968C15.9007 14.7526 15.7726 14.7288 15.6377 14.7413C15.4383 14.7594 15.2377 14.7685 15.0405 14.8059C15.1028 14.7469 15.1844 14.7333 15.2626 14.7141C15.5085 14.654 15.7567 14.6234 16.0106 14.6336C16.0888 14.6381 16.1625 14.6585 16.2373 14.6755Z" fill="#479EFF"/>
<path d="M23.1597 12.325C23.2027 12.3454 23.2492 12.3477 23.2968 12.3522C23.4249 12.3647 23.5314 12.427 23.5915 12.5188C23.5699 12.5437 23.545 12.5313 23.5212 12.5256C23.1937 12.4621 22.7777 12.5811 22.5397 12.8123C22.4332 12.9166 22.3187 13.0141 22.2326 13.1376C22.2156 13.1625 22.1929 13.1829 22.1623 13.1897C22.1612 13.1455 22.1827 13.1081 22.2065 13.073C22.338 12.8803 22.4785 12.6967 22.6587 12.5437C22.8049 12.4202 22.9647 12.3352 23.1597 12.325Z" fill="#479EFF"/>
<path d="M18.5164 14.561C18.615 14.5814 18.7158 14.5894 18.811 14.6449C18.7476 14.6562 18.6841 14.6687 18.6195 14.6766C18.4325 14.7004 18.2659 14.773 18.1276 14.8999C17.9021 15.1062 17.6448 15.2784 17.4454 15.5142C17.4193 15.5448 17.3932 15.5867 17.34 15.5618C17.5179 15.2784 17.7242 15.0212 17.9928 14.8172C18.1514 14.6982 18.3203 14.603 18.5164 14.561Z" fill="#479EFF"/>
<path d="M21.1219 13.1943C21.3259 13.192 21.3304 13.1931 21.4392 13.2532C21.4347 13.2849 21.4075 13.2759 21.3905 13.2747C21.182 13.2634 21.0097 13.3507 20.8556 13.4787C20.7184 13.5932 20.6017 13.7269 20.5201 13.8901C20.4725 13.9853 20.4181 14.076 20.3626 14.1655C20.3354 14.2086 20.2991 14.229 20.2742 14.1587C20.3682 14.0023 20.4612 13.8448 20.5586 13.6907C20.647 13.549 20.7558 13.4243 20.8873 13.3201C20.9587 13.2657 21.0346 13.2192 21.1219 13.1943Z" fill="#479EFF"/>
<path d="M20.0339 14.0477C20.0487 14.0839 20.0679 14.1247 20.0045 14.1315C19.6203 14.1723 19.3845 14.416 19.1964 14.7231C19.1805 14.7481 19.1703 14.7798 19.1488 14.7979C19.1091 14.8308 19.0887 14.8081 19.0853 14.7628C19.1567 14.7367 19.1851 14.6744 19.2123 14.6121C19.2791 14.4568 19.3834 14.3299 19.5081 14.2188C19.6588 14.0851 19.8299 14.0137 20.0339 14.0477Z" fill="#479EFF"/>
<path d="M26.0723 11.025C26.0667 11.0443 26.061 11.0624 26.044 11.0749C26.0531 11.0579 26.0633 11.0409 26.0723 11.025Z" fill="#479EFF"/>
<path d="M8.16451 22.0841C8.10785 22.0841 8.06365 22.049 8.01491 22.0263C7.92198 21.9844 7.82905 21.9402 7.72591 21.9254C7.68851 21.9198 7.64545 21.9141 7.62278 21.9549C7.59671 22.0014 7.62731 22.0376 7.65905 22.0671C7.68965 22.0954 7.72478 22.1215 7.76105 22.1442C7.96618 22.2745 8.18038 22.389 8.39571 22.5023C8.42858 22.5193 8.46825 22.5284 8.49091 22.5635C8.47165 22.5884 8.45125 22.5714 8.43538 22.5646C8.00131 22.3867 7.56498 22.2156 7.14791 22.0002C6.99265 21.9198 6.84078 21.8336 6.70591 21.7203C6.65038 21.6738 6.59711 21.624 6.56311 21.5582C6.49738 21.4302 6.55405 21.327 6.69685 21.3134C6.81471 21.3032 6.92578 21.3327 7.03345 21.3735C7.34625 21.4925 7.63185 21.6625 7.90045 21.8597C7.99225 21.9266 8.08518 21.9923 8.17811 22.0592C8.17245 22.0671 8.16905 22.0762 8.16451 22.0841Z" fill="#479EFF"/>
<path d="M8.63597 20.749C8.59517 20.7422 8.56683 20.7162 8.53963 20.689C8.31523 20.4612 8.0863 20.2368 7.89477 19.9795C7.8415 19.9081 7.7871 19.8356 7.75763 19.7494C7.74063 19.7007 7.7259 19.6463 7.76783 19.6044C7.81543 19.5579 7.87097 19.576 7.9231 19.601C8.0047 19.6406 8.07043 19.703 8.13617 19.763C8.41497 20.018 8.64163 20.3161 8.87057 20.6142C8.8785 20.6244 8.88417 20.6357 8.88757 20.6482C8.88983 20.655 8.88417 20.6629 8.87963 20.6833C8.81277 20.638 8.76743 20.5768 8.7119 20.5258C8.68017 20.4974 8.64957 20.468 8.61443 20.443C8.58837 20.4249 8.55777 20.4238 8.5317 20.4442C8.5045 20.4657 8.50337 20.4974 8.51357 20.5258C8.52717 20.562 8.5453 20.5949 8.56343 20.6289C8.5861 20.6708 8.61103 20.7105 8.63597 20.749Z" fill="#479EFF"/>
<path d="M11.679 20.1949C11.6019 20.1971 11.5747 20.1575 11.5373 20.1393C11.4931 20.1178 11.4489 20.0985 11.407 20.1382C11.3673 20.1767 11.3809 20.2243 11.399 20.2697C11.4217 20.3275 11.4716 20.3728 11.4795 20.4385C11.4353 20.4555 11.4194 20.4238 11.4002 20.4057C11.2766 20.2878 11.1644 20.1597 11.059 20.0249C11.0035 19.9535 10.9593 19.8753 10.9468 19.7846C10.9298 19.6633 10.9876 19.6067 11.1089 19.6271C11.1372 19.6316 11.1678 19.6418 11.1928 19.6565C11.399 19.7869 11.5373 19.9773 11.679 20.1949Z" fill="#479EFF"/>
<path d="M11.1599 17.9883C11.118 17.9871 11.0987 17.9486 11.067 17.9282C11.0296 17.9044 10.9922 17.8829 10.9503 17.9112C10.9095 17.9395 10.9231 17.9769 10.9355 18.0143C10.9412 18.0302 10.9435 18.0461 10.948 18.0642C10.9049 18.0789 10.8902 18.0461 10.8743 18.0257C10.7984 17.9293 10.7089 17.8421 10.6624 17.7253C10.6352 17.6585 10.6057 17.5859 10.6658 17.5225C10.7066 17.4794 10.7882 17.5021 10.8709 17.5735C10.9945 17.6811 11.084 17.8149 11.1667 17.9543C11.1747 17.9645 11.1735 17.9781 11.1599 17.9883Z" fill="#479EFF"/>
<path d="M8.63483 20.7502C8.64389 20.7593 8.65183 20.7672 8.66089 20.7763L8.66203 20.7751C8.65296 20.7661 8.64503 20.7581 8.63483 20.7502Z" fill="#479EFF"/>
<path d="M20.8261 27.8857C20.8533 27.8392 20.8975 27.8154 20.9474 27.7973C21.2466 27.6851 21.5356 27.5468 21.8314 27.4255C22.3051 27.2306 22.7755 27.03 23.256 26.8555C23.8578 26.6379 24.4437 26.3806 25.0195 26.1018C25.058 26.0837 25.0954 26.0621 25.1385 26.0565C25.2223 26.0474 25.2665 26.1097 25.2325 26.1868C25.2087 26.2401 25.16 26.2695 25.1147 26.3001C24.7679 26.5404 24.4097 26.7637 24.0493 26.9847C23.3081 27.4414 22.5431 27.8539 21.7804 28.2744C21.4075 28.4795 21.0245 28.6688 20.6267 28.8252C20.2572 28.9703 19.8787 29.0519 19.4797 29.0553C19.142 29.0587 18.8065 29.0303 18.4699 29.0179C17.9327 28.9986 17.4069 29.0768 16.8833 29.1765C16.0775 29.3284 15.2819 29.3171 14.4987 29.0394C14.2165 28.9397 13.9411 28.8252 13.6714 28.6983C13.0435 28.4002 12.4089 28.1157 11.7731 27.8358C11.203 27.5853 10.6363 27.3269 10.0957 27.0153C9.81127 26.8509 9.53927 26.6673 9.2684 26.4803C9.19927 26.4327 9.16414 26.3693 9.17094 26.2854C9.2752 26.3421 9.3772 26.4021 9.4826 26.4565C9.70247 26.5699 9.9042 26.7161 10.132 26.8124C10.4493 26.9473 10.7644 27.0878 11.0931 27.1955C11.2427 27.2453 11.3889 27.3031 11.5351 27.3621C11.7413 27.4459 11.9533 27.5071 12.1743 27.5377C12.5551 27.5899 12.9381 27.591 13.3223 27.5944C13.6045 27.5967 13.8799 27.5264 14.161 27.5185C14.3276 27.5139 14.484 27.5411 14.6302 27.6171C14.7322 27.6703 14.8387 27.7111 14.9475 27.7497C15.0677 27.7927 15.1889 27.8335 15.3023 27.8925C15.3283 27.9061 15.3544 27.9242 15.3861 27.9049C15.4337 27.9004 15.4791 27.9072 15.5244 27.9208C15.7556 27.9922 15.9891 28.0511 16.2259 28.0987C16.2758 28.1089 16.3268 28.118 16.3506 28.1735C16.3064 28.1849 16.2622 28.1951 16.218 28.2053C16.1976 28.1996 16.1659 28.1962 16.1647 28.2143C16.1625 28.2461 16.1942 28.2449 16.218 28.2427C16.3529 28.2665 16.4866 28.2925 16.6215 28.3152C16.9841 28.3753 17.3468 28.4251 17.7163 28.3753C18.0189 28.3345 18.309 28.2461 18.5912 28.1373C18.9924 27.982 19.3981 27.9333 19.8197 28.0341C20.1099 28.1033 20.3955 28.0647 20.6765 27.9775C20.7513 27.9548 20.8295 27.9401 20.8998 27.8981C20.876 27.8687 20.8488 27.8902 20.8261 27.8857ZM21.6127 27.7111C21.6897 27.6873 21.7657 27.6624 21.8427 27.6386C22.0955 27.5604 22.3357 27.4471 22.5805 27.3485C22.8695 27.2329 23.1585 27.1184 23.4498 27.0073C23.7853 26.8781 24.1015 26.7104 24.4233 26.5551C24.6625 26.4395 24.8812 26.2888 25.0988 26.1551C24.9798 26.18 24.8653 26.2412 24.7509 26.3001C24.3542 26.5064 23.9462 26.6889 23.5291 26.8509C23.2991 26.9405 23.0645 27.0221 22.8389 27.1207C22.4264 27.3009 22.0173 27.4901 21.607 27.676C21.5957 27.6794 21.5843 27.6817 21.5741 27.6862C21.5594 27.693 21.5424 27.7032 21.5515 27.7202C21.5605 27.7372 21.5787 27.727 21.5934 27.7213C21.6002 27.7202 21.6059 27.7145 21.6127 27.7111Z" fill="#01198D"/>
<path d="M22.1431 24.9163C22.3573 24.948 22.474 25.0546 22.5046 25.2642C22.5284 25.4286 22.6145 25.5238 22.7777 25.5589C22.9931 25.6065 23.2027 25.568 23.4113 25.5238C23.8351 25.4331 24.2363 25.2779 24.6228 25.0841C25.1725 24.8087 25.7142 24.5196 26.2355 24.1932C26.2979 24.1547 26.3625 24.123 26.4305 24.0992C26.4769 24.2329 26.4679 24.2658 26.3489 24.3417C25.9862 24.5752 25.6145 24.7905 25.2371 24.9991C24.8676 25.2031 24.4981 25.4082 24.1253 25.6054C23.6504 25.857 23.171 26.0995 22.6689 26.2922C22.0807 26.5177 21.4733 26.6673 20.8488 26.7444C20.7343 26.758 20.6199 26.7648 20.5043 26.7671C19.771 26.7852 19.0377 26.7716 18.3045 26.7716C18.1333 26.7716 17.9633 26.7841 17.7933 26.7954C17.4307 26.8203 17.0691 26.7761 16.7076 26.7648C16.6906 26.7648 16.6736 26.7625 16.6566 26.7591C16.6305 26.7535 16.6067 26.7432 16.6033 26.7126C16.5999 26.6832 16.6169 26.6639 16.6407 26.6515C16.6861 26.6277 16.7359 26.6129 16.7869 26.6061C17.1417 26.5563 17.4193 26.3647 17.6732 26.1301C17.8602 25.9579 18.0121 25.7606 18.1209 25.5283C18.173 25.4184 18.1923 25.3209 18.1061 25.2212C18.0903 25.203 18.088 25.1747 18.0789 25.1509C18.3181 25.1271 18.4461 25.2268 18.4813 25.466C18.5051 25.6348 18.4903 25.8048 18.4926 25.9748C18.4949 26.1154 18.5425 26.2299 18.666 26.3081C18.6898 26.3228 18.7136 26.3228 18.7363 26.3307C18.6762 26.384 18.6173 26.4373 18.5447 26.5007C18.6059 26.5075 18.6501 26.495 18.6943 26.486C18.7691 26.469 18.8428 26.4486 18.9187 26.4338C19.4491 26.3273 19.9467 26.1278 20.4329 25.8989C20.6176 25.8116 20.7967 25.7108 20.9916 25.6451C21.2149 25.5703 21.4415 25.5 21.6795 25.5362C21.9436 25.577 21.8971 25.5533 22.0456 25.3561C22.0637 25.3323 22.0762 25.305 22.0909 25.279C22.1567 25.1679 22.185 25.0466 22.1431 24.9163Z" fill="#01198D"/>
<path d="M17.332 27.3292C17.3343 27.3371 17.3377 27.3451 17.3388 27.3541C17.3536 27.4958 17.3048 27.5479 17.1666 27.5264C16.9728 27.4969 16.7778 27.4697 16.5863 27.4289C16.0355 27.3111 15.479 27.2306 14.9192 27.1739C14.2494 27.1059 13.5818 27.0153 12.92 26.8906C12.495 26.8101 12.0813 26.6979 11.671 26.5676C11.5747 26.537 11.4988 26.4917 11.4954 26.3772C11.6722 26.4225 11.8524 26.4588 12.0258 26.5143C12.461 26.6537 12.9098 26.6957 13.362 26.7172C13.8051 26.7387 14.2482 26.7263 14.688 26.6515C15.062 26.588 15.4178 26.6481 15.7476 26.8441C15.802 26.877 15.8598 26.9053 15.9165 26.9359C16.3596 27.1705 16.8266 27.319 17.332 27.3292Z" fill="#01198D"/>
<path d="M15.3895 27.9061C15.3578 27.9253 15.3329 27.9072 15.3057 27.8936C15.1923 27.8347 15.0711 27.7927 14.9509 27.7508C14.8433 27.7123 14.7356 27.6726 14.6336 27.6182C14.4874 27.5411 14.3321 27.5151 14.1644 27.5196C13.8822 27.5275 13.6079 27.5978 13.3257 27.5955C12.9427 27.5921 12.5585 27.5899 12.1777 27.5389C11.9567 27.5094 11.7447 27.4471 11.5385 27.3632C11.3923 27.3043 11.2461 27.2453 11.0965 27.1966C10.7678 27.0878 10.4527 26.9473 10.1354 26.8135C9.90761 26.7172 9.70587 26.571 9.48601 26.4577C9.38061 26.4033 9.27747 26.3432 9.17434 26.2865C9.14147 26.2389 9.06667 26.2355 9.04401 26.163C9.11087 26.1562 9.15961 26.1879 9.20721 26.2083C9.69454 26.4225 10.1819 26.6379 10.6692 26.8532C11.1917 27.0844 11.7391 27.2227 12.3069 27.2793C12.7534 27.3247 13.2011 27.302 13.6476 27.3303C13.8051 27.3405 13.9627 27.3462 14.1191 27.3609C14.2902 27.3768 14.45 27.4278 14.5962 27.5264C14.6869 27.5865 14.7889 27.6318 14.8943 27.6669C15.0711 27.7236 15.2263 27.8222 15.3895 27.9061Z" fill="#479EFF"/>
<path d="M16.2203 28.2064C16.2645 28.1962 16.3087 28.1848 16.3529 28.1746C16.6249 28.1814 16.8969 28.1894 17.17 28.1928C17.4363 28.1973 17.6959 28.152 17.9486 28.0704C18.1877 27.9933 18.4257 27.9151 18.6637 27.8346C18.7771 27.7961 18.8927 27.7666 19.0105 27.7485C19.2417 27.7122 19.4673 27.7258 19.6894 27.8097C19.9376 27.9026 20.1926 27.9706 20.4623 27.9434C20.5847 27.931 20.7083 27.9253 20.8261 27.8856C20.8488 27.8902 20.876 27.8686 20.9032 27.8992C20.8329 27.9412 20.7536 27.9559 20.6799 27.9786C20.3989 28.0658 20.1133 28.1044 19.8231 28.0352C19.4015 27.9344 18.9958 27.9831 18.5946 28.1384C18.3124 28.2472 18.0223 28.3356 17.7197 28.3764C17.3502 28.4262 16.9875 28.3764 16.6249 28.3163C16.49 28.2936 16.3563 28.2687 16.2225 28.2438C16.2293 28.2313 16.2282 28.2188 16.2203 28.2064Z" fill="#479EFF"/>
<path d="M17.332 27.3292C16.8266 27.319 16.3596 27.1705 15.9165 26.9348C15.8598 26.9042 15.8032 26.8759 15.7476 26.843C15.4178 26.6469 15.062 26.5869 14.688 26.6503C14.2482 26.7251 13.8051 26.7365 13.362 26.7161C12.9098 26.6945 12.461 26.6537 12.0258 26.5132C11.8524 26.4577 11.6722 26.4214 11.4954 26.3761C11.4874 26.3557 11.4795 26.3319 11.5101 26.3262C11.5339 26.3217 11.5611 26.3239 11.586 26.3285C11.8626 26.3749 12.1436 26.3919 12.419 26.4531C12.716 26.5189 13.0186 26.5268 13.3212 26.5381C13.7314 26.554 14.1394 26.5245 14.5463 26.4781C14.6902 26.4611 14.8353 26.4588 14.9804 26.469C15.2297 26.4871 15.4496 26.5846 15.6649 26.7002C15.9505 26.8532 16.2429 26.9915 16.55 27.1003C16.6554 27.1377 16.762 27.1649 16.8719 27.1785C16.9988 27.1943 17.1246 27.2181 17.2482 27.2487C17.2924 27.2612 17.3332 27.2725 17.332 27.3292Z" fill="#479EFF"/>
<path d="M16.49 24.9775C16.6112 24.9855 16.6679 25.0387 16.6758 25.1543C16.6826 25.2507 16.6475 25.3391 16.6158 25.4263C16.5625 25.5703 16.5002 25.7097 16.4514 25.8547C16.4242 25.9363 16.3823 26.0213 16.4276 26.112C16.422 26.2038 16.3551 26.2446 16.2826 26.2718C16.0355 26.3647 15.7816 26.3591 15.5278 26.3035C15.4802 26.2933 15.436 26.2729 15.4348 26.2151C15.4337 26.1562 15.4779 26.1381 15.5232 26.1211C15.7998 26.0179 16.0366 25.8559 16.2406 25.6451C16.4186 25.4581 16.5285 25.2461 16.49 24.9775Z" fill="#01198D"/>
<path d="M23.8193 26.2333C23.4985 26.3863 23.2027 26.5347 22.8865 26.6345C22.695 26.6957 22.5091 26.7671 22.3244 26.8475C22.0626 26.962 21.8042 27.0844 21.5356 27.183C21.2149 27.302 20.8771 27.3632 20.5349 27.3779C20.3218 27.387 20.1087 27.3768 19.8957 27.3745C19.8673 27.3745 19.8356 27.3779 19.8107 27.353C19.8231 27.319 19.8526 27.3315 19.8741 27.3292C19.9161 27.3258 19.9591 27.3258 20.0022 27.3269C20.7241 27.3405 21.4019 27.1479 22.066 26.8906C22.3289 26.7886 22.5896 26.6832 22.8593 26.6027C23.1427 26.5189 23.4045 26.384 23.6753 26.2695C23.7139 26.2548 23.7479 26.2265 23.8193 26.2333Z" fill="#479EFF"/>
<path d="M7.8166 11.6382C7.752 11.5815 7.70326 11.5124 7.66586 11.4364C7.565 11.2358 7.4766 11.0296 7.40066 10.8188C7.37346 10.7428 7.35646 10.6646 7.35193 10.583C7.36213 10.5604 7.36779 10.5332 7.38479 10.5162C7.41879 10.481 7.45506 10.4901 7.48 10.5286C7.5038 10.5649 7.50833 10.608 7.51513 10.6499C7.54119 10.8165 7.56273 10.9854 7.61486 11.1474C7.63413 11.2075 7.65 11.2698 7.68966 11.322C7.71573 11.433 7.78486 11.5282 7.8166 11.6382Z" fill="#479EFF"/>
<path d="M7.8415 11.6654C7.83243 11.6552 7.8245 11.645 7.81543 11.6348C7.82336 11.645 7.83243 11.6552 7.8415 11.6654Z" fill="#479EFF"/>
<path d="M25.0988 21.5696C25.1498 21.5152 25.22 21.4914 25.2835 21.4574C25.5238 21.3293 25.7731 21.2194 26.027 21.1219C26.1063 21.0913 26.189 21.0675 26.274 21.0596C26.333 21.0539 26.3987 21.0471 26.427 21.1174C26.4542 21.1831 26.4168 21.2319 26.3715 21.2749C26.3375 21.3067 26.3024 21.3384 26.2638 21.3645C26.0304 21.5175 25.772 21.6149 25.509 21.7011C25.4977 21.7045 25.4852 21.7011 25.4705 21.7011C25.4614 21.6557 25.5034 21.6455 25.5215 21.6217C25.5408 21.5968 25.5544 21.5719 25.5419 21.5401C25.5272 21.5027 25.4932 21.4925 25.458 21.4948C25.4161 21.4982 25.3742 21.5084 25.3322 21.5163C25.254 21.5322 25.1804 21.5696 25.0988 21.5696Z" fill="#479EFF"/>
<path d="M25.0445 21.5934L25.0376 21.6003L25.0473 21.5948L25.0445 21.5934Z" fill="#479EFF"/>
<path d="M25.0976 21.5696C25.0795 21.5775 25.0625 21.5866 25.0444 21.5945L25.0455 21.5956C25.0625 21.5866 25.0806 21.5786 25.0976 21.5696Z" fill="#479EFF"/>
<path d="M15.6094 18.6025C15.3385 18.5957 15.1096 18.5458 14.8829 18.4846C14.2063 18.301 13.5558 18.0438 12.9143 17.7638C12.2887 17.4907 11.679 17.1858 11.084 16.8492C10.6794 16.6203 10.2895 16.3664 9.9087 16.099C9.66844 15.9301 9.43384 15.7522 9.20377 15.5686C8.94424 15.3623 8.73344 15.1107 8.5113 14.8704C8.2937 14.6358 8.09537 14.3842 7.89137 14.1394C7.8347 14.0703 7.7837 13.9966 7.73157 13.923C7.7123 13.8958 7.69757 13.864 7.68397 13.8323C7.6749 13.813 7.6715 13.7892 7.6919 13.7734C7.71117 13.7598 7.73384 13.7643 7.75084 13.7802C7.79617 13.8244 7.84264 13.8697 7.8857 13.9173C8.18264 14.2494 8.5181 14.5372 8.8785 14.7979C9.30577 15.1073 9.77157 15.3464 10.2555 15.5516C11.127 15.9222 12.0394 16.1568 12.963 16.3483C13.422 16.4435 13.8844 16.5296 14.3321 16.6713C14.7254 16.796 15.0971 16.9648 15.4144 17.2334C15.6343 17.4193 15.8213 17.6335 15.9573 17.8896C16.014 17.9973 16.048 18.1106 16.0604 18.2308C16.0808 18.428 15.9777 18.5594 15.7794 18.5866C15.7114 18.5968 15.6434 18.5991 15.6094 18.6025Z" fill="#01198D"/>
<path d="M18.7714 22.6791C18.675 22.8094 18.5504 22.9114 18.437 23.0248C18.3702 23.0928 18.3588 23.0078 18.3294 22.976C18.3282 22.933 18.3112 22.8933 18.2942 22.8548C18.1038 22.4162 17.9531 21.964 17.8262 21.5038C17.6777 20.97 17.5768 20.4261 17.5032 19.8764C17.4646 19.5851 17.4261 19.2938 17.4046 19.0014C17.3796 18.6694 17.3864 18.3373 17.3876 18.0052C17.3876 17.9338 17.3955 17.6596 17.4012 17.6006C17.4465 17.1201 17.5168 16.6441 17.6652 16.1817C17.7117 16.0367 17.7548 15.8893 17.8386 15.7533C17.884 15.7794 17.8692 15.8145 17.8636 15.8451C17.8352 15.997 17.8194 16.1489 17.825 16.303C17.8352 16.5841 17.8828 16.7574 18.284 16.8492C18.5719 16.915 18.862 16.8799 19.1488 16.83C19.533 16.7643 19.9013 16.643 20.264 16.5013C21.106 16.1715 21.8892 15.7318 22.6496 15.2467C22.738 15.1901 22.831 15.1413 22.9296 15.1028C22.8684 15.1662 22.8094 15.232 22.7471 15.2943C22.7074 15.334 22.67 15.3737 22.6508 15.4281C22.619 15.5187 22.6519 15.5788 22.7448 15.5992C22.8083 15.6128 22.8729 15.6071 22.9352 15.5947C23.0372 15.5743 23.1392 15.5527 23.2435 15.5414C23.1676 15.6151 23.0735 15.6513 22.9806 15.6887C22.3425 15.9471 21.7305 16.2577 21.1332 16.5977C20.6482 16.8742 20.1699 17.1643 19.7166 17.493C19.3256 17.7763 18.9527 18.0812 18.624 18.4359C18.3554 18.726 18.1299 19.0457 17.978 19.4117C17.8545 19.7098 17.8318 20.0226 17.8647 20.3422C17.9089 20.7751 18.0302 21.1876 18.1888 21.5889C18.3237 21.9311 18.4914 22.2575 18.6818 22.5714C18.7079 22.6111 18.7294 22.653 18.7714 22.6791Z" fill="#01198D"/>
<path d="M17.4295 16.5342C17.4103 16.5296 17.2607 16.9535 17.1995 17.4669C17.1983 17.4748 17.1949 17.51 17.1904 17.5553C17.1519 17.9474 17.1734 18.2376 17.1813 18.3736C17.2165 18.9742 17.136 18.9448 17.1802 19.414C17.2244 19.873 17.3389 20.2878 17.3729 20.2832C17.4023 20.2787 17.3604 19.9602 17.3309 19.2417C17.3105 18.7498 17.3105 18.4348 17.3117 17.9622C17.3117 17.4737 17.3219 17.2493 17.3593 16.9762C17.3978 16.6951 17.4409 16.5376 17.4295 16.5342Z" fill="#479EFF"/>
<path d="M17.8103 22.95C17.6584 23.0055 17.5054 23.0565 17.3604 23.1302C17.0793 23.273 16.8356 23.4623 16.6192 23.6912C16.5988 23.7127 16.5784 23.7343 16.5568 23.7558C16.5546 23.7581 16.5489 23.7592 16.5353 23.7649C16.4741 23.6821 16.482 23.5756 16.4458 23.4838C16.4084 23.3886 16.3778 23.2911 16.3279 23.2005C16.278 23.1109 16.2259 23.0237 16.1749 22.9353C16.1794 22.8457 16.1704 22.7573 16.1624 22.6678C16.1182 22.1544 16.0888 21.641 16.1216 21.1242C16.1443 20.7672 16.1602 20.4102 16.1998 20.0543C16.2633 19.4729 16.3608 18.8983 16.4764 18.326C16.5693 17.8704 16.686 17.4216 16.8073 16.9728C16.8662 16.7541 16.9535 16.5467 17.0532 16.3438C17.0895 16.2713 17.1212 16.1976 17.1564 16.1239C17.1654 16.1035 17.1824 16.0877 17.2062 16.0922C17.23 16.0967 17.2391 16.1183 17.2402 16.1409C17.2448 16.2565 17.2425 16.371 17.2312 16.4855C17.2119 16.6725 17.1983 17.3105 17.1904 17.442C17.1666 17.8851 17.1824 18.3283 17.1926 18.7714C17.1949 18.8734 17.1892 19.2973 17.1949 19.3993C17.2062 19.5987 17.2221 19.7982 17.238 19.9977C17.2969 20.7117 17.4216 21.4155 17.5882 22.1125C17.6562 22.3924 17.7355 22.6701 17.8103 22.95Z" fill="#01198D"/>
<path d="M18.2954 22.8548C18.105 22.4162 17.9542 21.964 17.8273 21.5039C17.6788 20.9701 17.578 20.4261 17.5054 19.8764C17.4794 19.6792 17.4533 19.482 17.4329 19.2848C17.3853 19.5568 17.3638 19.8231 17.425 20.1869C17.468 20.4476 17.5768 20.8046 17.7933 21.5197C17.9826 22.1431 18.1231 22.5295 18.0109 22.6009C17.9327 22.6508 17.7672 22.5284 17.6766 22.4513C17.7208 22.6168 17.7672 22.7823 17.8103 22.9489C17.986 22.9194 18.1605 22.9013 18.3316 22.9749C18.3294 22.933 18.3124 22.8933 18.2954 22.8548Z" fill="#0245D7"/>
<path d="M17.6755 22.4524C17.7661 22.5284 17.9316 22.6508 18.0098 22.602C18.122 22.5306 17.9815 22.1442 17.7922 21.5208C17.5757 20.8057 17.4669 20.4487 17.4239 20.188C17.3627 19.8242 17.3853 19.5579 17.4318 19.2859L17.6755 22.4524Z" fill="#0245D7"/>
<path d="M22.143 24.9163C22.185 25.0478 22.1566 25.1679 22.0898 25.2835C22.075 25.3096 22.0626 25.3368 22.0444 25.3606C21.896 25.5567 21.9424 25.5805 21.6784 25.5408C21.4404 25.5045 21.2137 25.5748 20.9904 25.6496C20.7955 25.7153 20.6176 25.8151 20.4317 25.9035C19.9455 26.1335 19.448 26.3319 18.9176 26.4384C18.8428 26.4531 18.768 26.4735 18.6932 26.4905C18.649 26.5007 18.6048 26.5121 18.5436 26.5053C18.6161 26.4407 18.6762 26.3874 18.7351 26.3353C18.9754 26.3511 19.1986 26.2865 19.4162 26.1913C19.7336 26.0531 20.0282 25.8729 20.3229 25.6938C20.698 25.4671 21.0686 25.2303 21.4744 25.0591C21.6886 24.9696 21.905 24.8937 22.143 24.9163Z" fill="#0245D7"/>
<path d="M18.9833 22.9942C19.0536 23.0679 19.1069 23.1597 19.1987 23.2118C19.0105 23.3138 18.8224 23.4147 18.6354 23.5167C18.6048 23.5121 18.5765 23.5019 18.5606 23.4713C18.6875 23.3002 18.836 23.1483 18.9833 22.9942Z" fill="#01198D"/>
<path d="M18.5606 23.4713C18.5753 23.5019 18.6036 23.5121 18.6354 23.5166C18.5572 23.571 18.4778 23.6254 18.3849 23.69C18.4178 23.596 18.4336 23.5778 18.5606 23.4713Z" fill="#0245D7"/>
<path d="M18.3252 23.7195V23.7292L18.3169 23.7251L18.3252 23.7195Z" fill="#0245D7"/>
<path d="M14.2165 22.5681C14.2063 22.5613 14.1961 22.5545 14.1859 22.5488C14.1904 22.5431 14.1961 22.5386 14.2018 22.5341C14.2074 22.5454 14.2131 22.5567 14.2188 22.5681H14.2165Z" fill="#0294EB"/>
<path d="M22.5461 23.2169C22.533 23.2217 22.5282 23.2193 22.5342 23.205C22.5378 23.2086 22.5414 23.2133 22.5461 23.2169Z" fill="#0182E4"/>
<path d="M21.607 27.6771C22.0173 27.4913 22.4264 27.3009 22.8389 27.1218C23.0656 27.0232 23.2991 26.9416 23.5291 26.8521C23.9462 26.6889 24.3531 26.5075 24.7509 26.3013C24.8653 26.2423 24.9798 26.1811 25.0988 26.1562C24.8823 26.2899 24.6625 26.4407 24.4233 26.5563C24.1015 26.7115 23.7853 26.8804 23.4498 27.0085C23.1597 27.1195 22.8695 27.234 22.5805 27.3496C22.3357 27.4482 22.0955 27.5615 21.8427 27.6397C21.7657 27.6635 21.6886 27.6885 21.6127 27.7123C21.6115 27.6998 21.6093 27.6885 21.607 27.6771Z" fill="#479EFF"/>
<path d="M21.607 27.6771C21.6092 27.6885 21.6115 27.6998 21.6138 27.7111C21.607 27.7157 21.6013 27.7213 21.5934 27.7236C21.5786 27.7293 21.5605 27.7383 21.5514 27.7225C21.5424 27.7055 21.5594 27.6953 21.5741 27.6885C21.5843 27.6828 21.5956 27.6805 21.607 27.6771Z" fill="#0182E4"/>
<path d="M16.2203 28.2064C16.2271 28.2189 16.2282 28.2313 16.2214 28.2438C16.1965 28.2461 16.1647 28.2472 16.167 28.2155C16.1681 28.1985 16.201 28.2019 16.2203 28.2064Z" fill="#0182E4"/>
<path d="M17.4884 20.7298C17.6584 21.3361 17.8443 21.9119 17.9372 22.5114C17.7423 22.2632 17.4238 21.0109 17.4884 20.7298Z" fill="#479EFF"/>
<path d="M7.13999 11.016C7.03459 11.4704 7.07539 12.0416 7.48906 12.3295C7.63413 12.4338 7.80639 12.4972 7.97639 12.555C8.03306 12.5743 8.09086 12.5924 8.14866 12.6072C8.26539 12.6378 8.37873 12.6514 8.50113 12.657C8.62919 12.6616 8.77199 12.6854 8.89213 12.7398C9.43046 12.9642 9.42253 13.4821 9.88493 13.7507C10.3043 13.9944 10.8528 13.9422 11.3243 13.8935L11.3299 13.915C11.0534 14.0216 10.7519 14.0941 10.4493 14.0975C10.166 14.1009 9.87246 14.0374 9.64239 13.8674C9.47693 13.7507 9.35793 13.5773 9.26386 13.4039C9.14939 13.1908 9.04513 13.0095 8.81733 12.9041C8.76633 12.8803 8.71419 12.8599 8.66093 12.8474C8.54646 12.8202 8.41839 12.8202 8.29826 12.7976C8.20193 12.7806 8.10786 12.7545 8.01719 12.7216C7.51966 12.5426 7.13886 12.3238 7.05159 11.756C7.01533 11.5056 7.04706 11.2506 7.11846 11.0103C7.11733 11.0103 7.13999 11.016 7.13999 11.016Z" fill="#003AD0"/>
<path d="M12.0292 14.5067C12.308 14.7515 12.6877 14.96 13.0639 14.8274C13.4651 14.7311 13.8947 14.8535 14.2301 15.0835C14.3287 15.1527 14.4183 15.2365 14.4897 15.3351C14.5962 15.4734 14.6359 15.6275 14.7515 15.7363C14.8138 15.7919 14.8943 15.8247 14.9759 15.8417C15.0767 15.8599 15.1821 15.8383 15.2819 15.8202C15.3635 15.8043 15.4541 15.7896 15.5369 15.7817C15.9653 15.7386 16.4152 15.8361 16.7835 16.0537L16.7745 16.0752C16.3993 15.9811 16.0242 15.9392 15.6434 15.9902C15.5641 16.0015 15.4859 16.0163 15.4077 16.0333C15.3238 16.0514 15.2365 16.0729 15.1504 16.0809C15.0518 16.0922 14.9487 16.082 14.8546 16.0491C14.7605 16.014 14.6721 15.963 14.6019 15.8905C14.4749 15.7601 14.4364 15.5845 14.3401 15.4405C14.1213 15.1141 13.6317 14.9022 13.2441 14.9135C13.1909 14.9135 13.1387 14.9192 13.0877 14.9294C13.0345 14.9407 12.9721 14.9566 12.9155 14.9577C12.682 14.9702 12.4565 14.8795 12.2695 14.7447C12.1765 14.6789 12.0927 14.6041 12.0145 14.5248C12.0133 14.5225 12.0292 14.5067 12.0292 14.5067Z" fill="#003AD0"/>
<path d="M26.486 10.0946C26.486 10.1207 26.486 10.1456 26.486 10.1717C26.4746 10.7814 26.4078 11.9714 25.7935 12.2842C25.7289 12.3159 25.6552 12.3386 25.585 12.3488C25.4626 12.3692 25.3379 12.3658 25.2234 12.3885C25.1044 12.4089 25.0126 12.4791 24.9628 12.5857C24.8857 12.7477 24.914 12.9415 24.8494 13.1127C24.803 13.2487 24.6647 13.3552 24.5162 13.3461C24.4437 13.3439 24.3723 13.3155 24.3077 13.2963C24.106 13.2283 23.8736 13.2713 23.6968 13.3779C23.613 13.4311 23.5404 13.5071 23.5064 13.5989C23.452 13.7609 23.5008 13.9309 23.3546 14.0703C23.1585 14.2641 22.8956 14.11 22.6655 14.1225C22.423 14.1304 22.2677 14.2437 22.1385 14.4523C22.0728 14.552 22.0082 14.6642 21.9141 14.7617C21.7736 14.909 21.5741 14.9997 21.3712 15.0053C20.9882 15.011 20.7626 14.7447 20.3694 14.9668C20.2526 15.0314 20.1824 15.1515 20.0894 15.2479C19.9602 15.3861 19.8004 15.4893 19.6384 15.5856C19.3006 15.7953 18.93 15.8633 18.5617 15.6797C18.4495 15.6241 18.3475 15.5516 18.2568 15.4655L18.2738 15.4473C18.6864 15.8021 19.1499 15.8202 19.5976 15.5199C19.7483 15.4224 19.9002 15.3193 20.018 15.1833C20.1019 15.0903 20.1654 14.9781 20.2708 14.9022C20.3784 14.824 20.5054 14.7741 20.6391 14.7605C20.8284 14.7379 21.0267 14.8195 21.1978 14.8523C21.4188 14.8988 21.65 14.8206 21.7996 14.6551C21.8744 14.5735 21.9322 14.4704 21.998 14.3627C22.0671 14.2505 22.151 14.1372 22.2654 14.0635C22.4377 13.9479 22.6576 13.9196 22.8582 13.9491C22.9216 13.957 22.9828 13.9683 23.0384 13.974C23.1268 13.9853 23.2072 13.9695 23.2458 13.8833C23.2616 13.8493 23.2662 13.7983 23.2707 13.7371C23.2752 13.6748 23.2832 13.6023 23.307 13.532C23.4135 13.2169 23.749 13.0549 24.0606 13.0265C24.1649 13.0163 24.2794 13.0311 24.3757 13.0583C24.421 13.0707 24.4573 13.0832 24.4981 13.0911C24.582 13.1104 24.6114 13.0254 24.6228 12.9551C24.642 12.8373 24.6466 12.7024 24.6862 12.5777C24.7282 12.4338 24.8279 12.2944 24.9616 12.2185C25.0886 12.1425 25.2393 12.1301 25.3753 12.1255C25.5464 12.121 25.6858 12.1131 25.8184 11.9963C26.1256 11.7232 26.2627 11.1089 26.342 10.7123C26.3874 10.4845 26.4202 10.2533 26.4531 10.0232L26.486 10.0946Z" fill="#003AD0"/>
<path d="M18.7714 22.6791C18.8303 22.6485 18.8723 22.5998 18.9131 22.5499C19.0377 22.449 19.1624 22.347 19.2882 22.2473C19.3211 22.2212 19.3562 22.1963 19.3993 22.1884C19.4389 22.1804 19.4763 22.1861 19.5047 22.2167C19.5364 22.2507 19.5285 22.2881 19.5081 22.3221C19.4729 22.3799 19.4367 22.4366 19.397 22.491C19.3177 22.6009 19.2213 22.6972 19.1499 22.8128C19.0831 22.8638 19.0309 22.9262 18.9845 22.9953C18.8371 23.1483 18.6887 23.3013 18.5617 23.4724C18.4348 23.579 18.4201 23.5971 18.3849 23.6912C18.479 23.6266 18.5572 23.5722 18.6354 23.5178C18.8235 23.4158 19.0117 23.3149 19.1987 23.2129C19.2859 23.1914 19.3698 23.1585 19.4469 23.1109C19.5375 23.086 19.6282 23.0633 19.7177 23.0372C19.8424 23.0021 19.9693 22.9942 20.0974 22.9998C20.2617 23.0066 20.3467 23.0882 20.3558 23.2537C20.3637 23.392 20.3399 23.5257 20.2901 23.6549C20.2799 23.681 20.2538 23.7048 20.2719 23.7376C20.3037 23.749 20.3173 23.7218 20.3354 23.707C20.8103 23.3262 21.3169 22.9998 21.8926 22.7913C22.0456 22.7358 22.1997 22.6882 22.3629 22.678C22.6077 22.6632 22.695 22.7754 22.6179 23.0089C22.5953 23.0769 22.5601 23.1415 22.5307 23.2072C22.525 23.2208 22.5295 23.2242 22.542 23.2186C22.6689 23.1653 22.7823 23.0894 22.8945 23.0112C23.0826 22.9307 23.2549 22.8185 23.4385 22.7278C23.6799 22.6088 23.9235 22.4966 24.1842 22.4275C24.259 22.4082 24.3338 22.3901 24.4109 22.3992C24.5174 22.4116 24.5616 22.466 24.5537 22.5714C24.5514 22.5964 24.548 22.6236 24.5389 22.6462C24.4528 22.8536 24.3055 23.0168 24.1445 23.2016C24.1332 23.1177 24.1751 23.0826 24.1967 23.0418C24.2329 22.9738 24.2817 22.908 24.225 22.8298C24.1706 22.7562 24.0958 22.7834 24.0255 22.7936C23.9145 22.8106 23.8113 22.8514 23.7105 22.8967C23.4532 23.0134 23.2141 23.1608 22.9829 23.3217C22.9477 23.3466 22.8809 23.3727 22.9092 23.4237C22.9387 23.4781 22.9919 23.426 23.0327 23.4146C23.086 23.3999 23.1359 23.3761 23.1891 23.358C23.4056 23.2866 23.6119 23.3081 23.7977 23.4407C23.8589 23.4849 23.9077 23.4872 23.9723 23.4543C24.2239 23.3274 24.4811 23.2152 24.7407 23.1064C24.922 23.0304 25.1056 22.9624 25.2983 22.925C25.3198 22.9262 25.3413 22.9262 25.3617 22.9273C25.5193 22.9364 25.5805 23.0259 25.5317 23.1778C25.4898 23.3092 25.4173 23.426 25.3357 23.5348C25.0807 23.877 24.8041 24.2012 24.4936 24.4958C24.4755 24.5128 24.4505 24.5253 24.4517 24.5593C24.4879 24.5808 24.514 24.5514 24.5423 24.5378C25.0183 24.3168 25.5034 24.1184 26.0111 23.9802C26.2503 23.9156 26.4939 23.8748 26.7399 23.8498C26.6957 23.9212 26.6141 23.9462 26.5551 23.9972C26.5143 24.0323 26.4611 24.0527 26.4271 24.098C26.3579 24.1218 26.2933 24.1536 26.2321 24.1921C25.7108 24.5185 25.1691 24.8075 24.6194 25.0829C24.2329 25.2767 23.8317 25.432 23.4079 25.5226C23.1993 25.5668 22.9897 25.6042 22.7743 25.5578C22.6111 25.5226 22.5261 25.4274 22.5012 25.2631C22.4706 25.0534 22.3539 24.9458 22.1397 24.9152C21.9017 24.8925 21.6852 24.9684 21.4721 25.0591C21.0664 25.2302 20.6958 25.4671 20.3207 25.6938C20.0249 25.8717 19.7313 26.053 19.414 26.1913C19.1964 26.2865 18.9731 26.3511 18.7329 26.3352C18.7091 26.3273 18.6853 26.3262 18.6615 26.3126C18.5368 26.2355 18.4903 26.121 18.4881 25.9794C18.4847 25.8094 18.5005 25.6394 18.4767 25.4705C18.4427 25.2314 18.3135 25.1316 18.0744 25.1554C17.9509 25.1486 17.8421 25.1962 17.7333 25.2438C17.51 25.3413 17.3117 25.4784 17.1179 25.6235C16.9785 25.7278 16.8425 25.8366 16.7053 25.942C16.6181 26.0088 16.5285 26.0746 16.4231 26.112C16.3789 26.0213 16.4197 25.9363 16.4469 25.8547C16.4957 25.7096 16.5591 25.5702 16.6113 25.4263C16.6441 25.339 16.6781 25.2506 16.6713 25.1543C16.6634 25.0387 16.6067 24.9843 16.4855 24.9775C16.3846 24.9628 16.2905 24.9911 16.201 25.033C16.0389 25.109 15.8769 25.1849 15.7182 25.2676C15.3125 25.4762 14.8863 25.619 14.433 25.6745C14.0681 25.7187 13.7031 25.7232 13.3359 25.696C12.6831 25.6496 12.0428 25.5317 11.4104 25.373C10.9639 25.2608 10.5253 25.1203 10.0957 24.956C9.92007 24.8891 9.74894 24.8132 9.58914 24.7157C9.5608 24.667 9.51547 24.6341 9.47354 24.5967C9.42254 24.5514 9.37494 24.5026 9.34434 24.4392C9.30014 24.3462 9.32847 24.2726 9.42254 24.2306C9.486 24.2023 9.55514 24.2023 9.62314 24.2C9.96087 24.1887 10.2952 24.2295 10.6307 24.268C10.8041 24.2884 10.9775 24.3077 11.152 24.327C11.1815 24.3304 11.2121 24.3326 11.2415 24.3304C11.2903 24.327 11.2982 24.2975 11.2778 24.259C11.2461 24.1978 11.1951 24.1502 11.1475 24.1026C10.7508 23.7036 10.3507 23.3081 9.95747 22.9046C9.74894 22.6916 9.54607 22.4717 9.36814 22.2314C9.3296 22.1804 9.29447 22.1272 9.26954 22.0682C9.24687 22.0161 9.22307 21.9594 9.26274 21.9107C9.30694 21.8552 9.37267 21.8733 9.42934 21.8914C9.4894 21.9107 9.54947 21.9368 9.60614 21.9662C9.8804 22.1068 10.1309 22.2847 10.3791 22.4649C10.7451 22.7301 11.0931 23.018 11.4467 23.299C11.5827 23.4078 11.7062 23.5268 11.8331 23.6436L11.8343 23.6424C11.832 23.5801 11.798 23.5302 11.7719 23.477C11.7017 23.3342 11.6563 23.1846 11.6393 23.0259C11.6201 22.8412 11.6915 22.772 11.8762 22.8015C11.9941 22.8208 12.1108 22.8468 12.2219 22.8922C12.2491 22.9035 12.2763 22.9194 12.308 22.9069C12.3363 22.8729 12.3069 22.8502 12.2876 22.831C12.0904 22.6281 11.8694 22.4547 11.6201 22.321C11.5861 22.3028 11.5498 22.2915 11.5124 22.2802C11.3809 22.2428 11.3095 22.2802 11.2665 22.4082C11.2336 22.5057 11.2472 22.6032 11.2812 22.6961C11.322 22.8083 11.3719 22.9171 11.4172 23.027C11.4331 23.0656 11.458 23.1007 11.4535 23.1449C11.4081 23.1619 11.3968 23.1268 11.3821 23.1041C11.1951 22.814 11.0047 22.5261 10.8426 22.2212C10.8041 22.1498 10.7678 22.0773 10.7508 21.9968C10.7247 21.871 10.7848 21.8064 10.9129 21.8314C10.9661 21.8416 11.0183 21.8642 11.0693 21.8858C11.3764 22.0172 11.6552 22.1974 11.9329 22.381C11.9827 22.4139 12.0281 22.4547 12.0893 22.4638L12.0881 22.4649C12.0677 22.3969 12.0167 22.3493 11.9771 22.2949C11.8807 22.1646 11.7844 22.0342 11.7062 21.8914C11.6677 21.82 11.6178 21.7384 11.6801 21.6659C11.7447 21.59 11.8388 21.624 11.9181 21.6523C12.0145 21.6863 12.1051 21.7362 12.1924 21.7883C12.5041 21.9753 12.7919 22.194 13.0685 22.4298C13.1013 22.457 13.1353 22.483 13.1659 22.5136C13.2192 22.568 13.2736 22.568 13.3393 22.534C13.4776 22.4615 13.6238 22.4264 13.7825 22.432C13.9275 22.4377 14.059 22.4785 14.1837 22.5476C14.1939 22.5544 14.2041 22.5612 14.2143 22.5669L14.2154 22.5658C14.2097 22.5544 14.2041 22.5431 14.1984 22.5318C14.1565 22.4536 14.1145 22.3742 14.0726 22.296C14.0409 22.236 14.0125 22.1725 14.008 22.1045C14.0023 22.0263 14.0397 21.9855 14.1179 21.9798C14.1746 21.9764 14.2267 21.9957 14.2766 22.0218C14.3786 22.075 14.4727 22.1396 14.5633 22.211C14.7084 22.3232 14.8387 22.4513 14.9679 22.5805C15.062 22.6734 15.0586 22.6757 15.1867 22.627C15.2501 22.6213 15.3136 22.6156 15.3771 22.6088C15.6479 22.5816 15.8769 22.6734 16.0763 22.8525C16.1081 22.8808 16.133 22.916 16.1727 22.9341C16.2237 23.0225 16.2769 23.1098 16.3257 23.1993C16.3755 23.2888 16.4061 23.3874 16.4435 23.4826C16.4798 23.5744 16.4719 23.681 16.5331 23.7637C16.5467 23.758 16.5523 23.758 16.5546 23.7546C16.575 23.7331 16.5965 23.7116 16.6169 23.69C16.8323 23.4622 17.0771 23.2718 17.3581 23.129C17.5032 23.0554 17.6562 23.0044 17.8081 22.9488C17.9837 22.9194 18.1583 22.9012 18.3294 22.9749C18.3589 23.0066 18.3702 23.0916 18.4371 23.0236C18.5504 22.9103 18.6762 22.8083 18.7714 22.6791ZM18.3237 23.7195L18.3169 23.7252L18.3237 23.7286V23.7195Z" fill="#479EFF"/>
</svg>
