<svg width="34" height="37" viewBox="0 0 34 37" fill="none" xmlns="http://www.w3.org/2000/svg">
<path d="M20.2103 0C11.8701 7.12461 5.23955 19.2045 12.0371 27.738C17.0132 32.4289 24.5139 31.4399 27.3066 25.3686C32.3753 14.143 17.638 10.839 20.2106 6.68488e-05L20.2103 0Z" fill="url(#paint0_radial_135_2487)"/>
<g filter="url(#filter0_f_135_2487)">
<path d="M18.5552 28.9669C22.1236 28.1842 23.1012 25.6349 24.0464 23.0632C24.1472 20.6502 27.128 20.8352 26.3343 23.6124C25.1082 26.817 22.9415 29.0448 18.5552 28.9669Z" fill="url(#paint1_radial_135_2487)"/>
</g>
<g opacity="0.88496" filter="url(#filter1_f_135_2487)">
<path d="M11.6521 17.9377C11.0751 20.4238 11.854 22.7356 13.3921 23.1012C14.9301 23.4668 16.6447 21.7477 17.2218 19.2616C17.7989 16.7754 17.0199 14.4637 15.4819 14.0981C13.9438 13.7325 12.2292 15.4516 11.6521 17.9377Z" fill="white"/>
</g>
<defs>
<filter id="filter0_f_135_2487" x="11.1733" y="13.9999" width="22.6772" height="22.3509" filterUnits="userSpaceOnUse" color-interpolation-filters="sRGB">
<feFlood flood-opacity="0" result="BackgroundImageFix"/>
<feBlend mode="normal" in="SourceGraphic" in2="BackgroundImageFix" result="shape"/>
<feGaussianBlur stdDeviation="3.69095" result="effect1_foregroundBlur_135_2487"/>
</filter>
<filter id="filter1_f_135_2487" x="0.961295" y="3.54858" width="26.9514" height="30.1021" filterUnits="userSpaceOnUse" color-interpolation-filters="sRGB">
<feFlood flood-opacity="0" result="BackgroundImageFix"/>
<feBlend mode="normal" in="SourceGraphic" in2="BackgroundImageFix" result="shape"/>
<feGaussianBlur stdDeviation="5.25025" result="effect1_foregroundBlur_135_2487"/>
</filter>
<radialGradient id="paint0_radial_135_2487" cx="0" cy="0" r="1" gradientUnits="userSpaceOnUse" gradientTransform="translate(16.4213 18.5118) rotate(2.04802) scale(10.4969 15.0622)">
<stop stop-color="#00F1FF"/>
<stop offset="0.5" stop-color="#00BDFF"/>
<stop offset="1" stop-color="#2381C2"/>
</radialGradient>
<radialGradient id="paint1_radial_135_2487" cx="0" cy="0" r="1" gradientUnits="userSpaceOnUse" gradientTransform="translate(24.8597 23.3422) rotate(9.91881) scale(6.02801 9.64494)">
<stop stop-color="#D5E5FF"/>
<stop offset="1" stop-color="#D5E5FF" stop-opacity="0"/>
</radialGradient>
</defs>
</svg>
