<svg width="37" height="22" viewBox="0 0 37 22" fill="none" xmlns="http://www.w3.org/2000/svg">
<rect width="37" height="22" fill="#3574BD"/>
<path d="M13.6648 12.1043C14.5818 12.3597 15.3532 12.9809 15.7981 13.8224C16.243 14.6638 16.3221 15.6512 16.0169 16.5527L14.9829 19.6065C16.1648 19.6504 17.2853 20.0392 18.2273 20.7252C19.1662 20.0414 20.2823 19.6527 21.4601 19.6068L20.4505 16.841C20.1443 15.9398 20.2226 14.9525 20.6662 14.1104C21.1097 13.2683 21.88 12.3555 22.7966 12.0991C24.9753 11.4896 31.8968 8.06108 27.8328 3.14607C27.7558 3.05295 27.6411 2.99937 27.5202 3.00001C27.3994 3.00064 27.2849 3.05526 27.209 3.14924C26.5573 3.95513 24.9115 5.75707 23.248 5.72207C21.316 5.68138 19.2199 6.25546 18.2282 7.68671C17.2349 6.25661 15.1381 5.68495 13.2062 5.72783C11.5426 5.76478 9.89477 3.96474 9.24219 3.15954C9.16605 3.06561 9.05175 3.01088 8.9309 3.01042C8.80998 3.00996 8.69534 3.06389 8.61839 3.15712C4.56004 8.07679 11.4855 11.4974 13.6648 12.1043Z" fill="white"/>
<path d="M3.26225 15.9035C3.73722 16.0358 4.13685 16.3576 4.3673 16.7935C4.59775 17.2294 4.63875 17.7409 4.48062 18.2079L3.94504 19.7898C4.55727 19.8125 5.13769 20.0139 5.62565 20.3693C6.11204 20.015 6.69019 19.8137 7.3003 19.7899L6.77731 18.3572C6.61867 17.8903 6.65925 17.3789 6.88901 16.9427C7.11878 16.5065 7.51778 16.0337 7.99261 15.9008C9.12118 15.5851 12.7066 13.8091 10.6014 11.2631C10.5615 11.2148 10.5021 11.1871 10.4395 11.1874C10.3769 11.1877 10.3176 11.216 10.2783 11.2647C9.94072 11.6822 9.08815 12.6156 8.22643 12.5975C7.22562 12.5764 6.13983 12.8738 5.62613 13.6152C5.11157 12.8744 4.02542 12.5782 3.02465 12.6004C2.16292 12.6196 1.3093 11.6871 0.97126 11.27C0.931818 11.2214 0.872611 11.193 0.810005 11.1928C0.747369 11.1926 0.687983 11.2205 0.648124 11.2688C-1.45415 13.8172 2.13332 15.5892 3.26225 15.9035Z" fill="#D0D0D0"/>
<path d="M29.0109 15.9035C29.4859 16.0358 29.8855 16.3576 30.116 16.7935C30.3464 17.2294 30.3874 17.7409 30.2293 18.2079L29.6937 19.7898C30.3059 19.8125 30.8863 20.0139 31.3743 20.3693C31.8607 20.015 32.4389 19.8137 33.049 19.7899L32.526 18.3572C32.3673 17.8903 32.4079 17.3789 32.6377 16.9427C32.8674 16.5065 33.2664 16.0337 33.7413 15.9008C34.8698 15.5851 38.4553 13.8091 36.3501 11.2631C36.3102 11.2148 36.2508 11.1871 36.1882 11.1874C36.1256 11.1877 36.0663 11.216 36.0269 11.2647C35.6894 11.6822 34.8368 12.6156 33.9751 12.5975C32.9743 12.5764 31.8885 12.8738 31.3748 13.6152C30.8602 12.8744 29.7741 12.5782 28.7733 12.6004C27.9116 12.6196 27.058 11.6871 26.7199 11.27C26.6805 11.2214 26.6213 11.193 26.5587 11.1928C26.496 11.1926 26.4366 11.2205 26.3968 11.2688C24.2945 13.8172 27.882 15.5892 29.0109 15.9035Z" fill="#D0D0D0"/>
</svg>
