<svg width="40" height="40" viewBox="0 0 40 40" fill="none" xmlns="http://www.w3.org/2000/svg">
<circle cx="20" cy="20" r="20" fill="#D9D9D9"/>
<path d="M15.75 11.375C11.6198 11.375 9.43948 13.1345 8.53123 14.9297C7.63406 16.703 7.86923 18.4145 7.87498 18.457V18.4844C7.88162 18.5421 8.39356 22.7166 11.375 25.7578V28.875V29.8047L12.3047 29.75C12.3047 29.75 13.9112 29.5967 15.3125 28.2461C15.457 28.2953 15.5999 28.3388 15.75 28.3828V31.5V32.4297L16.6797 32.375C16.6797 32.375 18.0628 32.2796 19.3594 31.1992C20.0137 30.6539 20.6686 29.8511 21.1367 28.7383C26.2156 27.8799 28.7106 24.7709 29.7773 21.957C30.844 19.1432 30.625 16.543 30.625 16.543L30.4609 16.5703C30.4636 16.5628 30.4583 16.5504 30.4609 16.543C32.0125 16.2816 34.125 15.1954 34.125 12.25H33.25C31.6347 12.25 30.5506 12.9135 29.8594 13.6992C29.7911 13.6143 29.722 13.5363 29.6406 13.4531C28.8592 12.6612 27.7191 12.25 26.25 12.25H25.375C25.375 14.9153 27.0709 16.0709 28.5469 16.4609C28.392 16.7423 28.1825 17.0423 27.918 17.3086C27.3263 17.904 26.5149 18.375 25.375 18.375C24.816 18.375 24.3579 18.0991 23.789 17.5273C23.2202 16.9555 22.6324 16.1248 21.957 15.2305C20.6063 13.4419 18.7639 11.375 15.75 11.375ZM15.75 13.125C17.9861 13.125 19.2427 14.5581 20.5351 16.2695C21.1814 17.1252 21.7944 18.0445 22.5312 18.7852C23.2681 19.5259 24.2203 20.125 25.375 20.125C26.8023 20.125 27.9503 19.5785 28.793 18.8672C28.693 19.5983 28.4981 20.4468 28.164 21.3281C27.3079 23.5865 25.5996 25.942 21.6562 26.8516C21.7878 26.1482 21.875 25.3756 21.875 24.5H20.125C20.125 27.6641 19.1566 29.0896 18.2656 29.832C17.9817 30.0686 17.7417 30.154 17.5 30.2695V24.5H15.75V26.5781C12.3773 25.3774 10.8323 22.5043 10.1445 20.4805C11.3971 20.7325 13.2739 21 15.75 21V19.25C12.7084 19.25 10.6505 18.8612 9.67967 18.6211C9.64408 18.4114 9.62498 18.293 9.62498 18.293V18.2656C9.62498 18.2656 9.47601 16.9626 10.1172 15.6953C10.7583 14.428 12.0778 13.125 15.75 13.125ZM14.875 16.625C14.3917 16.625 14 17.0168 14 17.5C14 17.9832 14.3917 18.375 14.875 18.375C15.3582 18.375 15.75 17.9832 15.75 17.5C15.75 17.0168 15.3582 16.625 14.875 16.625ZM13.125 27.1797C13.251 27.2605 13.3758 27.3495 13.5078 27.4258C13.3774 27.5019 13.2443 27.5866 13.125 27.6445V27.1797Z" fill="#9E9E9E"/>
</svg>
