<svg width="37" height="22" viewBox="0 0 37 22" fill="none" xmlns="http://www.w3.org/2000/svg">
<path d="M19.1398 6.45963C20.0213 6.45823 20.8833 6.71853 21.6166 7.20755C22.3499 7.69656 22.9216 8.39226 23.2591 9.2065C23.5967 10.0207 23.6849 10.9168 23.5126 11.7813C23.3403 12.6457 22.9153 13.4395 22.2914 14.0621C21.6675 14.6848 20.8728 15.1082 20.008 15.2787C19.1433 15.4492 18.2473 15.3591 17.4338 15.0199C16.6202 14.6807 15.9257 14.1076 15.4382 13.3733C14.9507 12.639 14.6922 11.7764 14.6954 10.895C14.7057 9.7203 15.1776 8.59676 16.0091 7.76694C16.8406 6.93711 17.9651 6.46755 19.1398 6.45963Z" fill="white"/>
<path d="M32.9306 11.1297C32.8975 14.6815 31.8592 18.1514 29.9359 21.1376C29.5079 21.8104 28.7906 22.0077 28.1866 21.6202C27.5826 21.2327 27.4612 20.5184 27.8831 19.8608C29.683 17.028 30.5672 13.9301 30.5024 10.5753C30.4438 7.51988 29.5858 4.69516 27.9802 2.091C27.7856 1.7744 27.6775 1.41229 27.6666 1.04083C27.6666 0.534974 28.0956 0.139392 28.5944 0.0291148C29.0931 -0.0811625 29.5879 0.130292 29.8914 0.603776C30.7422 1.91487 31.4254 3.32745 31.9249 4.80848C32.5967 6.79549 32.9245 8.84017 32.9306 11.1297Z" fill="white"/>
<path d="M5.00006 10.8282C5.00932 7.21013 6.05906 3.67107 8.02409 0.633116C8.37718 0.0827414 8.92856 -0.123647 9.48602 0.0726265C9.75376 0.159211 9.98109 0.33981 10.126 0.581036C10.2709 0.822261 10.3235 1.10779 10.2741 1.38482C10.2257 1.61785 10.1323 1.83918 9.99896 2.03637C8.64709 4.16076 7.80337 6.56831 7.5334 9.07185C7.12871 12.8638 7.92056 16.3879 9.90892 19.6443C10.0576 19.8881 10.2124 20.1502 10.2701 20.4223C10.3218 20.6973 10.2726 20.9816 10.1315 21.2232C9.99048 21.4648 9.76704 21.6474 9.50221 21.7376C8.96094 21.9399 8.38932 21.7446 8.05545 21.2317C7.21295 19.9429 6.5333 18.5547 6.03201 17.0988C5.34342 15.0801 4.9947 12.9611 5.00006 10.8282Z" fill="white"/>
<path d="M9.84718 10.7584C9.87248 8.82601 10.4097 7.0555 11.5165 5.46508C11.9597 4.82669 12.678 4.66481 13.2557 5.0604C13.8333 5.45598 13.9386 6.17328 13.5187 6.83292C11.8325 9.46339 11.8349 12.0905 13.5258 14.7142C13.9426 15.3647 13.8293 16.0972 13.2445 16.4817C12.6598 16.8661 11.9526 16.6952 11.5044 16.0537C10.4284 14.4972 9.8505 12.6506 9.84718 10.7584Z" fill="white"/>
<path d="M28.3283 10.8262C28.327 12.6935 27.7532 14.5155 26.6842 16.0467C26.232 16.7073 25.5046 16.8753 24.9167 16.4665C24.3451 16.0689 24.25 15.3536 24.6719 14.693C26.3386 12.0767 26.3386 9.45936 24.6719 6.84103C24.251 6.18139 24.3451 5.4661 24.9188 5.06951C25.5137 4.65875 26.2279 4.82265 26.6842 5.48634C27.773 7.0526 28.3476 8.91878 28.3283 10.8262Z" fill="white"/>
</svg>
