<svg width="37" height="22" viewBox="0 0 37 22" fill="none" xmlns="http://www.w3.org/2000/svg">
<path d="M16.9858 1.965L16.1423 1.17029C15.9013 0.943236 15.5397 0.943236 15.2987 1.17029L9.99665 6.16556L7.86778 4.15989C7.62678 3.93283 7.26527 3.93283 7.02427 4.15989L6.18075 4.95459C5.93975 5.18165 5.93975 5.52223 6.18075 5.74929L9.15314 8.54967C9.39414 8.77673 9.71548 8.89025 9.99665 8.89025C10.318 8.89025 10.5992 8.77673 10.8402 8.54967L16.9858 2.7597C17.1866 2.57048 17.1866 2.19205 16.9858 1.965ZM29.1967 7.37654H18.7531C18.3113 7.37654 17.9498 7.03595 17.9498 6.61968V5.10596C17.9498 4.68969 18.3113 4.3491 18.7531 4.3491H29.1967C29.6385 4.3491 30 4.68969 30 5.10596V6.61968C30 7.03595 29.6385 7.37654 29.1967 7.37654ZM29.1967 14.1883H16.3431C15.9013 14.1883 15.5397 13.8477 15.5397 13.4314V11.9177C15.5397 11.5014 15.9013 11.1608 16.3431 11.1608H29.1967C29.6385 11.1608 30 11.5014 30 11.9177V13.4314C30 13.8477 29.6385 14.1883 29.1967 14.1883ZM11.523 14.1883H9.91632C9.47448 14.1883 9.11297 13.8477 9.11297 13.4314V11.9177C9.11297 11.5014 9.47448 11.1608 9.91632 11.1608H11.523C11.9649 11.1608 12.3264 11.5014 12.3264 11.9177V13.4314C12.3264 13.8477 11.9649 14.1883 11.523 14.1883ZM11.523 21H9.91632C9.47448 21 9.11297 20.6594 9.11297 20.2431V18.7294C9.11297 18.3131 9.47448 17.9726 9.91632 17.9726H11.523C11.9649 17.9726 12.3264 18.3131 12.3264 18.7294V20.2431C12.3264 20.6594 11.9649 21 11.523 21ZM29.1967 21H16.3431C15.9013 21 15.5397 20.6594 15.5397 20.2431V18.7294C15.5397 18.3131 15.9013 17.9726 16.3431 17.9726H29.1967C29.6385 17.9726 30 18.3131 30 18.7294V20.2431C30 20.6594 29.6385 21 29.1967 21Z" fill="white"/>
</svg>
