<svg width="37" height="23" viewBox="0 0 37 23" fill="none" xmlns="http://www.w3.org/2000/svg">
<path d="M27.764 8.47046L25.5624 6.24286L20.2497 0.861808L19.6599 0.264532C19.5746 0.181555 19.4722 0.115368 19.3588 0.0699189C19.2453 0.0244701 19.1232 0.000692021 18.9996 4.33627e-06C18.8758 -0.000365563 18.7533 0.0229336 18.6397 0.0684469C18.5261 0.11396 18.4238 0.180711 18.3392 0.264532L17.751 0.861808L12.5809 6.1106L10.2352 8.49274C10.1194 8.61143 10.0424 8.75824 10.0131 8.91602C9.98391 9.07379 10.0037 9.23603 10.0701 9.38378C10.1405 9.52864 10.2543 9.65164 10.398 9.73805C10.5417 9.82447 10.7093 9.87065 10.8805 9.87107H12.5809H13.7169V15.5598C13.7159 15.6679 13.7382 15.7752 13.7823 15.8753C13.8264 15.9753 13.8916 16.0663 13.974 16.1427C14.0565 16.2192 14.1545 16.2797 14.2624 16.3206C14.3702 16.3616 14.4858 16.3822 14.6024 16.3812H23.4418C23.6765 16.3768 23.9005 16.2892 24.068 16.1365C24.2354 15.9838 24.3335 15.7775 24.3422 15.5598V9.84879H27.1216C27.2929 9.84837 27.4604 9.80219 27.6041 9.71578C27.7479 9.62936 27.8617 9.50637 27.932 9.36151C27.9992 9.21369 28.0191 9.05106 27.9893 8.89305C27.9595 8.73504 27.8812 8.58834 27.764 8.47046Z" fill="white"/>
<path d="M23.3968 18.1606H14.5574C14.4408 18.1596 14.3252 18.1802 14.2173 18.2212C14.1094 18.2621 14.0114 18.3226 13.929 18.3991C13.8466 18.4755 13.7814 18.5665 13.7373 18.6665C13.6931 18.7666 13.6709 18.8739 13.6719 18.982C13.6709 19.0901 13.6931 19.1973 13.7373 19.2974C13.7814 19.3975 13.8466 19.4884 13.929 19.5649C14.0114 19.6414 14.1094 19.7018 14.2173 19.7428C14.3252 19.7837 14.4408 19.8043 14.5574 19.8034H23.4118C23.5272 19.8029 23.6413 19.7811 23.7477 19.7395C23.854 19.6979 23.9504 19.6371 24.0313 19.5608C24.1122 19.4844 24.176 19.394 24.2191 19.2946C24.2621 19.1953 24.2836 19.089 24.2822 18.982C24.2832 18.8739 24.261 18.7666 24.2169 18.6665C24.1727 18.5665 24.1075 18.4755 24.0251 18.3991C23.9427 18.3226 23.8447 18.2621 23.7368 18.2212C23.6289 18.1802 23.5133 18.1596 23.3968 18.1606Z" fill="white"/>
<path d="M21.6409 21.3627H16.3282C16.2117 21.3618 16.0961 21.3824 15.9882 21.4233C15.8803 21.4643 15.7823 21.5248 15.6999 21.6012C15.6175 21.6777 15.5523 21.7686 15.5081 21.8687C15.464 21.9688 15.4418 22.076 15.4428 22.1841C15.4418 22.2923 15.464 22.3995 15.5081 22.4996C15.5523 22.5997 15.6175 22.6906 15.6999 22.767C15.7823 22.8435 15.8803 22.904 15.9882 22.9449C16.0961 22.9859 16.2117 23.0065 16.3282 23.0056H21.6409C21.8756 23.0052 22.1006 22.9185 22.2665 22.7646C22.4325 22.6106 22.5259 22.4019 22.5263 22.1841C22.5273 22.076 22.5051 21.9688 22.461 21.8687C22.4168 21.7686 22.3516 21.6777 22.2692 21.6012C22.1868 21.5248 22.0888 21.4643 21.9809 21.4233C21.873 21.3824 21.7574 21.3618 21.6409 21.3627Z" fill="white"/>
</svg>
